SplineFontDB: 3.2
FontName: Untitled
FullName: Untitled
FamilyName: Untitled
Weight: Regular
ItalicAngle: 0
UnderlinePosition: 0
UnderlineWidth: 0
Ascent: 1638
Descent: 410
InvalidEm: 1
LayerCount: 2
Layer: 0 0 "Back" 1
Layer: 1 0 "Fore" 0
StyleMap: 0x0000
FSType: 0
OS2Version: 0
OS2_WeightWidthSlopeOnly: 0
OS2_UseTypoMetrics: 0
CreationTime: 1772000712
ModificationTime: 1772172332
PfmFamily: 16
TTFWeight: 400
TTFWidth: 5
LineGap: 0
VLineGap: 0
OS2TypoAscent: 0
OS2TypoAOffset: 1
OS2TypoDescent: 0
OS2TypoDOffset: 1
OS2TypoLinegap: 0
OS2WinAscent: 0
OS2WinAOffset: 1
OS2WinDescent: 0
OS2WinDOffset: 1
HheadAscent: 0
HheadAOffset: 1
HheadDescent: 0
HheadDOffset: 1
OS2Vendor: 'PfEd'
DEI: 91125
Encoding: Custom
UnicodeInterp: none
NameList: AGL For New Fonts
DisplaySize: -48
AntiAlias: 0
FitToEm: 0
WinInfo: 0 34 12
Grid
-640 -640 m 1
 -640 -603 l 1025
-640 -603 m 1
 -640 -549 l 1025
-640 -549 m 1
 -640 -512 l 1025
-640 -512 m 1
 -603 -512 l 1025
-603 -512 m 1
 -549 -512 l 1025
-549 -512 m 1
 -512 -512 l 1025
-512 -512 m 1
 -512 -549 l 1025
-512 -549 m 1
 -512 -603 l 1025
-512 -603 m 1
 -512 -640 l 1025
-512 -640 m 1
 -549 -640 l 1025
-549 -640 m 1
 -603 -640 l 1025
-603 -640 m 1
 -640 -640 l 1025
-603 -640 m 1
 -640 -603 l 1025
-640 -603 m 1
 -613 -576 l 1025
-613 -576 m 1
 -640 -549 l 1025
-640 -549 m 1
 -603 -512 l 1025
-603 -512 m 1
 -576 -539 l 1025
-576 -539 m 1
 -549 -512 l 1025
-549 -512 m 1
 -512 -549 l 1025
-512 -549 m 1
 -539 -576 l 1025
-539 -576 m 1
 -512 -603 l 1025
-512 -603 m 1
 -549 -640 l 1025
-549 -640 m 1
 -576 -613 l 1025
-576 -613 m 1
 -603 -640 l 1025
-613 -576 m 1
 -576 -539 l 1025
-576 -539 m 1
 -539 -576 l 1025
-539 -576 m 1
 -576 -613 l 1025
-576 -613 m 1
 -613 -576 l 1025
-640 -512 m 1
 -640 -475 l 1025
-640 -475 m 1
 -640 -421 l 1025
-640 -421 m 1
 -640 -384 l 1025
-640 -384 m 1
 -603 -384 l 1025
-603 -384 m 1
 -549 -384 l 1025
-549 -384 m 1
 -512 -384 l 1025
-512 -384 m 1
 -512 -421 l 1025
-512 -421 m 1
 -512 -475 l 1025
-512 -475 m 1

StartChar: char33.uni0021
Encoding: 1 33 1
GlifName: char33.uni0021
Width: 1024
VWidth: 0
Flags: HW
LayerCount: 2
Back
SplineSet
384 0 m 257
 384 128 l 257
 512 128 l 257
 512 0 l 257
 384 0 l 257
384 384 m 257
 384 512 l 257
 512 512 l 257
 512 384 l 257
 384 384 l 257
384 512 m 257
 384 640 l 257
 512 640 l 257
 512 512 l 257
 384 512 l 257
384 640 m 257
 384 768 l 257
 512 768 l 257
 512 640 l 257
 384 640 l 257
384 768 m 257
 384 896 l 257
 512 896 l 257
 512 768 l 257
 384 768 l 257
384 896 m 257
 384 1024 l 257
 512 1024 l 257
 512 896 l 257
 384 896 l 257
384 1024 m 257
 384 1152 l 257
 512 1152 l 257
 512 1024 l 257
 384 1024 l 257
384 1152 m 257
 384 1280 l 257
 512 1280 l 257
 512 1152 l 257
 384 1152 l 257
384 1280 m 257
 384 1408 l 257
 512 1408 l 257
 512 1280 l 257
 384 1280 l 257
EndSplineSet
Fore
SplineSet
384 0 m 1
 384 128 l 1
 512 128 l 1
 512 0 l 1
 384 0 l 1
384 384 m 1
 384 1408 l 1
 512 1408 l 1
 512 384 l 1
 384 384 l 1
EndSplineSet
EndChar

StartChar: char34.uni0022
Encoding: 2 34 2
GlifName: char34.uni0022
Width: 1024
VWidth: 0
Flags: HW
LayerCount: 2
Back
SplineSet
256 1024 m 257
 256 1152 l 257
 384 1152 l 257
 384 1024 l 257
 256 1024 l 257
512 1024 m 257
 512 1152 l 257
 640 1152 l 257
 640 1024 l 257
 512 1024 l 257
256 1152 m 257
 256 1280 l 257
 384 1280 l 257
 384 1152 l 257
 256 1152 l 257
512 1152 m 257
 512 1280 l 257
 640 1280 l 257
 640 1152 l 257
 512 1152 l 257
256 1280 m 257
 256 1408 l 257
 384 1408 l 257
 384 1280 l 257
 256 1280 l 257
512 1280 m 257
 512 1408 l 257
 640 1408 l 257
 640 1280 l 257
 512 1280 l 257
EndSplineSet
Fore
SplineSet
256 1024 m 1
 256 1408 l 1
 384 1408 l 1
 384 1024 l 1
 256 1024 l 1
512 1024 m 1
 512 1408 l 1
 640 1408 l 1
 640 1024 l 1
 512 1024 l 1
EndSplineSet
EndChar

StartChar: char35.uni0023
Encoding: 3 35 3
GlifName: char35.uni0023
Width: 1024
VWidth: 0
Flags: HW
LayerCount: 2
Back
SplineSet
256 256 m 257
 256 384 l 257
 384 384 l 257
 384 256 l 257
 256 256 l 257
512 256 m 257
 512 384 l 257
 640 384 l 257
 640 256 l 257
 512 256 l 257
256 384 m 257
 256 512 l 257
 384 512 l 257
 384 384 l 257
 256 384 l 257
512 384 m 257
 512 512 l 257
 640 512 l 257
 640 384 l 257
 512 384 l 257
0 512 m 257
 0 640 l 257
 128 640 l 257
 128 512 l 257
 0 512 l 257
128 512 m 257
 128 640 l 257
 256 640 l 257
 256 512 l 257
 128 512 l 257
256 512 m 257
 256 640 l 257
 384 640 l 257
 384 512 l 257
 256 512 l 257
384 512 m 257
 384 640 l 257
 512 640 l 257
 512 512 l 257
 384 512 l 257
512 512 m 257
 512 640 l 257
 640 640 l 257
 640 512 l 257
 512 512 l 257
640 512 m 257
 640 640 l 257
 768 640 l 257
 768 512 l 257
 640 512 l 257
768 512 m 257
 768 640 l 257
 896 640 l 257
 896 512 l 257
 768 512 l 257
256 640 m 257
 256 768 l 257
 384 768 l 257
 384 640 l 257
 256 640 l 257
512 640 m 257
 512 768 l 257
 640 768 l 257
 640 640 l 257
 512 640 l 257
0 768 m 257
 0 896 l 257
 128 896 l 257
 128 768 l 257
 0 768 l 257
128 768 m 257
 128 896 l 257
 256 896 l 257
 256 768 l 257
 128 768 l 257
256 768 m 257
 256 896 l 257
 384 896 l 257
 384 768 l 257
 256 768 l 257
384 768 m 257
 384 896 l 257
 512 896 l 257
 512 768 l 257
 384 768 l 257
512 768 m 257
 512 896 l 257
 640 896 l 257
 640 768 l 257
 512 768 l 257
640 768 m 257
 640 896 l 257
 768 896 l 257
 768 768 l 257
 640 768 l 257
768 768 m 257
 768 896 l 257
 896 896 l 257
 896 768 l 257
 768 768 l 257
256 896 m 257
 256 1024 l 257
 384 1024 l 257
 384 896 l 257
 256 896 l 257
512 896 m 257
 512 1024 l 257
 640 1024 l 257
 640 896 l 257
 512 896 l 257
256 1024 m 257
 256 1152 l 257
 384 1152 l 257
 384 1024 l 257
 256 1024 l 257
512 1024 m 257
 512 1152 l 257
 640 1152 l 257
 640 1024 l 257
 512 1024 l 257
EndSplineSet
Fore
SplineSet
0 512 m 1
 0 640 l 1
 256 640 l 1
 256 768 l 1
 0 768 l 1
 0 896 l 1
 256 896 l 1
 256 1152 l 1
 384 1152 l 1
 384 896 l 1
 512 896 l 1
 512 1152 l 1
 640 1152 l 1
 640 896 l 1
 896 896 l 1
 896 768 l 1
 640 768 l 1
 640 640 l 1
 896 640 l 1
 896 512 l 1
 640 512 l 1
 640 256 l 1
 512 256 l 1
 512 512 l 1
 384 512 l 1
 384 256 l 1
 256 256 l 1
 256 512 l 1
 0 512 l 1
384 640 m 1
 512 640 l 1
 512 768 l 1
 384 768 l 1
 384 640 l 1
EndSplineSet
EndChar

StartChar: char36.uni0024
Encoding: 4 36 4
GlifName: char36.uni0024
Width: 1024
VWidth: 0
Flags: HW
LayerCount: 2
Back
SplineSet
384 0 m 257
 384 128 l 257
 512 128 l 257
 512 0 l 257
 384 0 l 257
384 128 m 257
 384 256 l 257
 512 256 l 257
 512 128 l 257
 384 128 l 257
256 256 m 257
 256 384 l 257
 384 384 l 257
 384 256 l 257
 256 256 l 257
384 256 m 257
 384 384 l 257
 512 384 l 257
 512 256 l 257
 384 256 l 257
512 256 m 257
 512 384 l 257
 640 384 l 257
 640 256 l 257
 512 256 l 257
128 384 m 257
 128 512 l 257
 256 512 l 257
 256 384 l 257
 128 384 l 257
384 384 m 257
 384 512 l 257
 512 512 l 257
 512 384 l 257
 384 384 l 257
640 384 m 257
 640 512 l 257
 768 512 l 257
 768 384 l 257
 640 384 l 257
384 512 m 257
 384 640 l 257
 512 640 l 257
 512 512 l 257
 384 512 l 257
640 512 m 257
 640 640 l 257
 768 640 l 257
 768 512 l 257
 640 512 l 257
256 640 m 257
 256 768 l 257
 384 768 l 257
 384 640 l 257
 256 640 l 257
384 640 m 257
 384 768 l 257
 512 768 l 257
 512 640 l 257
 384 640 l 257
512 640 m 257
 512 768 l 257
 640 768 l 257
 640 640 l 257
 512 640 l 257
128 768 m 257
 128 896 l 257
 256 896 l 257
 256 768 l 257
 128 768 l 257
384 768 m 257
 384 896 l 257
 512 896 l 257
 512 768 l 257
 384 768 l 257
128 896 m 257
 128 1024 l 257
 256 1024 l 257
 256 896 l 257
 128 896 l 257
384 896 m 257
 384 1024 l 257
 512 1024 l 257
 512 896 l 257
 384 896 l 257
640 896 m 257
 640 1024 l 257
 768 1024 l 257
 768 896 l 257
 640 896 l 257
256 1024 m 257
 256 1152 l 257
 384 1152 l 257
 384 1024 l 257
 256 1024 l 257
384 1024 m 257
 384 1152 l 257
 512 1152 l 257
 512 1024 l 257
 384 1024 l 257
512 1024 m 257
 512 1152 l 257
 640 1152 l 257
 640 1024 l 257
 512 1024 l 257
384 1152 m 257
 384 1280 l 257
 512 1280 l 257
 512 1152 l 257
 384 1152 l 257
384 1280 m 257
 384 1408 l 257
 512 1408 l 257
 512 1280 l 257
 384 1280 l 257
EndSplineSet
Fore
SplineSet
128 421 m 1
 219 512 l 1
 347 384 l 1
 384 384 l 1
 384 640 l 1
 293 640 l 1
 128 805 l 1
 128 987 l 1
 293 1152 l 1
 384 1152 l 1
 384 1408 l 1
 512 1408 l 1
 512 1152 l 1
 603 1152 l 1
 768 987 l 1
 677 896 l 1
 549 1024 l 1
 512 1024 l 1
 512 768 l 1
 603 768 l 1
 768 603 l 1
 768 421 l 1
 603 256 l 1
 512 256 l 1
 512 0 l 1
 384 0 l 1
 384 256 l 1
 293 256 l 1
 128 421 l 1
256 859 m 1
 347 768 l 1
 384 768 l 1
 384 1024 l 1
 347 1024 l 1
 256 933 l 1
 256 859 l 1
512 384 m 1
 549 384 l 1
 640 475 l 1
 640 549 l 1
 549 640 l 1
 512 640 l 1
 512 384 l 1
EndSplineSet
EndChar

StartChar: char37.uni0025
Encoding: 5 37 5
GlifName: char37.uni0025
Width: 1024
VWidth: 0
Flags: HW
LayerCount: 2
Back
SplineSet
0 256 m 257
 0 384 l 257
 128 384 l 257
 128 256 l 257
 0 256 l 257
640 256 m 257
 640 384 l 257
 768 384 l 257
 768 256 l 257
 640 256 l 257
128 384 m 257
 128 512 l 257
 256 512 l 257
 256 384 l 257
 128 384 l 257
512 384 m 257
 512 512 l 257
 640 512 l 257
 640 384 l 257
 512 384 l 257
768 384 m 257
 768 512 l 257
 896 512 l 257
 896 384 l 257
 768 384 l 257
256 512 m 257
 256 640 l 257
 384 640 l 257
 384 512 l 257
 256 512 l 257
640 512 m 257
 640 640 l 257
 768 640 l 257
 768 512 l 257
 640 512 l 257
384 640 m 257
 384 768 l 257
 512 768 l 257
 512 640 l 257
 384 640 l 257
128 768 m 257
 128 896 l 257
 256 896 l 257
 256 768 l 257
 128 768 l 257
512 768 m 257
 512 896 l 257
 640 896 l 257
 640 768 l 257
 512 768 l 257
0 896 m 257
 0 1024 l 257
 128 1024 l 257
 128 896 l 257
 0 896 l 257
256 896 m 257
 256 1024 l 257
 384 1024 l 257
 384 896 l 257
 256 896 l 257
640 896 m 257
 640 1024 l 257
 768 1024 l 257
 768 896 l 257
 640 896 l 257
128 1024 m 257
 128 1152 l 257
 256 1152 l 257
 256 1024 l 257
 128 1024 l 257
768 1024 m 257
 768 1152 l 257
 896 1152 l 257
 896 1024 l 257
 768 1024 l 257
EndSplineSet
Fore
SplineSet
0 347 m 1
 805 1152 l 1
 896 1061 l 1
 91 256 l 1
 0 347 l 1
0 933 m 1
 0 987 l 1
 165 1152 l 1
 219 1152 l 1
 384 987 l 1
 384 933 l 1
 219 768 l 1
 165 768 l 1
 0 933 l 1
128 933 m 1
 165 896 l 1
 219 896 l 1
 256 933 l 1
 256 987 l 1
 219 1024 l 1
 165 1024 l 1
 128 987 l 1
 128 933 l 1
512 421 m 1
 512 475 l 1
 677 640 l 1
 731 640 l 1
 896 475 l 1
 896 421 l 1
 731 256 l 1
 677 256 l 1
 512 421 l 1
640 421 m 1
 677 384 l 1
 731 384 l 1
 768 421 l 1
 768 475 l 1
 731 512 l 1
 677 512 l 1
 640 475 l 1
 640 421 l 1
EndSplineSet
EndChar

StartChar: char38.uni0026
Encoding: 6 38 6
GlifName: char38.uni0026
Width: 1024
VWidth: 0
Flags: HW
LayerCount: 2
Back
SplineSet
128 0 m 257
 128 128 l 257
 256 128 l 257
 256 0 l 257
 128 0 l 257
256 0 m 257
 256 128 l 257
 384 128 l 257
 384 0 l 257
 256 0 l 257
384 0 m 257
 384 128 l 257
 512 128 l 257
 512 0 l 257
 384 0 l 257
0 128 m 257
 0 256 l 257
 128 256 l 257
 128 128 l 257
 0 128 l 257
512 128 m 257
 512 256 l 257
 640 256 l 257
 640 128 l 257
 512 128 l 257
768 128 m 257
 768 256 l 257
 896 256 l 257
 896 128 l 257
 768 128 l 257
0 256 m 257
 0 384 l 257
 128 384 l 257
 128 256 l 257
 0 256 l 257
640 256 m 257
 640 384 l 257
 768 384 l 257
 768 256 l 257
 640 256 l 257
0 384 m 257
 0 512 l 257
 128 512 l 257
 128 384 l 257
 0 384 l 257
512 384 m 257
 512 512 l 257
 640 512 l 257
 640 384 l 257
 512 384 l 257
768 384 m 257
 768 512 l 257
 896 512 l 257
 896 384 l 257
 768 384 l 257
128 512 m 257
 128 640 l 257
 256 640 l 257
 256 512 l 257
 128 512 l 257
384 512 m 257
 384 640 l 257
 512 640 l 257
 512 512 l 257
 384 512 l 257
256 640 m 257
 256 768 l 257
 384 768 l 257
 384 640 l 257
 256 640 l 257
128 768 m 257
 128 896 l 257
 256 896 l 257
 256 768 l 257
 128 768 l 257
384 768 m 257
 384 896 l 257
 512 896 l 257
 512 768 l 257
 384 768 l 257
0 896 m 257
 0 1024 l 257
 128 1024 l 257
 128 896 l 257
 0 896 l 257
512 896 m 257
 512 1024 l 257
 640 1024 l 257
 640 896 l 257
 512 896 l 257
0 1024 m 257
 0 1152 l 257
 128 1152 l 257
 128 1024 l 257
 0 1024 l 257
512 1024 m 257
 512 1152 l 257
 640 1152 l 257
 640 1024 l 257
 512 1024 l 257
128 1152 m 257
 128 1280 l 257
 256 1280 l 257
 256 1152 l 257
 128 1152 l 257
384 1152 m 257
 384 1280 l 257
 512 1280 l 257
 512 1152 l 257
 384 1152 l 257
256 1280 m 257
 256 1408 l 257
 384 1408 l 257
 384 1280 l 257
 256 1280 l 257
EndSplineSet
Fore
SplineSet
0 165 m 1
 0 475 l 1
 229 704 l 1
 0 933 l 1
 0 1115 l 1
 293 1408 l 1
 347 1408 l 1
 640 1115 l 1
 640 933 l 1
 411 704 l 1
 704 411 l 1
 805 512 l 1
 896 421 l 1
 795 320 l 1
 896 219 l 1
 805 128 l 1
 704 229 l 1
 475 0 l 1
 165 0 l 1
 0 165 l 1
128 219 m 1
 219 128 l 1
 421 128 l 1
 613 320 l 1
 320 613 l 1
 128 421 l 1
 128 219 l 1
128 987 m 1
 320 795 l 1
 512 987 l 1
 512 1061 l 1
 320 1253 l 1
 128 1061 l 1
 128 987 l 1
EndSplineSet
EndChar

StartChar: char39.uni0027
Encoding: 7 39 7
GlifName: char39.uni0027
Width: 1024
VWidth: 0
Flags: HW
LayerCount: 2
Back
SplineSet
384 1024 m 257
 384 1152 l 257
 512 1152 l 257
 512 1024 l 257
 384 1024 l 257
384 1152 m 257
 384 1280 l 257
 512 1280 l 257
 512 1152 l 257
 384 1152 l 257
384 1280 m 257
 384 1408 l 257
 512 1408 l 257
 512 1280 l 257
 384 1280 l 257
EndSplineSet
Fore
SplineSet
384 1024 m 1
 384 1408 l 1
 512 1408 l 1
 512 1024 l 1
 384 1024 l 1
EndSplineSet
EndChar

StartChar: char40.uni0028
Encoding: 8 40 8
GlifName: char40.uni0028
Width: 1024
VWidth: 0
Flags: HW
LayerCount: 2
Back
SplineSet
512 -256 m 257
 512 -128 l 257
 640 -128 l 257
 640 -256 l 257
 512 -256 l 257
384 -128 m 257
 384 0 l 257
 512 0 l 257
 512 -128 l 257
 384 -128 l 257
256 0 m 257
 256 128 l 257
 384 128 l 257
 384 0 l 257
 256 0 l 257
256 128 m 257
 256 256 l 257
 384 256 l 257
 384 128 l 257
 256 128 l 257
256 256 m 257
 256 384 l 257
 384 384 l 257
 384 256 l 257
 256 256 l 257
256 384 m 257
 256 512 l 257
 384 512 l 257
 384 384 l 257
 256 384 l 257
256 512 m 257
 256 640 l 257
 384 640 l 257
 384 512 l 257
 256 512 l 257
256 640 m 257
 256 768 l 257
 384 768 l 257
 384 640 l 257
 256 640 l 257
256 768 m 257
 256 896 l 257
 384 896 l 257
 384 768 l 257
 256 768 l 257
256 896 m 257
 256 1024 l 257
 384 1024 l 257
 384 896 l 257
 256 896 l 257
256 1024 m 257
 256 1152 l 257
 384 1152 l 257
 384 1024 l 257
 256 1024 l 257
384 1152 m 257
 384 1280 l 257
 512 1280 l 257
 512 1152 l 257
 384 1152 l 257
512 1280 m 257
 512 1408 l 257
 640 1408 l 257
 640 1280 l 257
 512 1280 l 257
EndSplineSet
Fore
SplineSet
256 37 m 1
 256 1115 l 1
 549 1408 l 1
 640 1317 l 1
 384 1061 l 1
 384 91 l 1
 640 -165 l 1
 549 -256 l 1
 256 37 l 1
EndSplineSet
EndChar

StartChar: char41.uni0029
Encoding: 9 41 9
GlifName: char41.uni0029
Width: 1024
VWidth: 0
Flags: HW
LayerCount: 2
Back
SplineSet
256 -256 m 257
 256 -128 l 257
 384 -128 l 257
 384 -256 l 257
 256 -256 l 257
384 -128 m 257
 384 0 l 257
 512 0 l 257
 512 -128 l 257
 384 -128 l 257
512 0 m 257
 512 128 l 257
 640 128 l 257
 640 0 l 257
 512 0 l 257
512 128 m 257
 512 256 l 257
 640 256 l 257
 640 128 l 257
 512 128 l 257
512 256 m 257
 512 384 l 257
 640 384 l 257
 640 256 l 257
 512 256 l 257
512 384 m 257
 512 512 l 257
 640 512 l 257
 640 384 l 257
 512 384 l 257
512 512 m 257
 512 640 l 257
 640 640 l 257
 640 512 l 257
 512 512 l 257
512 640 m 257
 512 768 l 257
 640 768 l 257
 640 640 l 257
 512 640 l 257
512 768 m 257
 512 896 l 257
 640 896 l 257
 640 768 l 257
 512 768 l 257
512 896 m 257
 512 1024 l 257
 640 1024 l 257
 640 896 l 257
 512 896 l 257
512 1024 m 257
 512 1152 l 257
 640 1152 l 257
 640 1024 l 257
 512 1024 l 257
384 1152 m 257
 384 1280 l 257
 512 1280 l 257
 512 1152 l 257
 384 1152 l 257
256 1280 m 257
 256 1408 l 257
 384 1408 l 257
 384 1280 l 257
 256 1280 l 257
EndSplineSet
Fore
SplineSet
256 -165 m 1
 512 91 l 1
 512 1061 l 1
 256 1317 l 1
 347 1408 l 1
 640 1115 l 1
 640 37 l 1
 347 -256 l 1
 256 -165 l 1
EndSplineSet
EndChar

StartChar: char42.uni002A
Encoding: 10 42 10
GlifName: char42.uni002A
Width: 1024
VWidth: 0
Flags: HW
LayerCount: 2
Back
SplineSet
384 256 m 257
 384 384 l 257
 512 384 l 257
 512 256 l 257
 384 256 l 257
0 384 m 257
 0 512 l 257
 128 512 l 257
 128 384 l 257
 0 384 l 257
384 384 m 257
 384 512 l 257
 512 512 l 257
 512 384 l 257
 384 384 l 257
768 384 m 257
 768 512 l 257
 896 512 l 257
 896 384 l 257
 768 384 l 257
128 512 m 257
 128 640 l 257
 256 640 l 257
 256 512 l 257
 128 512 l 257
384 512 m 257
 384 640 l 257
 512 640 l 257
 512 512 l 257
 384 512 l 257
640 512 m 257
 640 640 l 257
 768 640 l 257
 768 512 l 257
 640 512 l 257
256 640 m 257
 256 768 l 257
 384 768 l 257
 384 640 l 257
 256 640 l 257
384 640 m 257
 384 768 l 257
 512 768 l 257
 512 640 l 257
 384 640 l 257
512 640 m 257
 512 768 l 257
 640 768 l 257
 640 640 l 257
 512 640 l 257
128 768 m 257
 128 896 l 257
 256 896 l 257
 256 768 l 257
 128 768 l 257
384 768 m 257
 384 896 l 257
 512 896 l 257
 512 768 l 257
 384 768 l 257
640 768 m 257
 640 896 l 257
 768 896 l 257
 768 768 l 257
 640 768 l 257
0 896 m 257
 0 1024 l 257
 128 1024 l 257
 128 896 l 257
 0 896 l 257
384 896 m 257
 384 1024 l 257
 512 1024 l 257
 512 896 l 257
 384 896 l 257
768 896 m 257
 768 1024 l 257
 896 1024 l 257
 896 896 l 257
 768 896 l 257
384 1024 m 257
 384 1152 l 257
 512 1152 l 257
 512 1024 l 257
 384 1024 l 257
EndSplineSet
Fore
SplineSet
0 475 m 1
 229 704 l 1
 0 933 l 1
 91 1024 l 1
 347 768 l 1
 384 768 l 1
 384 1152 l 1
 512 1152 l 1
 512 768 l 1
 549 768 l 1
 805 1024 l 1
 896 933 l 1
 667 704 l 1
 896 475 l 1
 805 384 l 1
 549 640 l 1
 512 640 l 1
 512 256 l 1
 384 256 l 1
 384 640 l 1
 347 640 l 1
 91 384 l 1
 0 475 l 1
EndSplineSet
EndChar

StartChar: char43.uni002B
Encoding: 11 43 11
GlifName: char43.uni002B
Width: 1024
VWidth: 0
Flags: HW
LayerCount: 2
Back
SplineSet
384 256 m 257
 384 384 l 257
 512 384 l 257
 512 256 l 257
 384 256 l 257
384 384 m 257
 384 512 l 257
 512 512 l 257
 512 384 l 257
 384 384 l 257
384 512 m 257
 384 640 l 257
 512 640 l 257
 512 512 l 257
 384 512 l 257
0 640 m 257
 0 768 l 257
 128 768 l 257
 128 640 l 257
 0 640 l 257
128 640 m 257
 128 768 l 257
 256 768 l 257
 256 640 l 257
 128 640 l 257
256 640 m 257
 256 768 l 257
 384 768 l 257
 384 640 l 257
 256 640 l 257
384 640 m 257
 384 768 l 257
 512 768 l 257
 512 640 l 257
 384 640 l 257
512 640 m 257
 512 768 l 257
 640 768 l 257
 640 640 l 257
 512 640 l 257
640 640 m 257
 640 768 l 257
 768 768 l 257
 768 640 l 257
 640 640 l 257
768 640 m 257
 768 768 l 257
 896 768 l 257
 896 640 l 257
 768 640 l 257
384 768 m 257
 384 896 l 257
 512 896 l 257
 512 768 l 257
 384 768 l 257
384 896 m 257
 384 1024 l 257
 512 1024 l 257
 512 896 l 257
 384 896 l 257
384 1024 m 257
 384 1152 l 257
 512 1152 l 257
 512 1024 l 257
 384 1024 l 257
EndSplineSet
Fore
SplineSet
0 640 m 1
 0 768 l 1
 384 768 l 1
 384 1152 l 1
 512 1152 l 1
 512 768 l 1
 896 768 l 1
 896 640 l 1
 512 640 l 1
 512 256 l 1
 384 256 l 1
 384 640 l 1
 0 640 l 1
EndSplineSet
EndChar

StartChar: char44.uni002C
Encoding: 12 44 12
GlifName: char44.uni002C
Width: 1024
VWidth: 0
Flags: HW
LayerCount: 2
Back
SplineSet
256 -256 m 257
 256 -128 l 257
 384 -128 l 257
 384 -256 l 257
 256 -256 l 257
384 -128 m 257
 384 0 l 257
 512 0 l 257
 512 -128 l 257
 384 -128 l 257
512 0 m 257
 512 128 l 257
 640 128 l 257
 640 0 l 257
 512 0 l 257
EndSplineSet
Fore
SplineSet
256 -165 m 1
 549 128 l 1
 640 37 l 1
 347 -256 l 1
 256 -165 l 1
EndSplineSet
EndChar

StartChar: char45.uni002D
Encoding: 13 45 13
GlifName: char45.uni002D
Width: 1024
VWidth: 0
Flags: HW
LayerCount: 2
Back
SplineSet
0 640 m 257
 0 768 l 257
 128 768 l 257
 128 640 l 257
 0 640 l 257
128 640 m 257
 128 768 l 257
 256 768 l 257
 256 640 l 257
 128 640 l 257
256 640 m 257
 256 768 l 257
 384 768 l 257
 384 640 l 257
 256 640 l 257
384 640 m 257
 384 768 l 257
 512 768 l 257
 512 640 l 257
 384 640 l 257
512 640 m 257
 512 768 l 257
 640 768 l 257
 640 640 l 257
 512 640 l 257
640 640 m 257
 640 768 l 257
 768 768 l 257
 768 640 l 257
 640 640 l 257
768 640 m 257
 768 768 l 257
 896 768 l 257
 896 640 l 257
 768 640 l 257
EndSplineSet
Fore
SplineSet
0 640 m 1
 0 768 l 1
 896 768 l 1
 896 640 l 1
 0 640 l 1
EndSplineSet
EndChar

StartChar: char46.uni002E
Encoding: 14 46 14
GlifName: char46.uni002E
Width: 1024
VWidth: 0
Flags: HW
LayerCount: 2
Back
SplineSet
384 0 m 257
 384 128 l 257
 512 128 l 257
 512 0 l 257
 384 0 l 257
EndSplineSet
Fore
SplineSet
384 0 m 1
 384 128 l 1
 512 128 l 1
 512 0 l 1
 384 0 l 1
EndSplineSet
EndChar

StartChar: char47.uni002F
Encoding: 15 47 15
GlifName: char47.uni002F
Width: 1024
VWidth: 0
Flags: HW
LayerCount: 2
Back
SplineSet
0 256 m 257
 0 384 l 257
 128 384 l 257
 128 256 l 257
 0 256 l 257
128 384 m 257
 128 512 l 257
 256 512 l 257
 256 384 l 257
 128 384 l 257
256 512 m 257
 256 640 l 257
 384 640 l 257
 384 512 l 257
 256 512 l 257
384 640 m 257
 384 768 l 257
 512 768 l 257
 512 640 l 257
 384 640 l 257
512 768 m 257
 512 896 l 257
 640 896 l 257
 640 768 l 257
 512 768 l 257
640 896 m 257
 640 1024 l 257
 768 1024 l 257
 768 896 l 257
 640 896 l 257
768 1024 m 257
 768 1152 l 257
 896 1152 l 257
 896 1024 l 257
 768 1024 l 257
EndSplineSet
Fore
SplineSet
0 347 m 1
 805 1152 l 1
 896 1061 l 1
 91 256 l 1
 0 347 l 1
EndSplineSet
EndChar

StartChar: char48.uni0030
Encoding: 16 48 16
GlifName: char48.uni0030
Width: 1024
VWidth: 0
Flags: HW
LayerCount: 2
Back
SplineSet
256 0 m 257
 256 128 l 257
 384 128 l 257
 384 0 l 257
 256 0 l 257
384 0 m 257
 384 128 l 257
 512 128 l 257
 512 0 l 257
 384 0 l 257
512 0 m 257
 512 128 l 257
 640 128 l 257
 640 0 l 257
 512 0 l 257
128 128 m 257
 128 256 l 257
 256 256 l 257
 256 128 l 257
 128 128 l 257
640 128 m 257
 640 256 l 257
 768 256 l 257
 768 128 l 257
 640 128 l 257
0 256 m 257
 0 384 l 257
 128 384 l 257
 128 256 l 257
 0 256 l 257
768 256 m 257
 768 384 l 257
 896 384 l 257
 896 256 l 257
 768 256 l 257
0 384 m 257
 0 512 l 257
 128 512 l 257
 128 384 l 257
 0 384 l 257
128 384 m 257
 128 512 l 257
 256 512 l 257
 256 384 l 257
 128 384 l 257
768 384 m 257
 768 512 l 257
 896 512 l 257
 896 384 l 257
 768 384 l 257
0 512 m 257
 0 640 l 257
 128 640 l 257
 128 512 l 257
 0 512 l 257
256 512 m 257
 256 640 l 257
 384 640 l 257
 384 512 l 257
 256 512 l 257
768 512 m 257
 768 640 l 257
 896 640 l 257
 896 512 l 257
 768 512 l 257
0 640 m 257
 0 768 l 257
 128 768 l 257
 128 640 l 257
 0 640 l 257
384 640 m 257
 384 768 l 257
 512 768 l 257
 512 640 l 257
 384 640 l 257
768 640 m 257
 768 768 l 257
 896 768 l 257
 896 640 l 257
 768 640 l 257
0 768 m 257
 0 896 l 257
 128 896 l 257
 128 768 l 257
 0 768 l 257
512 768 m 257
 512 896 l 257
 640 896 l 257
 640 768 l 257
 512 768 l 257
768 768 m 257
 768 896 l 257
 896 896 l 257
 896 768 l 257
 768 768 l 257
0 896 m 257
 0 1024 l 257
 128 1024 l 257
 128 896 l 257
 0 896 l 257
640 896 m 257
 640 1024 l 257
 768 1024 l 257
 768 896 l 257
 640 896 l 257
768 896 m 257
 768 1024 l 257
 896 1024 l 257
 896 896 l 257
 768 896 l 257
0 1024 m 257
 0 1152 l 257
 128 1152 l 257
 128 1024 l 257
 0 1024 l 257
768 1024 m 257
 768 1152 l 257
 896 1152 l 257
 896 1024 l 257
 768 1024 l 257
128 1152 m 257
 128 1280 l 257
 256 1280 l 257
 256 1152 l 257
 128 1152 l 257
640 1152 m 257
 640 1280 l 257
 768 1280 l 257
 768 1152 l 257
 640 1152 l 257
256 1280 m 257
 256 1408 l 257
 384 1408 l 257
 384 1280 l 257
 256 1280 l 257
384 1280 m 257
 384 1408 l 257
 512 1408 l 257
 512 1280 l 257
 384 1280 l 257
512 1280 m 257
 512 1408 l 257
 640 1408 l 257
 640 1280 l 257
 512 1280 l 257
EndSplineSet
Fore
SplineSet
0 293 m 1
 0 1115 l 1
 293 1408 l 1
 603 1408 l 1
 896 1115 l 1
 896 293 l 1
 603 0 l 1
 293 0 l 1
 0 293 l 1
128 475 m 1
 741 1088 l 1
 549 1280 l 1
 347 1280 l 1
 128 1061 l 1
 128 475 l 1
155 320 m 1
 347 128 l 1
 549 128 l 1
 768 347 l 1
 768 933 l 1
 155 320 l 1
EndSplineSet
EndChar

StartChar: char49.uni0031
Encoding: 17 49 17
GlifName: char49.uni0031
Width: 1024
VWidth: 0
Flags: HW
LayerCount: 2
Back
SplineSet
512 0 m 257
 512 128 l 257
 640 128 l 257
 640 0 l 257
 512 0 l 257
512 128 m 257
 512 256 l 257
 640 256 l 257
 640 128 l 257
 512 128 l 257
512 256 m 257
 512 384 l 257
 640 384 l 257
 640 256 l 257
 512 256 l 257
512 384 m 257
 512 512 l 257
 640 512 l 257
 640 384 l 257
 512 384 l 257
512 512 m 257
 512 640 l 257
 640 640 l 257
 640 512 l 257
 512 512 l 257
512 640 m 257
 512 768 l 257
 640 768 l 257
 640 640 l 257
 512 640 l 257
512 768 m 257
 512 896 l 257
 640 896 l 257
 640 768 l 257
 512 768 l 257
512 896 m 257
 512 1024 l 257
 640 1024 l 257
 640 896 l 257
 512 896 l 257
256 1024 m 257
 256 1152 l 257
 384 1152 l 257
 384 1024 l 257
 256 1024 l 257
512 1024 m 257
 512 1152 l 257
 640 1152 l 257
 640 1024 l 257
 512 1024 l 257
384 1152 m 257
 384 1280 l 257
 512 1280 l 257
 512 1152 l 257
 384 1152 l 257
512 1152 m 257
 512 1280 l 257
 640 1280 l 257
 640 1152 l 257
 512 1152 l 257
512 1280 m 257
 512 1408 l 257
 640 1408 l 257
 640 1280 l 257
 512 1280 l 257
EndSplineSet
Fore
SplineSet
256 1115 m 1
 549 1408 l 1
 640 1408 l 1
 640 0 l 1
 512 0 l 1
 512 1189 l 1
 347 1024 l 1
 256 1115 l 1
EndSplineSet
EndChar

StartChar: char50.uni0032
Encoding: 18 50 18
GlifName: char50.uni0032
Width: 1024
VWidth: 0
Flags: HW
LayerCount: 2
Back
SplineSet
0 0 m 257
 0 128 l 257
 128 128 l 257
 128 0 l 257
 0 0 l 257
128 0 m 257
 128 128 l 257
 256 128 l 257
 256 0 l 257
 128 0 l 257
256 0 m 257
 256 128 l 257
 384 128 l 257
 384 0 l 257
 256 0 l 257
384 0 m 257
 384 128 l 257
 512 128 l 257
 512 0 l 257
 384 0 l 257
512 0 m 257
 512 128 l 257
 640 128 l 257
 640 0 l 257
 512 0 l 257
640 0 m 257
 640 128 l 257
 768 128 l 257
 768 0 l 257
 640 0 l 257
768 0 m 257
 768 128 l 257
 896 128 l 257
 896 0 l 257
 768 0 l 257
0 128 m 257
 0 256 l 257
 128 256 l 257
 128 128 l 257
 0 128 l 257
128 256 m 257
 128 384 l 257
 256 384 l 257
 256 256 l 257
 128 256 l 257
256 384 m 257
 256 512 l 257
 384 512 l 257
 384 384 l 257
 256 384 l 257
384 512 m 257
 384 640 l 257
 512 640 l 257
 512 512 l 257
 384 512 l 257
512 640 m 257
 512 768 l 257
 640 768 l 257
 640 640 l 257
 512 640 l 257
640 768 m 257
 640 896 l 257
 768 896 l 257
 768 768 l 257
 640 768 l 257
768 896 m 257
 768 1024 l 257
 896 1024 l 257
 896 896 l 257
 768 896 l 257
0 1024 m 257
 0 1152 l 257
 128 1152 l 257
 128 1024 l 257
 0 1024 l 257
768 1024 m 257
 768 1152 l 257
 896 1152 l 257
 896 1024 l 257
 768 1024 l 257
128 1152 m 257
 128 1280 l 257
 256 1280 l 257
 256 1152 l 257
 128 1152 l 257
640 1152 m 257
 640 1280 l 257
 768 1280 l 257
 768 1152 l 257
 640 1152 l 257
256 1280 m 257
 256 1408 l 257
 384 1408 l 257
 384 1280 l 257
 256 1280 l 257
384 1280 m 257
 384 1408 l 257
 512 1408 l 257
 512 1280 l 257
 384 1280 l 257
512 1280 m 257
 512 1408 l 257
 640 1408 l 257
 640 1280 l 257
 512 1280 l 257
EndSplineSet
Fore
SplineSet
0 0 m 1
 0 219 l 1
 768 987 l 1
 768 1061 l 1
 549 1280 l 1
 347 1280 l 1
 91 1024 l 1
 0 1115 l 1
 293 1408 l 1
 603 1408 l 1
 896 1115 l 1
 896 933 l 1
 128 165 l 1
 128 128 l 1
 896 128 l 1
 896 0 l 1
 0 0 l 1
EndSplineSet
EndChar

StartChar: char51.uni0033
Encoding: 19 51 19
GlifName: char51.uni0033
Width: 1024
VWidth: 0
Flags: HW
LayerCount: 2
Back
SplineSet
256 0 m 257
 256 128 l 257
 384 128 l 257
 384 0 l 257
 256 0 l 257
384 0 m 257
 384 128 l 257
 512 128 l 257
 512 0 l 257
 384 0 l 257
512 0 m 257
 512 128 l 257
 640 128 l 257
 640 0 l 257
 512 0 l 257
128 128 m 257
 128 256 l 257
 256 256 l 257
 256 128 l 257
 128 128 l 257
640 128 m 257
 640 256 l 257
 768 256 l 257
 768 128 l 257
 640 128 l 257
0 256 m 257
 0 384 l 257
 128 384 l 257
 128 256 l 257
 0 256 l 257
768 256 m 257
 768 384 l 257
 896 384 l 257
 896 256 l 257
 768 256 l 257
768 384 m 257
 768 512 l 257
 896 512 l 257
 896 384 l 257
 768 384 l 257
640 512 m 257
 640 640 l 257
 768 640 l 257
 768 512 l 257
 640 512 l 257
384 640 m 257
 384 768 l 257
 512 768 l 257
 512 640 l 257
 384 640 l 257
512 640 m 257
 512 768 l 257
 640 768 l 257
 640 640 l 257
 512 640 l 257
640 768 m 257
 640 896 l 257
 768 896 l 257
 768 768 l 257
 640 768 l 257
768 896 m 257
 768 1024 l 257
 896 1024 l 257
 896 896 l 257
 768 896 l 257
0 1024 m 257
 0 1152 l 257
 128 1152 l 257
 128 1024 l 257
 0 1024 l 257
768 1024 m 257
 768 1152 l 257
 896 1152 l 257
 896 1024 l 257
 768 1024 l 257
128 1152 m 257
 128 1280 l 257
 256 1280 l 257
 256 1152 l 257
 128 1152 l 257
640 1152 m 257
 640 1280 l 257
 768 1280 l 257
 768 1152 l 257
 640 1152 l 257
256 1280 m 257
 256 1408 l 257
 384 1408 l 257
 384 1280 l 257
 256 1280 l 257
384 1280 m 257
 384 1408 l 257
 512 1408 l 257
 512 1280 l 257
 384 1280 l 257
512 1280 m 257
 512 1408 l 257
 640 1408 l 257
 640 1280 l 257
 512 1280 l 257
EndSplineSet
Fore
SplineSet
0 293 m 1
 91 384 l 1
 347 128 l 1
 549 128 l 1
 768 347 l 1
 768 421 l 1
 549 640 l 1
 384 640 l 1
 384 768 l 1
 549 768 l 1
 768 987 l 1
 768 1061 l 1
 549 1280 l 1
 347 1280 l 1
 91 1024 l 1
 0 1115 l 1
 293 1408 l 1
 603 1408 l 1
 896 1115 l 1
 896 933 l 1
 667 704 l 1
 896 475 l 1
 896 293 l 1
 603 0 l 1
 293 0 l 1
 0 293 l 1
EndSplineSet
EndChar

StartChar: char52.uni0034
Encoding: 20 52 20
GlifName: char52.uni0034
Width: 1024
VWidth: 0
Flags: HW
LayerCount: 2
Back
SplineSet
640 0 m 257
 640 128 l 257
 768 128 l 257
 768 0 l 257
 640 0 l 257
640 128 m 257
 640 256 l 257
 768 256 l 257
 768 128 l 257
 640 128 l 257
640 256 m 257
 640 384 l 257
 768 384 l 257
 768 256 l 257
 640 256 l 257
640 384 m 257
 640 512 l 257
 768 512 l 257
 768 384 l 257
 640 384 l 257
640 512 m 257
 640 640 l 257
 768 640 l 257
 768 512 l 257
 640 512 l 257
0 640 m 257
 0 768 l 257
 128 768 l 257
 128 640 l 257
 0 640 l 257
128 640 m 257
 128 768 l 257
 256 768 l 257
 256 640 l 257
 128 640 l 257
256 640 m 257
 256 768 l 257
 384 768 l 257
 384 640 l 257
 256 640 l 257
384 640 m 257
 384 768 l 257
 512 768 l 257
 512 640 l 257
 384 640 l 257
512 640 m 257
 512 768 l 257
 640 768 l 257
 640 640 l 257
 512 640 l 257
640 640 m 257
 640 768 l 257
 768 768 l 257
 768 640 l 257
 640 640 l 257
768 640 m 257
 768 768 l 257
 896 768 l 257
 896 640 l 257
 768 640 l 257
128 768 m 257
 128 896 l 257
 256 896 l 257
 256 768 l 257
 128 768 l 257
640 768 m 257
 640 896 l 257
 768 896 l 257
 768 768 l 257
 640 768 l 257
256 896 m 257
 256 1024 l 257
 384 1024 l 257
 384 896 l 257
 256 896 l 257
640 896 m 257
 640 1024 l 257
 768 1024 l 257
 768 896 l 257
 640 896 l 257
384 1024 m 257
 384 1152 l 257
 512 1152 l 257
 512 1024 l 257
 384 1024 l 257
640 1024 m 257
 640 1152 l 257
 768 1152 l 257
 768 1024 l 257
 640 1024 l 257
512 1152 m 257
 512 1280 l 257
 640 1280 l 257
 640 1152 l 257
 512 1152 l 257
640 1152 m 257
 640 1280 l 257
 768 1280 l 257
 768 1152 l 257
 640 1152 l 257
640 1280 m 257
 640 1408 l 257
 768 1408 l 257
 768 1280 l 257
 640 1280 l 257
EndSplineSet
Fore
SplineSet
0 640 m 1
 0 731 l 1
 677 1408 l 1
 768 1408 l 1
 768 768 l 1
 896 768 l 1
 896 640 l 1
 768 640 l 1
 768 0 l 1
 640 0 l 1
 640 640 l 1
 0 640 l 1
219 768 m 1
 640 768 l 1
 640 1189 l 1
 219 768 l 1
EndSplineSet
EndChar

StartChar: char53.uni0035
Encoding: 21 53 21
GlifName: char53.uni0035
Width: 1024
VWidth: 0
Flags: HW
LayerCount: 2
Back
SplineSet
256 0 m 257
 256 128 l 257
 384 128 l 257
 384 0 l 257
 256 0 l 257
384 0 m 257
 384 128 l 257
 512 128 l 257
 512 0 l 257
 384 0 l 257
512 0 m 257
 512 128 l 257
 640 128 l 257
 640 0 l 257
 512 0 l 257
128 128 m 257
 128 256 l 257
 256 256 l 257
 256 128 l 257
 128 128 l 257
640 128 m 257
 640 256 l 257
 768 256 l 257
 768 128 l 257
 640 128 l 257
0 256 m 257
 0 384 l 257
 128 384 l 257
 128 256 l 257
 0 256 l 257
768 256 m 257
 768 384 l 257
 896 384 l 257
 896 256 l 257
 768 256 l 257
768 384 m 257
 768 512 l 257
 896 512 l 257
 896 384 l 257
 768 384 l 257
640 512 m 257
 640 640 l 257
 768 640 l 257
 768 512 l 257
 640 512 l 257
0 640 m 257
 0 768 l 257
 128 768 l 257
 128 640 l 257
 0 640 l 257
128 640 m 257
 128 768 l 257
 256 768 l 257
 256 640 l 257
 128 640 l 257
256 640 m 257
 256 768 l 257
 384 768 l 257
 384 640 l 257
 256 640 l 257
384 640 m 257
 384 768 l 257
 512 768 l 257
 512 640 l 257
 384 640 l 257
512 640 m 257
 512 768 l 257
 640 768 l 257
 640 640 l 257
 512 640 l 257
0 768 m 257
 0 896 l 257
 128 896 l 257
 128 768 l 257
 0 768 l 257
0 896 m 257
 0 1024 l 257
 128 1024 l 257
 128 896 l 257
 0 896 l 257
0 1024 m 257
 0 1152 l 257
 128 1152 l 257
 128 1024 l 257
 0 1024 l 257
0 1152 m 257
 0 1280 l 257
 128 1280 l 257
 128 1152 l 257
 0 1152 l 257
0 1280 m 257
 0 1408 l 257
 128 1408 l 257
 128 1280 l 257
 0 1280 l 257
128 1280 m 257
 128 1408 l 257
 256 1408 l 257
 256 1280 l 257
 128 1280 l 257
256 1280 m 257
 256 1408 l 257
 384 1408 l 257
 384 1280 l 257
 256 1280 l 257
384 1280 m 257
 384 1408 l 257
 512 1408 l 257
 512 1280 l 257
 384 1280 l 257
512 1280 m 257
 512 1408 l 257
 640 1408 l 257
 640 1280 l 257
 512 1280 l 257
640 1280 m 257
 640 1408 l 257
 768 1408 l 257
 768 1280 l 257
 640 1280 l 257
768 1280 m 257
 768 1408 l 257
 896 1408 l 257
 896 1280 l 257
 768 1280 l 257
EndSplineSet
Fore
SplineSet
0 293 m 1
 91 384 l 1
 347 128 l 1
 549 128 l 1
 768 347 l 1
 768 421 l 1
 549 640 l 1
 0 640 l 1
 0 1408 l 1
 896 1408 l 1
 896 1280 l 1
 128 1280 l 1
 128 768 l 1
 603 768 l 1
 896 475 l 1
 896 293 l 1
 603 0 l 1
 293 0 l 1
 0 293 l 1
EndSplineSet
EndChar

StartChar: char54.uni0036
Encoding: 22 54 22
GlifName: char54.uni0036
Width: 1024
VWidth: 0
Flags: HW
LayerCount: 2
Back
SplineSet
256 0 m 257
 256 128 l 257
 384 128 l 257
 384 0 l 257
 256 0 l 257
384 0 m 257
 384 128 l 257
 512 128 l 257
 512 0 l 257
 384 0 l 257
512 0 m 257
 512 128 l 257
 640 128 l 257
 640 0 l 257
 512 0 l 257
128 128 m 257
 128 256 l 257
 256 256 l 257
 256 128 l 257
 128 128 l 257
640 128 m 257
 640 256 l 257
 768 256 l 257
 768 128 l 257
 640 128 l 257
0 256 m 257
 0 384 l 257
 128 384 l 257
 128 256 l 257
 0 256 l 257
768 256 m 257
 768 384 l 257
 896 384 l 257
 896 256 l 257
 768 256 l 257
0 384 m 257
 0 512 l 257
 128 512 l 257
 128 384 l 257
 0 384 l 257
768 384 m 257
 768 512 l 257
 896 512 l 257
 896 384 l 257
 768 384 l 257
0 512 m 257
 0 640 l 257
 128 640 l 257
 128 512 l 257
 0 512 l 257
128 512 m 257
 128 640 l 257
 256 640 l 257
 256 512 l 257
 128 512 l 257
640 512 m 257
 640 640 l 257
 768 640 l 257
 768 512 l 257
 640 512 l 257
0 640 m 257
 0 768 l 257
 128 768 l 257
 128 640 l 257
 0 640 l 257
256 640 m 257
 256 768 l 257
 384 768 l 257
 384 640 l 257
 256 640 l 257
384 640 m 257
 384 768 l 257
 512 768 l 257
 512 640 l 257
 384 640 l 257
512 640 m 257
 512 768 l 257
 640 768 l 257
 640 640 l 257
 512 640 l 257
0 768 m 257
 0 896 l 257
 128 896 l 257
 128 768 l 257
 0 768 l 257
0 896 m 257
 0 1024 l 257
 128 1024 l 257
 128 896 l 257
 0 896 l 257
0 1024 m 257
 0 1152 l 257
 128 1152 l 257
 128 1024 l 257
 0 1024 l 257
768 1024 m 257
 768 1152 l 257
 896 1152 l 257
 896 1024 l 257
 768 1024 l 257
128 1152 m 257
 128 1280 l 257
 256 1280 l 257
 256 1152 l 257
 128 1152 l 257
640 1152 m 257
 640 1280 l 257
 768 1280 l 257
 768 1152 l 257
 640 1152 l 257
256 1280 m 257
 256 1408 l 257
 384 1408 l 257
 384 1280 l 257
 256 1280 l 257
384 1280 m 257
 384 1408 l 257
 512 1408 l 257
 512 1280 l 257
 384 1280 l 257
512 1280 m 257
 512 1408 l 257
 640 1408 l 257
 640 1280 l 257
 512 1280 l 257
EndSplineSet
Fore
SplineSet
0 293 m 1
 0 1115 l 1
 293 1408 l 1
 603 1408 l 1
 896 1115 l 1
 805 1024 l 1
 549 1280 l 1
 347 1280 l 1
 128 1061 l 1
 128 603 l 1
 293 768 l 1
 603 768 l 1
 896 475 l 1
 896 293 l 1
 603 0 l 1
 293 0 l 1
 0 293 l 1
128 347 m 1
 347 128 l 1
 549 128 l 1
 768 347 l 1
 768 421 l 1
 549 640 l 1
 347 640 l 1
 128 421 l 1
 128 347 l 1
EndSplineSet
EndChar

StartChar: char55.uni0037
Encoding: 23 55 23
GlifName: char55.uni0037
Width: 1024
VWidth: 0
Flags: HW
LayerCount: 2
Back
SplineSet
384 0 m 257
 384 128 l 257
 512 128 l 257
 512 0 l 257
 384 0 l 257
384 128 m 257
 384 256 l 257
 512 256 l 257
 512 128 l 257
 384 128 l 257
384 256 m 257
 384 384 l 257
 512 384 l 257
 512 256 l 257
 384 256 l 257
384 384 m 257
 384 512 l 257
 512 512 l 257
 512 384 l 257
 384 384 l 257
384 512 m 257
 384 640 l 257
 512 640 l 257
 512 512 l 257
 384 512 l 257
384 640 m 257
 384 768 l 257
 512 768 l 257
 512 640 l 257
 384 640 l 257
512 768 m 257
 512 896 l 257
 640 896 l 257
 640 768 l 257
 512 768 l 257
640 896 m 257
 640 1024 l 257
 768 1024 l 257
 768 896 l 257
 640 896 l 257
768 1024 m 257
 768 1152 l 257
 896 1152 l 257
 896 1024 l 257
 768 1024 l 257
768 1152 m 257
 768 1280 l 257
 896 1280 l 257
 896 1152 l 257
 768 1152 l 257
0 1280 m 257
 0 1408 l 257
 128 1408 l 257
 128 1280 l 257
 0 1280 l 257
128 1280 m 257
 128 1408 l 257
 256 1408 l 257
 256 1280 l 257
 128 1280 l 257
256 1280 m 257
 256 1408 l 257
 384 1408 l 257
 384 1280 l 257
 256 1280 l 257
384 1280 m 257
 384 1408 l 257
 512 1408 l 257
 512 1280 l 257
 384 1280 l 257
512 1280 m 257
 512 1408 l 257
 640 1408 l 257
 640 1280 l 257
 512 1280 l 257
640 1280 m 257
 640 1408 l 257
 768 1408 l 257
 768 1280 l 257
 640 1280 l 257
768 1280 m 257
 768 1408 l 257
 896 1408 l 257
 896 1280 l 257
 768 1280 l 257
EndSplineSet
Fore
SplineSet
0 1280 m 1
 0 1408 l 1
 896 1408 l 1
 896 1061 l 1
 512 677 l 1
 512 0 l 1
 384 0 l 1
 384 731 l 1
 768 1115 l 1
 768 1280 l 1
 0 1280 l 1
EndSplineSet
EndChar

StartChar: char56.uni0038
Encoding: 24 56 24
GlifName: char56.uni0038
Width: 1024
VWidth: 0
Flags: HW
LayerCount: 2
Back
SplineSet
256 0 m 257
 256 128 l 257
 384 128 l 257
 384 0 l 257
 256 0 l 257
384 0 m 257
 384 128 l 257
 512 128 l 257
 512 0 l 257
 384 0 l 257
512 0 m 257
 512 128 l 257
 640 128 l 257
 640 0 l 257
 512 0 l 257
128 128 m 257
 128 256 l 257
 256 256 l 257
 256 128 l 257
 128 128 l 257
640 128 m 257
 640 256 l 257
 768 256 l 257
 768 128 l 257
 640 128 l 257
0 256 m 257
 0 384 l 257
 128 384 l 257
 128 256 l 257
 0 256 l 257
768 256 m 257
 768 384 l 257
 896 384 l 257
 896 256 l 257
 768 256 l 257
0 384 m 257
 0 512 l 257
 128 512 l 257
 128 384 l 257
 0 384 l 257
768 384 m 257
 768 512 l 257
 896 512 l 257
 896 384 l 257
 768 384 l 257
128 512 m 257
 128 640 l 257
 256 640 l 257
 256 512 l 257
 128 512 l 257
640 512 m 257
 640 640 l 257
 768 640 l 257
 768 512 l 257
 640 512 l 257
256 640 m 257
 256 768 l 257
 384 768 l 257
 384 640 l 257
 256 640 l 257
384 640 m 257
 384 768 l 257
 512 768 l 257
 512 640 l 257
 384 640 l 257
512 640 m 257
 512 768 l 257
 640 768 l 257
 640 640 l 257
 512 640 l 257
128 768 m 257
 128 896 l 257
 256 896 l 257
 256 768 l 257
 128 768 l 257
640 768 m 257
 640 896 l 257
 768 896 l 257
 768 768 l 257
 640 768 l 257
0 896 m 257
 0 1024 l 257
 128 1024 l 257
 128 896 l 257
 0 896 l 257
768 896 m 257
 768 1024 l 257
 896 1024 l 257
 896 896 l 257
 768 896 l 257
0 1024 m 257
 0 1152 l 257
 128 1152 l 257
 128 1024 l 257
 0 1024 l 257
768 1024 m 257
 768 1152 l 257
 896 1152 l 257
 896 1024 l 257
 768 1024 l 257
128 1152 m 257
 128 1280 l 257
 256 1280 l 257
 256 1152 l 257
 128 1152 l 257
640 1152 m 257
 640 1280 l 257
 768 1280 l 257
 768 1152 l 257
 640 1152 l 257
256 1280 m 257
 256 1408 l 257
 384 1408 l 257
 384 1280 l 257
 256 1280 l 257
384 1280 m 257
 384 1408 l 257
 512 1408 l 257
 512 1280 l 257
 384 1280 l 257
512 1280 m 257
 512 1408 l 257
 640 1408 l 257
 640 1280 l 257
 512 1280 l 257
EndSplineSet
Fore
SplineSet
0 293 m 1
 0 475 l 1
 229 704 l 1
 0 933 l 1
 0 1115 l 1
 293 1408 l 1
 603 1408 l 1
 896 1115 l 1
 896 933 l 1
 667 704 l 1
 896 475 l 1
 896 293 l 1
 603 0 l 1
 293 0 l 1
 0 293 l 1
128 347 m 1
 347 128 l 1
 549 128 l 1
 768 347 l 1
 768 421 l 1
 549 640 l 1
 347 640 l 1
 128 421 l 1
 128 347 l 1
128 987 m 1
 347 768 l 1
 549 768 l 1
 768 987 l 1
 768 1061 l 1
 549 1280 l 1
 347 1280 l 1
 128 1061 l 1
 128 987 l 1
EndSplineSet
EndChar

StartChar: char57.uni0039
Encoding: 25 57 25
GlifName: char57.uni0039
Width: 1024
VWidth: 0
Flags: HW
LayerCount: 2
Back
SplineSet
256 0 m 257
 256 128 l 257
 384 128 l 257
 384 0 l 257
 256 0 l 257
384 0 m 257
 384 128 l 257
 512 128 l 257
 512 0 l 257
 384 0 l 257
512 0 m 257
 512 128 l 257
 640 128 l 257
 640 0 l 257
 512 0 l 257
128 128 m 257
 128 256 l 257
 256 256 l 257
 256 128 l 257
 128 128 l 257
640 128 m 257
 640 256 l 257
 768 256 l 257
 768 128 l 257
 640 128 l 257
0 256 m 257
 0 384 l 257
 128 384 l 257
 128 256 l 257
 0 256 l 257
768 256 m 257
 768 384 l 257
 896 384 l 257
 896 256 l 257
 768 256 l 257
768 384 m 257
 768 512 l 257
 896 512 l 257
 896 384 l 257
 768 384 l 257
256 512 m 257
 256 640 l 257
 384 640 l 257
 384 512 l 257
 256 512 l 257
384 512 m 257
 384 640 l 257
 512 640 l 257
 512 512 l 257
 384 512 l 257
512 512 m 257
 512 640 l 257
 640 640 l 257
 640 512 l 257
 512 512 l 257
768 512 m 257
 768 640 l 257
 896 640 l 257
 896 512 l 257
 768 512 l 257
128 640 m 257
 128 768 l 257
 256 768 l 257
 256 640 l 257
 128 640 l 257
640 640 m 257
 640 768 l 257
 768 768 l 257
 768 640 l 257
 640 640 l 257
768 640 m 257
 768 768 l 257
 896 768 l 257
 896 640 l 257
 768 640 l 257
0 768 m 257
 0 896 l 257
 128 896 l 257
 128 768 l 257
 0 768 l 257
768 768 m 257
 768 896 l 257
 896 896 l 257
 896 768 l 257
 768 768 l 257
0 896 m 257
 0 1024 l 257
 128 1024 l 257
 128 896 l 257
 0 896 l 257
768 896 m 257
 768 1024 l 257
 896 1024 l 257
 896 896 l 257
 768 896 l 257
0 1024 m 257
 0 1152 l 257
 128 1152 l 257
 128 1024 l 257
 0 1024 l 257
768 1024 m 257
 768 1152 l 257
 896 1152 l 257
 896 1024 l 257
 768 1024 l 257
128 1152 m 257
 128 1280 l 257
 256 1280 l 257
 256 1152 l 257
 128 1152 l 257
640 1152 m 257
 640 1280 l 257
 768 1280 l 257
 768 1152 l 257
 640 1152 l 257
256 1280 m 257
 256 1408 l 257
 384 1408 l 257
 384 1280 l 257
 256 1280 l 257
384 1280 m 257
 384 1408 l 257
 512 1408 l 257
 512 1280 l 257
 384 1280 l 257
512 1280 m 257
 512 1408 l 257
 640 1408 l 257
 640 1280 l 257
 512 1280 l 257
EndSplineSet
Fore
SplineSet
0 293 m 1
 91 384 l 1
 347 128 l 1
 549 128 l 1
 768 347 l 1
 768 677 l 1
 603 512 l 1
 293 512 l 1
 0 805 l 1
 0 1115 l 1
 293 1408 l 1
 603 1408 l 1
 896 1115 l 1
 896 293 l 1
 603 0 l 1
 293 0 l 1
 0 293 l 1
128 859 m 1
 347 640 l 1
 549 640 l 1
 768 859 l 1
 768 1061 l 1
 549 1280 l 1
 347 1280 l 1
 128 1061 l 1
 128 859 l 1
EndSplineSet
EndChar

StartChar: char58.uni003A
Encoding: 26 58 26
GlifName: char58.uni003A
Width: 1024
VWidth: 0
Flags: HW
LayerCount: 2
Back
SplineSet
384 256 m 257
 384 384 l 257
 512 384 l 257
 512 256 l 257
 384 256 l 257
384 1024 m 257
 384 1152 l 257
 512 1152 l 257
 512 1024 l 257
 384 1024 l 257
EndSplineSet
Fore
SplineSet
384 256 m 1
 384 384 l 1
 512 384 l 1
 512 256 l 1
 384 256 l 1
384 1024 m 1
 384 1152 l 1
 512 1152 l 1
 512 1024 l 1
 384 1024 l 1
EndSplineSet
EndChar

StartChar: char59.uni003B
Encoding: 27 59 27
GlifName: char59.uni003B
Width: 1024
VWidth: 0
Flags: HW
LayerCount: 2
Back
SplineSet
256 0 m 257
 256 128 l 257
 384 128 l 257
 384 0 l 257
 256 0 l 257
384 128 m 257
 384 256 l 257
 512 256 l 257
 512 128 l 257
 384 128 l 257
512 256 m 257
 512 384 l 257
 640 384 l 257
 640 256 l 257
 512 256 l 257
512 1024 m 257
 512 1152 l 257
 640 1152 l 257
 640 1024 l 257
 512 1024 l 257
EndSplineSet
Fore
SplineSet
256 91 m 1
 549 384 l 1
 640 293 l 1
 347 0 l 1
 256 91 l 1
512 1024 m 1
 512 1152 l 1
 640 1152 l 1
 640 1024 l 1
 512 1024 l 1
EndSplineSet
EndChar

StartChar: char60.uni003C
Encoding: 28 60 28
GlifName: char60.uni003C
Width: 1024
VWidth: 0
Flags: HW
LayerCount: 2
Back
SplineSet
640 128 m 257
 640 256 l 257
 768 256 l 257
 768 128 l 257
 640 128 l 257
512 256 m 257
 512 384 l 257
 640 384 l 257
 640 256 l 257
 512 256 l 257
384 384 m 257
 384 512 l 257
 512 512 l 257
 512 384 l 257
 384 384 l 257
256 512 m 257
 256 640 l 257
 384 640 l 257
 384 512 l 257
 256 512 l 257
128 640 m 257
 128 768 l 257
 256 768 l 257
 256 640 l 257
 128 640 l 257
256 768 m 257
 256 896 l 257
 384 896 l 257
 384 768 l 257
 256 768 l 257
384 896 m 257
 384 1024 l 257
 512 1024 l 257
 512 896 l 257
 384 896 l 257
512 1024 m 257
 512 1152 l 257
 640 1152 l 257
 640 1024 l 257
 512 1024 l 257
640 1152 m 257
 640 1280 l 257
 768 1280 l 257
 768 1152 l 257
 640 1152 l 257
EndSplineSet
Fore
SplineSet
101 704 m 1
 677 1280 l 1
 768 1189 l 1
 283 704 l 1
 768 219 l 1
 677 128 l 1
 101 704 l 1
EndSplineSet
EndChar

StartChar: char61.uni003D
Encoding: 29 61 29
GlifName: char61.uni003D
Width: 1024
VWidth: 0
Flags: HW
LayerCount: 2
Back
SplineSet
0 384 m 257
 0 512 l 257
 128 512 l 257
 128 384 l 257
 0 384 l 257
128 384 m 257
 128 512 l 257
 256 512 l 257
 256 384 l 257
 128 384 l 257
256 384 m 257
 256 512 l 257
 384 512 l 257
 384 384 l 257
 256 384 l 257
384 384 m 257
 384 512 l 257
 512 512 l 257
 512 384 l 257
 384 384 l 257
512 384 m 257
 512 512 l 257
 640 512 l 257
 640 384 l 257
 512 384 l 257
640 384 m 257
 640 512 l 257
 768 512 l 257
 768 384 l 257
 640 384 l 257
768 384 m 257
 768 512 l 257
 896 512 l 257
 896 384 l 257
 768 384 l 257
0 896 m 257
 0 1024 l 257
 128 1024 l 257
 128 896 l 257
 0 896 l 257
128 896 m 257
 128 1024 l 257
 256 1024 l 257
 256 896 l 257
 128 896 l 257
256 896 m 257
 256 1024 l 257
 384 1024 l 257
 384 896 l 257
 256 896 l 257
384 896 m 257
 384 1024 l 257
 512 1024 l 257
 512 896 l 257
 384 896 l 257
512 896 m 257
 512 1024 l 257
 640 1024 l 257
 640 896 l 257
 512 896 l 257
640 896 m 257
 640 1024 l 257
 768 1024 l 257
 768 896 l 257
 640 896 l 257
768 896 m 257
 768 1024 l 257
 896 1024 l 257
 896 896 l 257
 768 896 l 257
EndSplineSet
Fore
SplineSet
0 384 m 1
 0 512 l 1
 896 512 l 1
 896 384 l 1
 0 384 l 1
0 896 m 1
 0 1024 l 1
 896 1024 l 1
 896 896 l 1
 0 896 l 1
EndSplineSet
EndChar

StartChar: char62.uni003E
Encoding: 30 62 30
GlifName: char62.uni003E
Width: 1024
VWidth: 0
Flags: HW
LayerCount: 2
Back
SplineSet
128 128 m 257
 128 256 l 257
 256 256 l 257
 256 128 l 257
 128 128 l 257
256 256 m 257
 256 384 l 257
 384 384 l 257
 384 256 l 257
 256 256 l 257
384 384 m 257
 384 512 l 257
 512 512 l 257
 512 384 l 257
 384 384 l 257
512 512 m 257
 512 640 l 257
 640 640 l 257
 640 512 l 257
 512 512 l 257
640 640 m 257
 640 768 l 257
 768 768 l 257
 768 640 l 257
 640 640 l 257
512 768 m 257
 512 896 l 257
 640 896 l 257
 640 768 l 257
 512 768 l 257
384 896 m 257
 384 1024 l 257
 512 1024 l 257
 512 896 l 257
 384 896 l 257
256 1024 m 257
 256 1152 l 257
 384 1152 l 257
 384 1024 l 257
 256 1024 l 257
128 1152 m 257
 128 1280 l 257
 256 1280 l 257
 256 1152 l 257
 128 1152 l 257
EndSplineSet
Fore
SplineSet
128 219 m 1
 613 704 l 1
 128 1189 l 1
 219 1280 l 1
 795 704 l 1
 219 128 l 1
 128 219 l 1
EndSplineSet
EndChar

StartChar: char63.uni003F
Encoding: 31 63 31
GlifName: char63.uni003F
Width: 1024
VWidth: 0
Flags: HW
LayerCount: 2
Back
SplineSet
384 0 m 257
 384 128 l 257
 512 128 l 257
 512 0 l 257
 384 0 l 257
384 256 m 257
 384 384 l 257
 512 384 l 257
 512 256 l 257
 384 256 l 257
384 384 m 257
 384 512 l 257
 512 512 l 257
 512 384 l 257
 384 384 l 257
384 512 m 257
 384 640 l 257
 512 640 l 257
 512 512 l 257
 384 512 l 257
512 640 m 257
 512 768 l 257
 640 768 l 257
 640 640 l 257
 512 640 l 257
640 768 m 257
 640 896 l 257
 768 896 l 257
 768 768 l 257
 640 768 l 257
0 896 m 257
 0 1024 l 257
 128 1024 l 257
 128 896 l 257
 0 896 l 257
768 896 m 257
 768 1024 l 257
 896 1024 l 257
 896 896 l 257
 768 896 l 257
0 1024 m 257
 0 1152 l 257
 128 1152 l 257
 128 1024 l 257
 0 1024 l 257
768 1024 m 257
 768 1152 l 257
 896 1152 l 257
 896 1024 l 257
 768 1024 l 257
128 1152 m 257
 128 1280 l 257
 256 1280 l 257
 256 1152 l 257
 128 1152 l 257
640 1152 m 257
 640 1280 l 257
 768 1280 l 257
 768 1152 l 257
 640 1152 l 257
256 1280 m 257
 256 1408 l 257
 384 1408 l 257
 384 1280 l 257
 256 1280 l 257
384 1280 m 257
 384 1408 l 257
 512 1408 l 257
 512 1280 l 257
 384 1280 l 257
512 1280 m 257
 512 1408 l 257
 640 1408 l 257
 640 1280 l 257
 512 1280 l 257
EndSplineSet
Fore
SplineSet
0 896 m 1
 0 1115 l 1
 293 1408 l 1
 603 1408 l 1
 896 1115 l 1
 896 933 l 1
 512 549 l 1
 512 256 l 1
 384 256 l 1
 384 603 l 1
 768 987 l 1
 768 1061 l 1
 549 1280 l 1
 347 1280 l 1
 128 1061 l 1
 128 896 l 1
 0 896 l 1
384 0 m 1
 384 128 l 1
 512 128 l 1
 512 0 l 1
 384 0 l 1
EndSplineSet
EndChar

StartChar: char64.uni0040
Encoding: 32 64 32
GlifName: char64.uni0040
Width: 1024
VWidth: 0
Flags: HW
LayerCount: 2
Back
SplineSet
256 0 m 257
 256 128 l 257
 384 128 l 257
 384 0 l 257
 256 0 l 257
384 0 m 257
 384 128 l 257
 512 128 l 257
 512 0 l 257
 384 0 l 257
512 0 m 257
 512 128 l 257
 640 128 l 257
 640 0 l 257
 512 0 l 257
640 0 m 257
 640 128 l 257
 768 128 l 257
 768 0 l 257
 640 0 l 257
128 128 m 257
 128 256 l 257
 256 256 l 257
 256 128 l 257
 128 128 l 257
768 128 m 257
 768 256 l 257
 896 256 l 257
 896 128 l 257
 768 128 l 257
0 256 m 257
 0 384 l 257
 128 384 l 257
 128 256 l 257
 0 256 l 257
0 384 m 257
 0 512 l 257
 128 512 l 257
 128 384 l 257
 0 384 l 257
384 384 m 257
 384 512 l 257
 512 512 l 257
 512 384 l 257
 384 384 l 257
512 384 m 257
 512 512 l 257
 640 512 l 257
 640 384 l 257
 512 384 l 257
640 384 m 257
 640 512 l 257
 768 512 l 257
 768 384 l 257
 640 384 l 257
0 512 m 257
 0 640 l 257
 128 640 l 257
 128 512 l 257
 0 512 l 257
256 512 m 257
 256 640 l 257
 384 640 l 257
 384 512 l 257
 256 512 l 257
512 512 m 257
 512 640 l 257
 640 640 l 257
 640 512 l 257
 512 512 l 257
768 512 m 257
 768 640 l 257
 896 640 l 257
 896 512 l 257
 768 512 l 257
0 640 m 257
 0 768 l 257
 128 768 l 257
 128 640 l 257
 0 640 l 257
256 640 m 257
 256 768 l 257
 384 768 l 257
 384 640 l 257
 256 640 l 257
512 640 m 257
 512 768 l 257
 640 768 l 257
 640 640 l 257
 512 640 l 257
768 640 m 257
 768 768 l 257
 896 768 l 257
 896 640 l 257
 768 640 l 257
0 768 m 257
 0 896 l 257
 128 896 l 257
 128 768 l 257
 0 768 l 257
256 768 m 257
 256 896 l 257
 384 896 l 257
 384 768 l 257
 256 768 l 257
512 768 m 257
 512 896 l 257
 640 896 l 257
 640 768 l 257
 512 768 l 257
768 768 m 257
 768 896 l 257
 896 896 l 257
 896 768 l 257
 768 768 l 257
0 896 m 257
 0 1024 l 257
 128 1024 l 257
 128 896 l 257
 0 896 l 257
384 896 m 257
 384 1024 l 257
 512 1024 l 257
 512 896 l 257
 384 896 l 257
512 896 m 257
 512 1024 l 257
 640 1024 l 257
 640 896 l 257
 512 896 l 257
768 896 m 257
 768 1024 l 257
 896 1024 l 257
 896 896 l 257
 768 896 l 257
0 1024 m 257
 0 1152 l 257
 128 1152 l 257
 128 1024 l 257
 0 1024 l 257
768 1024 m 257
 768 1152 l 257
 896 1152 l 257
 896 1024 l 257
 768 1024 l 257
128 1152 m 257
 128 1280 l 257
 256 1280 l 257
 256 1152 l 257
 128 1152 l 257
640 1152 m 257
 640 1280 l 257
 768 1280 l 257
 768 1152 l 257
 640 1152 l 257
256 1280 m 257
 256 1408 l 257
 384 1408 l 257
 384 1280 l 257
 256 1280 l 257
384 1280 m 257
 384 1408 l 257
 512 1408 l 257
 512 1280 l 257
 384 1280 l 257
512 1280 m 257
 512 1408 l 257
 640 1408 l 257
 640 1280 l 257
 512 1280 l 257
EndSplineSet
Fore
SplineSet
0 293 m 1
 0 1115 l 1
 293 1408 l 1
 603 1408 l 1
 896 1115 l 1
 896 384 l 1
 421 384 l 1
 256 549 l 1
 256 859 l 1
 421 1024 l 1
 640 1024 l 1
 640 512 l 1
 768 512 l 1
 768 1061 l 1
 549 1280 l 1
 347 1280 l 1
 128 1061 l 1
 128 347 l 1
 347 128 l 1
 677 128 l 1
 805 256 l 1
 896 165 l 1
 731 0 l 1
 293 0 l 1
 0 293 l 1
384 603 m 1
 475 512 l 1
 512 512 l 1
 512 896 l 1
 475 896 l 1
 384 805 l 1
 384 603 l 1
EndSplineSet
EndChar

StartChar: char65.uni0041
Encoding: 33 65 33
GlifName: char65.uni0041
Width: 1024
VWidth: 0
Flags: HW
LayerCount: 2
Back
SplineSet
0 0 m 257
 0 128 l 257
 128 128 l 257
 128 0 l 257
 0 0 l 257
768 0 m 257
 768 128 l 257
 896 128 l 257
 896 0 l 257
 768 0 l 257
0 128 m 257
 0 256 l 257
 128 256 l 257
 128 128 l 257
 0 128 l 257
768 128 m 257
 768 256 l 257
 896 256 l 257
 896 128 l 257
 768 128 l 257
0 256 m 257
 0 384 l 257
 128 384 l 257
 128 256 l 257
 0 256 l 257
768 256 m 257
 768 384 l 257
 896 384 l 257
 896 256 l 257
 768 256 l 257
0 384 m 257
 0 512 l 257
 128 512 l 257
 128 384 l 257
 0 384 l 257
768 384 m 257
 768 512 l 257
 896 512 l 257
 896 384 l 257
 768 384 l 257
0 512 m 257
 0 640 l 257
 128 640 l 257
 128 512 l 257
 0 512 l 257
768 512 m 257
 768 640 l 257
 896 640 l 257
 896 512 l 257
 768 512 l 257
0 640 m 257
 0 768 l 257
 128 768 l 257
 128 640 l 257
 0 640 l 257
128 640 m 257
 128 768 l 257
 256 768 l 257
 256 640 l 257
 128 640 l 257
256 640 m 257
 256 768 l 257
 384 768 l 257
 384 640 l 257
 256 640 l 257
384 640 m 257
 384 768 l 257
 512 768 l 257
 512 640 l 257
 384 640 l 257
512 640 m 257
 512 768 l 257
 640 768 l 257
 640 640 l 257
 512 640 l 257
640 640 m 257
 640 768 l 257
 768 768 l 257
 768 640 l 257
 640 640 l 257
768 640 m 257
 768 768 l 257
 896 768 l 257
 896 640 l 257
 768 640 l 257
0 768 m 257
 0 896 l 257
 128 896 l 257
 128 768 l 257
 0 768 l 257
768 768 m 257
 768 896 l 257
 896 896 l 257
 896 768 l 257
 768 768 l 257
0 896 m 257
 0 1024 l 257
 128 1024 l 257
 128 896 l 257
 0 896 l 257
768 896 m 257
 768 1024 l 257
 896 1024 l 257
 896 896 l 257
 768 896 l 257
0 1024 m 257
 0 1152 l 257
 128 1152 l 257
 128 1024 l 257
 0 1024 l 257
768 1024 m 257
 768 1152 l 257
 896 1152 l 257
 896 1024 l 257
 768 1024 l 257
128 1152 m 257
 128 1280 l 257
 256 1280 l 257
 256 1152 l 257
 128 1152 l 257
640 1152 m 257
 640 1280 l 257
 768 1280 l 257
 768 1152 l 257
 640 1152 l 257
256 1280 m 257
 256 1408 l 257
 384 1408 l 257
 384 1280 l 257
 256 1280 l 257
384 1280 m 257
 384 1408 l 257
 512 1408 l 257
 512 1280 l 257
 384 1280 l 257
512 1280 m 257
 512 1408 l 257
 640 1408 l 257
 640 1280 l 257
 512 1280 l 257
EndSplineSet
Fore
SplineSet
0 0 m 1
 0 1115 l 1
 293 1408 l 1
 603 1408 l 1
 896 1115 l 1
 896 0 l 1
 768 0 l 1
 768 640 l 1
 128 640 l 1
 128 0 l 1
 0 0 l 1
128 768 m 1
 768 768 l 1
 768 1061 l 1
 549 1280 l 1
 347 1280 l 1
 128 1061 l 1
 128 768 l 1
EndSplineSet
EndChar

StartChar: char66.uni0042
Encoding: 34 66 34
GlifName: char66.uni0042
Width: 1024
VWidth: 0
Flags: HW
LayerCount: 2
Back
SplineSet
0 0 m 257
 0 128 l 257
 128 128 l 257
 128 0 l 257
 0 0 l 257
128 0 m 257
 128 128 l 257
 256 128 l 257
 256 0 l 257
 128 0 l 257
256 0 m 257
 256 128 l 257
 384 128 l 257
 384 0 l 257
 256 0 l 257
384 0 m 257
 384 128 l 257
 512 128 l 257
 512 0 l 257
 384 0 l 257
512 0 m 257
 512 128 l 257
 640 128 l 257
 640 0 l 257
 512 0 l 257
0 128 m 257
 0 256 l 257
 128 256 l 257
 128 128 l 257
 0 128 l 257
640 128 m 257
 640 256 l 257
 768 256 l 257
 768 128 l 257
 640 128 l 257
0 256 m 257
 0 384 l 257
 128 384 l 257
 128 256 l 257
 0 256 l 257
768 256 m 257
 768 384 l 257
 896 384 l 257
 896 256 l 257
 768 256 l 257
0 384 m 257
 0 512 l 257
 128 512 l 257
 128 384 l 257
 0 384 l 257
768 384 m 257
 768 512 l 257
 896 512 l 257
 896 384 l 257
 768 384 l 257
0 512 m 257
 0 640 l 257
 128 640 l 257
 128 512 l 257
 0 512 l 257
640 512 m 257
 640 640 l 257
 768 640 l 257
 768 512 l 257
 640 512 l 257
0 640 m 257
 0 768 l 257
 128 768 l 257
 128 640 l 257
 0 640 l 257
128 640 m 257
 128 768 l 257
 256 768 l 257
 256 640 l 257
 128 640 l 257
256 640 m 257
 256 768 l 257
 384 768 l 257
 384 640 l 257
 256 640 l 257
384 640 m 257
 384 768 l 257
 512 768 l 257
 512 640 l 257
 384 640 l 257
512 640 m 257
 512 768 l 257
 640 768 l 257
 640 640 l 257
 512 640 l 257
0 768 m 257
 0 896 l 257
 128 896 l 257
 128 768 l 257
 0 768 l 257
640 768 m 257
 640 896 l 257
 768 896 l 257
 768 768 l 257
 640 768 l 257
0 896 m 257
 0 1024 l 257
 128 1024 l 257
 128 896 l 257
 0 896 l 257
768 896 m 257
 768 1024 l 257
 896 1024 l 257
 896 896 l 257
 768 896 l 257
0 1024 m 257
 0 1152 l 257
 128 1152 l 257
 128 1024 l 257
 0 1024 l 257
768 1024 m 257
 768 1152 l 257
 896 1152 l 257
 896 1024 l 257
 768 1024 l 257
0 1152 m 257
 0 1280 l 257
 128 1280 l 257
 128 1152 l 257
 0 1152 l 257
640 1152 m 257
 640 1280 l 257
 768 1280 l 257
 768 1152 l 257
 640 1152 l 257
0 1280 m 257
 0 1408 l 257
 128 1408 l 257
 128 1280 l 257
 0 1280 l 257
128 1280 m 257
 128 1408 l 257
 256 1408 l 257
 256 1280 l 257
 128 1280 l 257
256 1280 m 257
 256 1408 l 257
 384 1408 l 257
 384 1280 l 257
 256 1280 l 257
384 1280 m 257
 384 1408 l 257
 512 1408 l 257
 512 1280 l 257
 384 1280 l 257
512 1280 m 257
 512 1408 l 257
 640 1408 l 257
 640 1280 l 257
 512 1280 l 257
EndSplineSet
Fore
SplineSet
0 0 m 1
 0 1408 l 1
 603 1408 l 1
 896 1115 l 1
 896 933 l 1
 667 704 l 1
 896 475 l 1
 896 293 l 1
 603 0 l 1
 0 0 l 1
128 128 m 1
 549 128 l 1
 768 347 l 1
 768 421 l 1
 549 640 l 1
 128 640 l 1
 128 128 l 1
128 768 m 1
 549 768 l 1
 768 987 l 1
 768 1061 l 1
 549 1280 l 1
 128 1280 l 1
 128 768 l 1
EndSplineSet
EndChar

StartChar: char67.uni0043
Encoding: 35 67 35
GlifName: char67.uni0043
Width: 1024
VWidth: 0
Flags: HW
LayerCount: 2
Back
SplineSet
256 0 m 257
 256 128 l 257
 384 128 l 257
 384 0 l 257
 256 0 l 257
384 0 m 257
 384 128 l 257
 512 128 l 257
 512 0 l 257
 384 0 l 257
512 0 m 257
 512 128 l 257
 640 128 l 257
 640 0 l 257
 512 0 l 257
128 128 m 257
 128 256 l 257
 256 256 l 257
 256 128 l 257
 128 128 l 257
640 128 m 257
 640 256 l 257
 768 256 l 257
 768 128 l 257
 640 128 l 257
0 256 m 257
 0 384 l 257
 128 384 l 257
 128 256 l 257
 0 256 l 257
768 256 m 257
 768 384 l 257
 896 384 l 257
 896 256 l 257
 768 256 l 257
0 384 m 257
 0 512 l 257
 128 512 l 257
 128 384 l 257
 0 384 l 257
0 512 m 257
 0 640 l 257
 128 640 l 257
 128 512 l 257
 0 512 l 257
0 640 m 257
 0 768 l 257
 128 768 l 257
 128 640 l 257
 0 640 l 257
0 768 m 257
 0 896 l 257
 128 896 l 257
 128 768 l 257
 0 768 l 257
0 896 m 257
 0 1024 l 257
 128 1024 l 257
 128 896 l 257
 0 896 l 257
0 1024 m 257
 0 1152 l 257
 128 1152 l 257
 128 1024 l 257
 0 1024 l 257
768 1024 m 257
 768 1152 l 257
 896 1152 l 257
 896 1024 l 257
 768 1024 l 257
128 1152 m 257
 128 1280 l 257
 256 1280 l 257
 256 1152 l 257
 128 1152 l 257
640 1152 m 257
 640 1280 l 257
 768 1280 l 257
 768 1152 l 257
 640 1152 l 257
256 1280 m 257
 256 1408 l 257
 384 1408 l 257
 384 1280 l 257
 256 1280 l 257
384 1280 m 257
 384 1408 l 257
 512 1408 l 257
 512 1280 l 257
 384 1280 l 257
512 1280 m 257
 512 1408 l 257
 640 1408 l 257
 640 1280 l 257
 512 1280 l 257
EndSplineSet
Fore
SplineSet
0 293 m 1
 0 1115 l 1
 293 1408 l 1
 603 1408 l 1
 896 1115 l 1
 805 1024 l 1
 549 1280 l 1
 347 1280 l 1
 128 1061 l 1
 128 347 l 1
 347 128 l 1
 549 128 l 1
 805 384 l 1
 896 293 l 1
 603 0 l 1
 293 0 l 1
 0 293 l 1
EndSplineSet
EndChar

StartChar: char68.uni0044
Encoding: 36 68 36
GlifName: char68.uni0044
Width: 1024
VWidth: 0
Flags: HW
LayerCount: 2
Back
SplineSet
0 0 m 257
 0 128 l 257
 128 128 l 257
 128 0 l 257
 0 0 l 257
128 0 m 257
 128 128 l 257
 256 128 l 257
 256 0 l 257
 128 0 l 257
256 0 m 257
 256 128 l 257
 384 128 l 257
 384 0 l 257
 256 0 l 257
384 0 m 257
 384 128 l 257
 512 128 l 257
 512 0 l 257
 384 0 l 257
512 0 m 257
 512 128 l 257
 640 128 l 257
 640 0 l 257
 512 0 l 257
0 128 m 257
 0 256 l 257
 128 256 l 257
 128 128 l 257
 0 128 l 257
640 128 m 257
 640 256 l 257
 768 256 l 257
 768 128 l 257
 640 128 l 257
0 256 m 257
 0 384 l 257
 128 384 l 257
 128 256 l 257
 0 256 l 257
768 256 m 257
 768 384 l 257
 896 384 l 257
 896 256 l 257
 768 256 l 257
0 384 m 257
 0 512 l 257
 128 512 l 257
 128 384 l 257
 0 384 l 257
768 384 m 257
 768 512 l 257
 896 512 l 257
 896 384 l 257
 768 384 l 257
0 512 m 257
 0 640 l 257
 128 640 l 257
 128 512 l 257
 0 512 l 257
768 512 m 257
 768 640 l 257
 896 640 l 257
 896 512 l 257
 768 512 l 257
0 640 m 257
 0 768 l 257
 128 768 l 257
 128 640 l 257
 0 640 l 257
768 640 m 257
 768 768 l 257
 896 768 l 257
 896 640 l 257
 768 640 l 257
0 768 m 257
 0 896 l 257
 128 896 l 257
 128 768 l 257
 0 768 l 257
768 768 m 257
 768 896 l 257
 896 896 l 257
 896 768 l 257
 768 768 l 257
0 896 m 257
 0 1024 l 257
 128 1024 l 257
 128 896 l 257
 0 896 l 257
768 896 m 257
 768 1024 l 257
 896 1024 l 257
 896 896 l 257
 768 896 l 257
0 1024 m 257
 0 1152 l 257
 128 1152 l 257
 128 1024 l 257
 0 1024 l 257
768 1024 m 257
 768 1152 l 257
 896 1152 l 257
 896 1024 l 257
 768 1024 l 257
0 1152 m 257
 0 1280 l 257
 128 1280 l 257
 128 1152 l 257
 0 1152 l 257
640 1152 m 257
 640 1280 l 257
 768 1280 l 257
 768 1152 l 257
 640 1152 l 257
0 1280 m 257
 0 1408 l 257
 128 1408 l 257
 128 1280 l 257
 0 1280 l 257
128 1280 m 257
 128 1408 l 257
 256 1408 l 257
 256 1280 l 257
 128 1280 l 257
256 1280 m 257
 256 1408 l 257
 384 1408 l 257
 384 1280 l 257
 256 1280 l 257
384 1280 m 257
 384 1408 l 257
 512 1408 l 257
 512 1280 l 257
 384 1280 l 257
512 1280 m 257
 512 1408 l 257
 640 1408 l 257
 640 1280 l 257
 512 1280 l 257
EndSplineSet
Fore
SplineSet
0 0 m 1
 0 1408 l 1
 603 1408 l 1
 896 1115 l 1
 896 293 l 1
 603 0 l 1
 0 0 l 1
128 128 m 1
 549 128 l 1
 768 347 l 1
 768 1061 l 1
 549 1280 l 1
 128 1280 l 1
 128 128 l 1
EndSplineSet
EndChar

StartChar: char69.uni0045
Encoding: 37 69 37
GlifName: char69.uni0045
Width: 1024
VWidth: 0
Flags: HW
LayerCount: 2
Back
SplineSet
0 0 m 257
 0 128 l 257
 128 128 l 257
 128 0 l 257
 0 0 l 257
128 0 m 257
 128 128 l 257
 256 128 l 257
 256 0 l 257
 128 0 l 257
256 0 m 257
 256 128 l 257
 384 128 l 257
 384 0 l 257
 256 0 l 257
384 0 m 257
 384 128 l 257
 512 128 l 257
 512 0 l 257
 384 0 l 257
512 0 m 257
 512 128 l 257
 640 128 l 257
 640 0 l 257
 512 0 l 257
640 0 m 257
 640 128 l 257
 768 128 l 257
 768 0 l 257
 640 0 l 257
768 0 m 257
 768 128 l 257
 896 128 l 257
 896 0 l 257
 768 0 l 257
0 128 m 257
 0 256 l 257
 128 256 l 257
 128 128 l 257
 0 128 l 257
0 256 m 257
 0 384 l 257
 128 384 l 257
 128 256 l 257
 0 256 l 257
0 384 m 257
 0 512 l 257
 128 512 l 257
 128 384 l 257
 0 384 l 257
0 512 m 257
 0 640 l 257
 128 640 l 257
 128 512 l 257
 0 512 l 257
0 640 m 257
 0 768 l 257
 128 768 l 257
 128 640 l 257
 0 640 l 257
128 640 m 257
 128 768 l 257
 256 768 l 257
 256 640 l 257
 128 640 l 257
256 640 m 257
 256 768 l 257
 384 768 l 257
 384 640 l 257
 256 640 l 257
384 640 m 257
 384 768 l 257
 512 768 l 257
 512 640 l 257
 384 640 l 257
512 640 m 257
 512 768 l 257
 640 768 l 257
 640 640 l 257
 512 640 l 257
640 640 m 257
 640 768 l 257
 768 768 l 257
 768 640 l 257
 640 640 l 257
0 768 m 257
 0 896 l 257
 128 896 l 257
 128 768 l 257
 0 768 l 257
0 896 m 257
 0 1024 l 257
 128 1024 l 257
 128 896 l 257
 0 896 l 257
0 1024 m 257
 0 1152 l 257
 128 1152 l 257
 128 1024 l 257
 0 1024 l 257
0 1152 m 257
 0 1280 l 257
 128 1280 l 257
 128 1152 l 257
 0 1152 l 257
0 1280 m 257
 0 1408 l 257
 128 1408 l 257
 128 1280 l 257
 0 1280 l 257
128 1280 m 257
 128 1408 l 257
 256 1408 l 257
 256 1280 l 257
 128 1280 l 257
256 1280 m 257
 256 1408 l 257
 384 1408 l 257
 384 1280 l 257
 256 1280 l 257
384 1280 m 257
 384 1408 l 257
 512 1408 l 257
 512 1280 l 257
 384 1280 l 257
512 1280 m 257
 512 1408 l 257
 640 1408 l 257
 640 1280 l 257
 512 1280 l 257
640 1280 m 257
 640 1408 l 257
 768 1408 l 257
 768 1280 l 257
 640 1280 l 257
768 1280 m 257
 768 1408 l 257
 896 1408 l 257
 896 1280 l 257
 768 1280 l 257
EndSplineSet
Fore
SplineSet
0 0 m 1
 0 1408 l 1
 896 1408 l 1
 896 1280 l 1
 128 1280 l 1
 128 768 l 1
 768 768 l 1
 768 640 l 1
 128 640 l 1
 128 128 l 1
 896 128 l 1
 896 0 l 1
 0 0 l 1
EndSplineSet
EndChar

StartChar: char70.uni0046
Encoding: 38 70 38
GlifName: char70.uni0046
Width: 1024
VWidth: 0
Flags: HW
LayerCount: 2
Back
SplineSet
0 0 m 257
 0 128 l 257
 128 128 l 257
 128 0 l 257
 0 0 l 257
0 128 m 257
 0 256 l 257
 128 256 l 257
 128 128 l 257
 0 128 l 257
0 256 m 257
 0 384 l 257
 128 384 l 257
 128 256 l 257
 0 256 l 257
0 384 m 257
 0 512 l 257
 128 512 l 257
 128 384 l 257
 0 384 l 257
0 512 m 257
 0 640 l 257
 128 640 l 257
 128 512 l 257
 0 512 l 257
0 640 m 257
 0 768 l 257
 128 768 l 257
 128 640 l 257
 0 640 l 257
128 640 m 257
 128 768 l 257
 256 768 l 257
 256 640 l 257
 128 640 l 257
256 640 m 257
 256 768 l 257
 384 768 l 257
 384 640 l 257
 256 640 l 257
384 640 m 257
 384 768 l 257
 512 768 l 257
 512 640 l 257
 384 640 l 257
512 640 m 257
 512 768 l 257
 640 768 l 257
 640 640 l 257
 512 640 l 257
640 640 m 257
 640 768 l 257
 768 768 l 257
 768 640 l 257
 640 640 l 257
0 768 m 257
 0 896 l 257
 128 896 l 257
 128 768 l 257
 0 768 l 257
0 896 m 257
 0 1024 l 257
 128 1024 l 257
 128 896 l 257
 0 896 l 257
0 1024 m 257
 0 1152 l 257
 128 1152 l 257
 128 1024 l 257
 0 1024 l 257
0 1152 m 257
 0 1280 l 257
 128 1280 l 257
 128 1152 l 257
 0 1152 l 257
0 1280 m 257
 0 1408 l 257
 128 1408 l 257
 128 1280 l 257
 0 1280 l 257
128 1280 m 257
 128 1408 l 257
 256 1408 l 257
 256 1280 l 257
 128 1280 l 257
256 1280 m 257
 256 1408 l 257
 384 1408 l 257
 384 1280 l 257
 256 1280 l 257
384 1280 m 257
 384 1408 l 257
 512 1408 l 257
 512 1280 l 257
 384 1280 l 257
512 1280 m 257
 512 1408 l 257
 640 1408 l 257
 640 1280 l 257
 512 1280 l 257
640 1280 m 257
 640 1408 l 257
 768 1408 l 257
 768 1280 l 257
 640 1280 l 257
768 1280 m 257
 768 1408 l 257
 896 1408 l 257
 896 1280 l 257
 768 1280 l 257
EndSplineSet
Fore
SplineSet
0 0 m 1
 0 1408 l 1
 896 1408 l 1
 896 1280 l 1
 128 1280 l 1
 128 768 l 1
 768 768 l 1
 768 640 l 1
 128 640 l 1
 128 0 l 1
 0 0 l 1
EndSplineSet
EndChar

StartChar: char71.uni0047
Encoding: 39 71 39
GlifName: char71.uni0047
Width: 1024
VWidth: 0
Flags: HW
LayerCount: 2
Back
SplineSet
256 0 m 257
 256 128 l 257
 384 128 l 257
 384 0 l 257
 256 0 l 257
384 0 m 257
 384 128 l 257
 512 128 l 257
 512 0 l 257
 384 0 l 257
512 0 m 257
 512 128 l 257
 640 128 l 257
 640 0 l 257
 512 0 l 257
128 128 m 257
 128 256 l 257
 256 256 l 257
 256 128 l 257
 128 128 l 257
640 128 m 257
 640 256 l 257
 768 256 l 257
 768 128 l 257
 640 128 l 257
0 256 m 257
 0 384 l 257
 128 384 l 257
 128 256 l 257
 0 256 l 257
768 256 m 257
 768 384 l 257
 896 384 l 257
 896 256 l 257
 768 256 l 257
0 384 m 257
 0 512 l 257
 128 512 l 257
 128 384 l 257
 0 384 l 257
768 384 m 257
 768 512 l 257
 896 512 l 257
 896 384 l 257
 768 384 l 257
0 512 m 257
 0 640 l 257
 128 640 l 257
 128 512 l 257
 0 512 l 257
768 512 m 257
 768 640 l 257
 896 640 l 257
 896 512 l 257
 768 512 l 257
0 640 m 257
 0 768 l 257
 128 768 l 257
 128 640 l 257
 0 640 l 257
512 640 m 257
 512 768 l 257
 640 768 l 257
 640 640 l 257
 512 640 l 257
640 640 m 257
 640 768 l 257
 768 768 l 257
 768 640 l 257
 640 640 l 257
768 640 m 257
 768 768 l 257
 896 768 l 257
 896 640 l 257
 768 640 l 257
0 768 m 257
 0 896 l 257
 128 896 l 257
 128 768 l 257
 0 768 l 257
0 896 m 257
 0 1024 l 257
 128 1024 l 257
 128 896 l 257
 0 896 l 257
0 1024 m 257
 0 1152 l 257
 128 1152 l 257
 128 1024 l 257
 0 1024 l 257
768 1024 m 257
 768 1152 l 257
 896 1152 l 257
 896 1024 l 257
 768 1024 l 257
128 1152 m 257
 128 1280 l 257
 256 1280 l 257
 256 1152 l 257
 128 1152 l 257
640 1152 m 257
 640 1280 l 257
 768 1280 l 257
 768 1152 l 257
 640 1152 l 257
256 1280 m 257
 256 1408 l 257
 384 1408 l 257
 384 1280 l 257
 256 1280 l 257
384 1280 m 257
 384 1408 l 257
 512 1408 l 257
 512 1280 l 257
 384 1280 l 257
512 1280 m 257
 512 1408 l 257
 640 1408 l 257
 640 1280 l 257
 512 1280 l 257
EndSplineSet
Fore
SplineSet
0 293 m 1
 0 1115 l 1
 293 1408 l 1
 603 1408 l 1
 896 1115 l 1
 805 1024 l 1
 549 1280 l 1
 347 1280 l 1
 128 1061 l 1
 128 347 l 1
 347 128 l 1
 549 128 l 1
 768 347 l 1
 768 640 l 1
 512 640 l 1
 512 768 l 1
 896 768 l 1
 896 293 l 1
 603 0 l 1
 293 0 l 1
 0 293 l 1
EndSplineSet
EndChar

StartChar: char72.uni0048
Encoding: 40 72 40
GlifName: char72.uni0048
Width: 1024
VWidth: 0
Flags: HW
LayerCount: 2
Back
SplineSet
0 0 m 257
 0 128 l 257
 128 128 l 257
 128 0 l 257
 0 0 l 257
768 0 m 257
 768 128 l 257
 896 128 l 257
 896 0 l 257
 768 0 l 257
0 128 m 257
 0 256 l 257
 128 256 l 257
 128 128 l 257
 0 128 l 257
768 128 m 257
 768 256 l 257
 896 256 l 257
 896 128 l 257
 768 128 l 257
0 256 m 257
 0 384 l 257
 128 384 l 257
 128 256 l 257
 0 256 l 257
768 256 m 257
 768 384 l 257
 896 384 l 257
 896 256 l 257
 768 256 l 257
0 384 m 257
 0 512 l 257
 128 512 l 257
 128 384 l 257
 0 384 l 257
768 384 m 257
 768 512 l 257
 896 512 l 257
 896 384 l 257
 768 384 l 257
0 512 m 257
 0 640 l 257
 128 640 l 257
 128 512 l 257
 0 512 l 257
768 512 m 257
 768 640 l 257
 896 640 l 257
 896 512 l 257
 768 512 l 257
0 640 m 257
 0 768 l 257
 128 768 l 257
 128 640 l 257
 0 640 l 257
128 640 m 257
 128 768 l 257
 256 768 l 257
 256 640 l 257
 128 640 l 257
256 640 m 257
 256 768 l 257
 384 768 l 257
 384 640 l 257
 256 640 l 257
384 640 m 257
 384 768 l 257
 512 768 l 257
 512 640 l 257
 384 640 l 257
512 640 m 257
 512 768 l 257
 640 768 l 257
 640 640 l 257
 512 640 l 257
640 640 m 257
 640 768 l 257
 768 768 l 257
 768 640 l 257
 640 640 l 257
768 640 m 257
 768 768 l 257
 896 768 l 257
 896 640 l 257
 768 640 l 257
0 768 m 257
 0 896 l 257
 128 896 l 257
 128 768 l 257
 0 768 l 257
768 768 m 257
 768 896 l 257
 896 896 l 257
 896 768 l 257
 768 768 l 257
0 896 m 257
 0 1024 l 257
 128 1024 l 257
 128 896 l 257
 0 896 l 257
768 896 m 257
 768 1024 l 257
 896 1024 l 257
 896 896 l 257
 768 896 l 257
0 1024 m 257
 0 1152 l 257
 128 1152 l 257
 128 1024 l 257
 0 1024 l 257
768 1024 m 257
 768 1152 l 257
 896 1152 l 257
 896 1024 l 257
 768 1024 l 257
0 1152 m 257
 0 1280 l 257
 128 1280 l 257
 128 1152 l 257
 0 1152 l 257
768 1152 m 257
 768 1280 l 257
 896 1280 l 257
 896 1152 l 257
 768 1152 l 257
0 1280 m 257
 0 1408 l 257
 128 1408 l 257
 128 1280 l 257
 0 1280 l 257
768 1280 m 257
 768 1408 l 257
 896 1408 l 257
 896 1280 l 257
 768 1280 l 257
EndSplineSet
Fore
SplineSet
0 0 m 1
 0 1408 l 1
 128 1408 l 1
 128 768 l 1
 768 768 l 1
 768 1408 l 1
 896 1408 l 1
 896 0 l 1
 768 0 l 1
 768 640 l 1
 128 640 l 1
 128 0 l 1
 0 0 l 1
EndSplineSet
EndChar

StartChar: char73.uni0049
Encoding: 41 73 41
GlifName: char73.uni0049
Width: 1024
VWidth: 0
Flags: HW
LayerCount: 2
Back
SplineSet
128 0 m 257
 128 128 l 257
 256 128 l 257
 256 0 l 257
 128 0 l 257
256 0 m 257
 256 128 l 257
 384 128 l 257
 384 0 l 257
 256 0 l 257
384 0 m 257
 384 128 l 257
 512 128 l 257
 512 0 l 257
 384 0 l 257
512 0 m 257
 512 128 l 257
 640 128 l 257
 640 0 l 257
 512 0 l 257
640 0 m 257
 640 128 l 257
 768 128 l 257
 768 0 l 257
 640 0 l 257
384 128 m 257
 384 256 l 257
 512 256 l 257
 512 128 l 257
 384 128 l 257
384 256 m 257
 384 384 l 257
 512 384 l 257
 512 256 l 257
 384 256 l 257
384 384 m 257
 384 512 l 257
 512 512 l 257
 512 384 l 257
 384 384 l 257
384 512 m 257
 384 640 l 257
 512 640 l 257
 512 512 l 257
 384 512 l 257
384 640 m 257
 384 768 l 257
 512 768 l 257
 512 640 l 257
 384 640 l 257
384 768 m 257
 384 896 l 257
 512 896 l 257
 512 768 l 257
 384 768 l 257
384 896 m 257
 384 1024 l 257
 512 1024 l 257
 512 896 l 257
 384 896 l 257
384 1024 m 257
 384 1152 l 257
 512 1152 l 257
 512 1024 l 257
 384 1024 l 257
384 1152 m 257
 384 1280 l 257
 512 1280 l 257
 512 1152 l 257
 384 1152 l 257
128 1280 m 257
 128 1408 l 257
 256 1408 l 257
 256 1280 l 257
 128 1280 l 257
256 1280 m 257
 256 1408 l 257
 384 1408 l 257
 384 1280 l 257
 256 1280 l 257
384 1280 m 257
 384 1408 l 257
 512 1408 l 257
 512 1280 l 257
 384 1280 l 257
512 1280 m 257
 512 1408 l 257
 640 1408 l 257
 640 1280 l 257
 512 1280 l 257
640 1280 m 257
 640 1408 l 257
 768 1408 l 257
 768 1280 l 257
 640 1280 l 257
EndSplineSet
Fore
SplineSet
128 0 m 1
 128 128 l 1
 384 128 l 1
 384 1280 l 1
 128 1280 l 1
 128 1408 l 1
 768 1408 l 1
 768 1280 l 1
 512 1280 l 1
 512 128 l 1
 768 128 l 1
 768 0 l 1
 128 0 l 1
EndSplineSet
EndChar

StartChar: char74.uni004A
Encoding: 42 74 42
GlifName: char74.uni004A
Width: 1024
VWidth: 0
Flags: HW
LayerCount: 2
Back
SplineSet
256 0 m 257
 256 128 l 257
 384 128 l 257
 384 0 l 257
 256 0 l 257
384 0 m 257
 384 128 l 257
 512 128 l 257
 512 0 l 257
 384 0 l 257
512 0 m 257
 512 128 l 257
 640 128 l 257
 640 0 l 257
 512 0 l 257
128 128 m 257
 128 256 l 257
 256 256 l 257
 256 128 l 257
 128 128 l 257
640 128 m 257
 640 256 l 257
 768 256 l 257
 768 128 l 257
 640 128 l 257
0 256 m 257
 0 384 l 257
 128 384 l 257
 128 256 l 257
 0 256 l 257
768 256 m 257
 768 384 l 257
 896 384 l 257
 896 256 l 257
 768 256 l 257
0 384 m 257
 0 512 l 257
 128 512 l 257
 128 384 l 257
 0 384 l 257
768 384 m 257
 768 512 l 257
 896 512 l 257
 896 384 l 257
 768 384 l 257
768 512 m 257
 768 640 l 257
 896 640 l 257
 896 512 l 257
 768 512 l 257
768 640 m 257
 768 768 l 257
 896 768 l 257
 896 640 l 257
 768 640 l 257
768 768 m 257
 768 896 l 257
 896 896 l 257
 896 768 l 257
 768 768 l 257
768 896 m 257
 768 1024 l 257
 896 1024 l 257
 896 896 l 257
 768 896 l 257
768 1024 m 257
 768 1152 l 257
 896 1152 l 257
 896 1024 l 257
 768 1024 l 257
768 1152 m 257
 768 1280 l 257
 896 1280 l 257
 896 1152 l 257
 768 1152 l 257
768 1280 m 257
 768 1408 l 257
 896 1408 l 257
 896 1280 l 257
 768 1280 l 257
EndSplineSet
Fore
SplineSet
0 293 m 1
 0 512 l 1
 128 512 l 1
 128 347 l 1
 347 128 l 1
 549 128 l 1
 768 347 l 1
 768 1408 l 1
 896 1408 l 1
 896 293 l 1
 603 0 l 1
 293 0 l 1
 0 293 l 1
EndSplineSet
EndChar

StartChar: char75.uni004B
Encoding: 43 75 43
GlifName: char75.uni004B
Width: 1024
VWidth: 0
Flags: HW
LayerCount: 2
Back
SplineSet
0 0 m 257
 0 128 l 257
 128 128 l 257
 128 0 l 257
 0 0 l 257
768 0 m 257
 768 128 l 257
 896 128 l 257
 896 0 l 257
 768 0 l 257
0 128 m 257
 0 256 l 257
 128 256 l 257
 128 128 l 257
 0 128 l 257
640 128 m 257
 640 256 l 257
 768 256 l 257
 768 128 l 257
 640 128 l 257
0 256 m 257
 0 384 l 257
 128 384 l 257
 128 256 l 257
 0 256 l 257
512 256 m 257
 512 384 l 257
 640 384 l 257
 640 256 l 257
 512 256 l 257
0 384 m 257
 0 512 l 257
 128 512 l 257
 128 384 l 257
 0 384 l 257
384 384 m 257
 384 512 l 257
 512 512 l 257
 512 384 l 257
 384 384 l 257
0 512 m 257
 0 640 l 257
 128 640 l 257
 128 512 l 257
 0 512 l 257
256 512 m 257
 256 640 l 257
 384 640 l 257
 384 512 l 257
 256 512 l 257
0 640 m 257
 0 768 l 257
 128 768 l 257
 128 640 l 257
 0 640 l 257
128 640 m 257
 128 768 l 257
 256 768 l 257
 256 640 l 257
 128 640 l 257
0 768 m 257
 0 896 l 257
 128 896 l 257
 128 768 l 257
 0 768 l 257
256 768 m 257
 256 896 l 257
 384 896 l 257
 384 768 l 257
 256 768 l 257
0 896 m 257
 0 1024 l 257
 128 1024 l 257
 128 896 l 257
 0 896 l 257
384 896 m 257
 384 1024 l 257
 512 1024 l 257
 512 896 l 257
 384 896 l 257
0 1024 m 257
 0 1152 l 257
 128 1152 l 257
 128 1024 l 257
 0 1024 l 257
512 1024 m 257
 512 1152 l 257
 640 1152 l 257
 640 1024 l 257
 512 1024 l 257
0 1152 m 257
 0 1280 l 257
 128 1280 l 257
 128 1152 l 257
 0 1152 l 257
640 1152 m 257
 640 1280 l 257
 768 1280 l 257
 768 1152 l 257
 640 1152 l 257
0 1280 m 257
 0 1408 l 257
 128 1408 l 257
 128 1280 l 257
 0 1280 l 257
768 1280 m 257
 768 1408 l 257
 896 1408 l 257
 896 1280 l 257
 768 1280 l 257
EndSplineSet
Fore
SplineSet
0 0 m 1
 0 1408 l 1
 128 1408 l 1
 128 768 l 1
 165 768 l 1
 805 1408 l 1
 896 1317 l 1
 283 704 l 1
 896 91 l 1
 805 0 l 1
 165 640 l 1
 128 640 l 1
 128 0 l 1
 0 0 l 1
EndSplineSet
EndChar

StartChar: char76.uni004C
Encoding: 44 76 44
GlifName: char76.uni004C
Width: 1024
VWidth: 0
Flags: HW
LayerCount: 2
Back
SplineSet
0 0 m 257
 0 128 l 257
 128 128 l 257
 128 0 l 257
 0 0 l 257
128 0 m 257
 128 128 l 257
 256 128 l 257
 256 0 l 257
 128 0 l 257
256 0 m 257
 256 128 l 257
 384 128 l 257
 384 0 l 257
 256 0 l 257
384 0 m 257
 384 128 l 257
 512 128 l 257
 512 0 l 257
 384 0 l 257
512 0 m 257
 512 128 l 257
 640 128 l 257
 640 0 l 257
 512 0 l 257
640 0 m 257
 640 128 l 257
 768 128 l 257
 768 0 l 257
 640 0 l 257
768 0 m 257
 768 128 l 257
 896 128 l 257
 896 0 l 257
 768 0 l 257
0 128 m 257
 0 256 l 257
 128 256 l 257
 128 128 l 257
 0 128 l 257
0 256 m 257
 0 384 l 257
 128 384 l 257
 128 256 l 257
 0 256 l 257
0 384 m 257
 0 512 l 257
 128 512 l 257
 128 384 l 257
 0 384 l 257
0 512 m 257
 0 640 l 257
 128 640 l 257
 128 512 l 257
 0 512 l 257
0 640 m 257
 0 768 l 257
 128 768 l 257
 128 640 l 257
 0 640 l 257
0 768 m 257
 0 896 l 257
 128 896 l 257
 128 768 l 257
 0 768 l 257
0 896 m 257
 0 1024 l 257
 128 1024 l 257
 128 896 l 257
 0 896 l 257
0 1024 m 257
 0 1152 l 257
 128 1152 l 257
 128 1024 l 257
 0 1024 l 257
0 1152 m 257
 0 1280 l 257
 128 1280 l 257
 128 1152 l 257
 0 1152 l 257
0 1280 m 257
 0 1408 l 257
 128 1408 l 257
 128 1280 l 257
 0 1280 l 257
EndSplineSet
Fore
SplineSet
0 0 m 1
 0 1408 l 1
 128 1408 l 1
 128 128 l 1
 896 128 l 1
 896 0 l 1
 0 0 l 1
EndSplineSet
EndChar

StartChar: char77.uni004D
Encoding: 45 77 45
GlifName: char77.uni004D
Width: 1024
VWidth: 0
Flags: HW
LayerCount: 2
Back
SplineSet
0 0 m 257
 0 128 l 257
 128 128 l 257
 128 0 l 257
 0 0 l 257
768 0 m 257
 768 128 l 257
 896 128 l 257
 896 0 l 257
 768 0 l 257
0 128 m 257
 0 256 l 257
 128 256 l 257
 128 128 l 257
 0 128 l 257
768 128 m 257
 768 256 l 257
 896 256 l 257
 896 128 l 257
 768 128 l 257
0 256 m 257
 0 384 l 257
 128 384 l 257
 128 256 l 257
 0 256 l 257
768 256 m 257
 768 384 l 257
 896 384 l 257
 896 256 l 257
 768 256 l 257
0 384 m 257
 0 512 l 257
 128 512 l 257
 128 384 l 257
 0 384 l 257
768 384 m 257
 768 512 l 257
 896 512 l 257
 896 384 l 257
 768 384 l 257
0 512 m 257
 0 640 l 257
 128 640 l 257
 128 512 l 257
 0 512 l 257
768 512 m 257
 768 640 l 257
 896 640 l 257
 896 512 l 257
 768 512 l 257
0 640 m 257
 0 768 l 257
 128 768 l 257
 128 640 l 257
 0 640 l 257
768 640 m 257
 768 768 l 257
 896 768 l 257
 896 640 l 257
 768 640 l 257
0 768 m 257
 0 896 l 257
 128 896 l 257
 128 768 l 257
 0 768 l 257
768 768 m 257
 768 896 l 257
 896 896 l 257
 896 768 l 257
 768 768 l 257
0 896 m 257
 0 1024 l 257
 128 1024 l 257
 128 896 l 257
 0 896 l 257
384 896 m 257
 384 1024 l 257
 512 1024 l 257
 512 896 l 257
 384 896 l 257
768 896 m 257
 768 1024 l 257
 896 1024 l 257
 896 896 l 257
 768 896 l 257
0 1024 m 257
 0 1152 l 257
 128 1152 l 257
 128 1024 l 257
 0 1024 l 257
256 1024 m 257
 256 1152 l 257
 384 1152 l 257
 384 1024 l 257
 256 1024 l 257
512 1024 m 257
 512 1152 l 257
 640 1152 l 257
 640 1024 l 257
 512 1024 l 257
768 1024 m 257
 768 1152 l 257
 896 1152 l 257
 896 1024 l 257
 768 1024 l 257
0 1152 m 257
 0 1280 l 257
 128 1280 l 257
 128 1152 l 257
 0 1152 l 257
128 1152 m 257
 128 1280 l 257
 256 1280 l 257
 256 1152 l 257
 128 1152 l 257
640 1152 m 257
 640 1280 l 257
 768 1280 l 257
 768 1152 l 257
 640 1152 l 257
768 1152 m 257
 768 1280 l 257
 896 1280 l 257
 896 1152 l 257
 768 1152 l 257
0 1280 m 257
 0 1408 l 257
 128 1408 l 257
 128 1280 l 257
 0 1280 l 257
768 1280 m 257
 768 1408 l 257
 896 1408 l 257
 896 1280 l 257
 768 1280 l 257
EndSplineSet
Fore
SplineSet
0 0 m 1
 0 1408 l 1
 91 1408 l 1
 448 1051 l 1
 805 1408 l 1
 896 1408 l 1
 896 0 l 1
 768 0 l 1
 768 1189 l 1
 448 869 l 1
 128 1189 l 1
 128 0 l 1
 0 0 l 1
EndSplineSet
EndChar

StartChar: char78.uni004E
Encoding: 46 78 46
GlifName: char78.uni004E
Width: 1024
VWidth: 0
Flags: HW
LayerCount: 2
Back
SplineSet
0 0 m 257
 0 128 l 257
 128 128 l 257
 128 0 l 257
 0 0 l 257
768 0 m 257
 768 128 l 257
 896 128 l 257
 896 0 l 257
 768 0 l 257
0 128 m 257
 0 256 l 257
 128 256 l 257
 128 128 l 257
 0 128 l 257
768 128 m 257
 768 256 l 257
 896 256 l 257
 896 128 l 257
 768 128 l 257
0 256 m 257
 0 384 l 257
 128 384 l 257
 128 256 l 257
 0 256 l 257
768 256 m 257
 768 384 l 257
 896 384 l 257
 896 256 l 257
 768 256 l 257
0 384 m 257
 0 512 l 257
 128 512 l 257
 128 384 l 257
 0 384 l 257
768 384 m 257
 768 512 l 257
 896 512 l 257
 896 384 l 257
 768 384 l 257
0 512 m 257
 0 640 l 257
 128 640 l 257
 128 512 l 257
 0 512 l 257
768 512 m 257
 768 640 l 257
 896 640 l 257
 896 512 l 257
 768 512 l 257
0 640 m 257
 0 768 l 257
 128 768 l 257
 128 640 l 257
 0 640 l 257
640 640 m 257
 640 768 l 257
 768 768 l 257
 768 640 l 257
 640 640 l 257
768 640 m 257
 768 768 l 257
 896 768 l 257
 896 640 l 257
 768 640 l 257
0 768 m 257
 0 896 l 257
 128 896 l 257
 128 768 l 257
 0 768 l 257
512 768 m 257
 512 896 l 257
 640 896 l 257
 640 768 l 257
 512 768 l 257
768 768 m 257
 768 896 l 257
 896 896 l 257
 896 768 l 257
 768 768 l 257
0 896 m 257
 0 1024 l 257
 128 1024 l 257
 128 896 l 257
 0 896 l 257
384 896 m 257
 384 1024 l 257
 512 1024 l 257
 512 896 l 257
 384 896 l 257
768 896 m 257
 768 1024 l 257
 896 1024 l 257
 896 896 l 257
 768 896 l 257
0 1024 m 257
 0 1152 l 257
 128 1152 l 257
 128 1024 l 257
 0 1024 l 257
256 1024 m 257
 256 1152 l 257
 384 1152 l 257
 384 1024 l 257
 256 1024 l 257
768 1024 m 257
 768 1152 l 257
 896 1152 l 257
 896 1024 l 257
 768 1024 l 257
0 1152 m 257
 0 1280 l 257
 128 1280 l 257
 128 1152 l 257
 0 1152 l 257
128 1152 m 257
 128 1280 l 257
 256 1280 l 257
 256 1152 l 257
 128 1152 l 257
768 1152 m 257
 768 1280 l 257
 896 1280 l 257
 896 1152 l 257
 768 1152 l 257
0 1280 m 257
 0 1408 l 257
 128 1408 l 257
 128 1280 l 257
 0 1280 l 257
768 1280 m 257
 768 1408 l 257
 896 1408 l 257
 896 1280 l 257
 768 1280 l 257
EndSplineSet
Fore
SplineSet
0 0 m 1
 0 1408 l 1
 91 1408 l 1
 768 731 l 1
 768 1408 l 1
 896 1408 l 1
 896 0 l 1
 768 0 l 1
 768 549 l 1
 128 1189 l 1
 128 0 l 1
 0 0 l 1
EndSplineSet
EndChar

StartChar: char79.uni004F
Encoding: 47 79 47
GlifName: char79.uni004F
Width: 1024
VWidth: 0
Flags: HW
LayerCount: 2
Back
SplineSet
256 0 m 257
 256 128 l 257
 384 128 l 257
 384 0 l 257
 256 0 l 257
384 0 m 257
 384 128 l 257
 512 128 l 257
 512 0 l 257
 384 0 l 257
512 0 m 257
 512 128 l 257
 640 128 l 257
 640 0 l 257
 512 0 l 257
128 128 m 257
 128 256 l 257
 256 256 l 257
 256 128 l 257
 128 128 l 257
640 128 m 257
 640 256 l 257
 768 256 l 257
 768 128 l 257
 640 128 l 257
0 256 m 257
 0 384 l 257
 128 384 l 257
 128 256 l 257
 0 256 l 257
768 256 m 257
 768 384 l 257
 896 384 l 257
 896 256 l 257
 768 256 l 257
0 384 m 257
 0 512 l 257
 128 512 l 257
 128 384 l 257
 0 384 l 257
768 384 m 257
 768 512 l 257
 896 512 l 257
 896 384 l 257
 768 384 l 257
0 512 m 257
 0 640 l 257
 128 640 l 257
 128 512 l 257
 0 512 l 257
768 512 m 257
 768 640 l 257
 896 640 l 257
 896 512 l 257
 768 512 l 257
0 640 m 257
 0 768 l 257
 128 768 l 257
 128 640 l 257
 0 640 l 257
768 640 m 257
 768 768 l 257
 896 768 l 257
 896 640 l 257
 768 640 l 257
0 768 m 257
 0 896 l 257
 128 896 l 257
 128 768 l 257
 0 768 l 257
768 768 m 257
 768 896 l 257
 896 896 l 257
 896 768 l 257
 768 768 l 257
0 896 m 257
 0 1024 l 257
 128 1024 l 257
 128 896 l 257
 0 896 l 257
768 896 m 257
 768 1024 l 257
 896 1024 l 257
 896 896 l 257
 768 896 l 257
0 1024 m 257
 0 1152 l 257
 128 1152 l 257
 128 1024 l 257
 0 1024 l 257
768 1024 m 257
 768 1152 l 257
 896 1152 l 257
 896 1024 l 257
 768 1024 l 257
128 1152 m 257
 128 1280 l 257
 256 1280 l 257
 256 1152 l 257
 128 1152 l 257
640 1152 m 257
 640 1280 l 257
 768 1280 l 257
 768 1152 l 257
 640 1152 l 257
256 1280 m 257
 256 1408 l 257
 384 1408 l 257
 384 1280 l 257
 256 1280 l 257
384 1280 m 257
 384 1408 l 257
 512 1408 l 257
 512 1280 l 257
 384 1280 l 257
512 1280 m 257
 512 1408 l 257
 640 1408 l 257
 640 1280 l 257
 512 1280 l 257
EndSplineSet
Fore
SplineSet
0 293 m 1
 0 1115 l 1
 293 1408 l 1
 603 1408 l 1
 896 1115 l 1
 896 293 l 1
 603 0 l 1
 293 0 l 1
 0 293 l 1
128 347 m 1
 347 128 l 1
 549 128 l 1
 768 347 l 1
 768 1061 l 1
 549 1280 l 1
 347 1280 l 1
 128 1061 l 1
 128 347 l 1
EndSplineSet
EndChar

StartChar: char80.uni0050
Encoding: 48 80 48
GlifName: char80.uni0050
Width: 1024
VWidth: 0
Flags: HW
LayerCount: 2
Back
SplineSet
0 0 m 257
 0 128 l 257
 128 128 l 257
 128 0 l 257
 0 0 l 257
0 128 m 257
 0 256 l 257
 128 256 l 257
 128 128 l 257
 0 128 l 257
0 256 m 257
 0 384 l 257
 128 384 l 257
 128 256 l 257
 0 256 l 257
0 384 m 257
 0 512 l 257
 128 512 l 257
 128 384 l 257
 0 384 l 257
0 512 m 257
 0 640 l 257
 128 640 l 257
 128 512 l 257
 0 512 l 257
0 640 m 257
 0 768 l 257
 128 768 l 257
 128 640 l 257
 0 640 l 257
128 640 m 257
 128 768 l 257
 256 768 l 257
 256 640 l 257
 128 640 l 257
256 640 m 257
 256 768 l 257
 384 768 l 257
 384 640 l 257
 256 640 l 257
384 640 m 257
 384 768 l 257
 512 768 l 257
 512 640 l 257
 384 640 l 257
512 640 m 257
 512 768 l 257
 640 768 l 257
 640 640 l 257
 512 640 l 257
0 768 m 257
 0 896 l 257
 128 896 l 257
 128 768 l 257
 0 768 l 257
640 768 m 257
 640 896 l 257
 768 896 l 257
 768 768 l 257
 640 768 l 257
0 896 m 257
 0 1024 l 257
 128 1024 l 257
 128 896 l 257
 0 896 l 257
768 896 m 257
 768 1024 l 257
 896 1024 l 257
 896 896 l 257
 768 896 l 257
0 1024 m 257
 0 1152 l 257
 128 1152 l 257
 128 1024 l 257
 0 1024 l 257
768 1024 m 257
 768 1152 l 257
 896 1152 l 257
 896 1024 l 257
 768 1024 l 257
0 1152 m 257
 0 1280 l 257
 128 1280 l 257
 128 1152 l 257
 0 1152 l 257
640 1152 m 257
 640 1280 l 257
 768 1280 l 257
 768 1152 l 257
 640 1152 l 257
0 1280 m 257
 0 1408 l 257
 128 1408 l 257
 128 1280 l 257
 0 1280 l 257
128 1280 m 257
 128 1408 l 257
 256 1408 l 257
 256 1280 l 257
 128 1280 l 257
256 1280 m 257
 256 1408 l 257
 384 1408 l 257
 384 1280 l 257
 256 1280 l 257
384 1280 m 257
 384 1408 l 257
 512 1408 l 257
 512 1280 l 257
 384 1280 l 257
512 1280 m 257
 512 1408 l 257
 640 1408 l 257
 640 1280 l 257
 512 1280 l 257
EndSplineSet
Fore
SplineSet
0 0 m 1
 0 1408 l 1
 603 1408 l 1
 896 1115 l 1
 896 933 l 1
 603 640 l 1
 128 640 l 1
 128 0 l 1
 0 0 l 1
128 768 m 1
 549 768 l 1
 768 987 l 1
 768 1061 l 1
 549 1280 l 1
 128 1280 l 1
 128 768 l 1
EndSplineSet
EndChar

StartChar: char81.uni0051
Encoding: 49 81 49
GlifName: char81.uni0051
Width: 1024
VWidth: 0
Flags: HW
LayerCount: 2
Back
SplineSet
256 0 m 257
 256 128 l 257
 384 128 l 257
 384 0 l 257
 256 0 l 257
384 0 m 257
 384 128 l 257
 512 128 l 257
 512 0 l 257
 384 0 l 257
512 0 m 257
 512 128 l 257
 640 128 l 257
 640 0 l 257
 512 0 l 257
768 0 m 257
 768 128 l 257
 896 128 l 257
 896 0 l 257
 768 0 l 257
128 128 m 257
 128 256 l 257
 256 256 l 257
 256 128 l 257
 128 128 l 257
640 128 m 257
 640 256 l 257
 768 256 l 257
 768 128 l 257
 640 128 l 257
0 256 m 257
 0 384 l 257
 128 384 l 257
 128 256 l 257
 0 256 l 257
512 256 m 257
 512 384 l 257
 640 384 l 257
 640 256 l 257
 512 256 l 257
768 256 m 257
 768 384 l 257
 896 384 l 257
 896 256 l 257
 768 256 l 257
0 384 m 257
 0 512 l 257
 128 512 l 257
 128 384 l 257
 0 384 l 257
768 384 m 257
 768 512 l 257
 896 512 l 257
 896 384 l 257
 768 384 l 257
0 512 m 257
 0 640 l 257
 128 640 l 257
 128 512 l 257
 0 512 l 257
768 512 m 257
 768 640 l 257
 896 640 l 257
 896 512 l 257
 768 512 l 257
0 640 m 257
 0 768 l 257
 128 768 l 257
 128 640 l 257
 0 640 l 257
768 640 m 257
 768 768 l 257
 896 768 l 257
 896 640 l 257
 768 640 l 257
0 768 m 257
 0 896 l 257
 128 896 l 257
 128 768 l 257
 0 768 l 257
768 768 m 257
 768 896 l 257
 896 896 l 257
 896 768 l 257
 768 768 l 257
0 896 m 257
 0 1024 l 257
 128 1024 l 257
 128 896 l 257
 0 896 l 257
768 896 m 257
 768 1024 l 257
 896 1024 l 257
 896 896 l 257
 768 896 l 257
0 1024 m 257
 0 1152 l 257
 128 1152 l 257
 128 1024 l 257
 0 1024 l 257
768 1024 m 257
 768 1152 l 257
 896 1152 l 257
 896 1024 l 257
 768 1024 l 257
128 1152 m 257
 128 1280 l 257
 256 1280 l 257
 256 1152 l 257
 128 1152 l 257
640 1152 m 257
 640 1280 l 257
 768 1280 l 257
 768 1152 l 257
 640 1152 l 257
256 1280 m 257
 256 1408 l 257
 384 1408 l 257
 384 1280 l 257
 256 1280 l 257
384 1280 m 257
 384 1408 l 257
 512 1408 l 257
 512 1280 l 257
 384 1280 l 257
512 1280 m 257
 512 1408 l 257
 640 1408 l 257
 640 1280 l 257
 512 1280 l 257
EndSplineSet
Fore
SplineSet
0 293 m 1
 0 1115 l 1
 293 1408 l 1
 603 1408 l 1
 896 1115 l 1
 896 293 l 1
 795 192 l 1
 896 91 l 1
 805 0 l 1
 704 101 l 1
 603 0 l 1
 293 0 l 1
 0 293 l 1
128 347 m 1
 347 128 l 1
 549 128 l 1
 613 192 l 1
 512 293 l 1
 603 384 l 1
 704 283 l 1
 768 347 l 1
 768 1061 l 1
 549 1280 l 1
 347 1280 l 1
 128 1061 l 1
 128 347 l 1
EndSplineSet
EndChar

StartChar: char82.uni0052
Encoding: 50 82 50
GlifName: char82.uni0052
Width: 1024
VWidth: 0
Flags: HW
LayerCount: 2
Back
SplineSet
0 0 m 257
 0 128 l 257
 128 128 l 257
 128 0 l 257
 0 0 l 257
768 0 m 257
 768 128 l 257
 896 128 l 257
 896 0 l 257
 768 0 l 257
0 128 m 257
 0 256 l 257
 128 256 l 257
 128 128 l 257
 0 128 l 257
768 128 m 257
 768 256 l 257
 896 256 l 257
 896 128 l 257
 768 128 l 257
0 256 m 257
 0 384 l 257
 128 384 l 257
 128 256 l 257
 0 256 l 257
768 256 m 257
 768 384 l 257
 896 384 l 257
 896 256 l 257
 768 256 l 257
0 384 m 257
 0 512 l 257
 128 512 l 257
 128 384 l 257
 0 384 l 257
768 384 m 257
 768 512 l 257
 896 512 l 257
 896 384 l 257
 768 384 l 257
0 512 m 257
 0 640 l 257
 128 640 l 257
 128 512 l 257
 0 512 l 257
640 512 m 257
 640 640 l 257
 768 640 l 257
 768 512 l 257
 640 512 l 257
0 640 m 257
 0 768 l 257
 128 768 l 257
 128 640 l 257
 0 640 l 257
128 640 m 257
 128 768 l 257
 256 768 l 257
 256 640 l 257
 128 640 l 257
256 640 m 257
 256 768 l 257
 384 768 l 257
 384 640 l 257
 256 640 l 257
384 640 m 257
 384 768 l 257
 512 768 l 257
 512 640 l 257
 384 640 l 257
512 640 m 257
 512 768 l 257
 640 768 l 257
 640 640 l 257
 512 640 l 257
0 768 m 257
 0 896 l 257
 128 896 l 257
 128 768 l 257
 0 768 l 257
640 768 m 257
 640 896 l 257
 768 896 l 257
 768 768 l 257
 640 768 l 257
0 896 m 257
 0 1024 l 257
 128 1024 l 257
 128 896 l 257
 0 896 l 257
768 896 m 257
 768 1024 l 257
 896 1024 l 257
 896 896 l 257
 768 896 l 257
0 1024 m 257
 0 1152 l 257
 128 1152 l 257
 128 1024 l 257
 0 1024 l 257
768 1024 m 257
 768 1152 l 257
 896 1152 l 257
 896 1024 l 257
 768 1024 l 257
0 1152 m 257
 0 1280 l 257
 128 1280 l 257
 128 1152 l 257
 0 1152 l 257
640 1152 m 257
 640 1280 l 257
 768 1280 l 257
 768 1152 l 257
 640 1152 l 257
0 1280 m 257
 0 1408 l 257
 128 1408 l 257
 128 1280 l 257
 0 1280 l 257
128 1280 m 257
 128 1408 l 257
 256 1408 l 257
 256 1280 l 257
 128 1280 l 257
256 1280 m 257
 256 1408 l 257
 384 1408 l 257
 384 1280 l 257
 256 1280 l 257
384 1280 m 257
 384 1408 l 257
 512 1408 l 257
 512 1280 l 257
 384 1280 l 257
512 1280 m 257
 512 1408 l 257
 640 1408 l 257
 640 1280 l 257
 512 1280 l 257
EndSplineSet
Fore
SplineSet
0 0 m 1
 0 1408 l 1
 603 1408 l 1
 896 1115 l 1
 896 933 l 1
 667 704 l 1
 896 475 l 1
 896 0 l 1
 768 0 l 1
 768 421 l 1
 549 640 l 1
 128 640 l 1
 128 0 l 1
 0 0 l 1
128 768 m 1
 549 768 l 1
 768 987 l 1
 768 1061 l 1
 549 1280 l 1
 128 1280 l 1
 128 768 l 1
EndSplineSet
EndChar

StartChar: char83.uni0053
Encoding: 51 83 51
GlifName: char83.uni0053
Width: 1024
VWidth: 0
Flags: HW
LayerCount: 2
Back
SplineSet
256 0 m 257
 256 128 l 257
 384 128 l 257
 384 0 l 257
 256 0 l 257
384 0 m 257
 384 128 l 257
 512 128 l 257
 512 0 l 257
 384 0 l 257
512 0 m 257
 512 128 l 257
 640 128 l 257
 640 0 l 257
 512 0 l 257
128 128 m 257
 128 256 l 257
 256 256 l 257
 256 128 l 257
 128 128 l 257
640 128 m 257
 640 256 l 257
 768 256 l 257
 768 128 l 257
 640 128 l 257
0 256 m 257
 0 384 l 257
 128 384 l 257
 128 256 l 257
 0 256 l 257
768 256 m 257
 768 384 l 257
 896 384 l 257
 896 256 l 257
 768 256 l 257
768 384 m 257
 768 512 l 257
 896 512 l 257
 896 384 l 257
 768 384 l 257
640 512 m 257
 640 640 l 257
 768 640 l 257
 768 512 l 257
 640 512 l 257
256 640 m 257
 256 768 l 257
 384 768 l 257
 384 640 l 257
 256 640 l 257
384 640 m 257
 384 768 l 257
 512 768 l 257
 512 640 l 257
 384 640 l 257
512 640 m 257
 512 768 l 257
 640 768 l 257
 640 640 l 257
 512 640 l 257
128 768 m 257
 128 896 l 257
 256 896 l 257
 256 768 l 257
 128 768 l 257
0 896 m 257
 0 1024 l 257
 128 1024 l 257
 128 896 l 257
 0 896 l 257
0 1024 m 257
 0 1152 l 257
 128 1152 l 257
 128 1024 l 257
 0 1024 l 257
768 1024 m 257
 768 1152 l 257
 896 1152 l 257
 896 1024 l 257
 768 1024 l 257
128 1152 m 257
 128 1280 l 257
 256 1280 l 257
 256 1152 l 257
 128 1152 l 257
640 1152 m 257
 640 1280 l 257
 768 1280 l 257
 768 1152 l 257
 640 1152 l 257
256 1280 m 257
 256 1408 l 257
 384 1408 l 257
 384 1280 l 257
 256 1280 l 257
384 1280 m 257
 384 1408 l 257
 512 1408 l 257
 512 1280 l 257
 384 1280 l 257
512 1280 m 257
 512 1408 l 257
 640 1408 l 257
 640 1280 l 257
 512 1280 l 257
EndSplineSet
Fore
SplineSet
0 293 m 1
 91 384 l 1
 347 128 l 1
 549 128 l 1
 768 347 l 1
 768 421 l 1
 549 640 l 1
 293 640 l 1
 0 933 l 1
 0 1115 l 1
 293 1408 l 1
 603 1408 l 1
 896 1115 l 1
 805 1024 l 1
 549 1280 l 1
 347 1280 l 1
 128 1061 l 1
 128 987 l 1
 347 768 l 1
 603 768 l 1
 896 475 l 1
 896 293 l 1
 603 0 l 1
 293 0 l 1
 0 293 l 1
EndSplineSet
EndChar

StartChar: char84.uni0054
Encoding: 52 84 52
GlifName: char84.uni0054
Width: 1024
VWidth: 0
Flags: HW
LayerCount: 2
Back
SplineSet
384 0 m 257
 384 128 l 257
 512 128 l 257
 512 0 l 257
 384 0 l 257
384 128 m 257
 384 256 l 257
 512 256 l 257
 512 128 l 257
 384 128 l 257
384 256 m 257
 384 384 l 257
 512 384 l 257
 512 256 l 257
 384 256 l 257
384 384 m 257
 384 512 l 257
 512 512 l 257
 512 384 l 257
 384 384 l 257
384 512 m 257
 384 640 l 257
 512 640 l 257
 512 512 l 257
 384 512 l 257
384 640 m 257
 384 768 l 257
 512 768 l 257
 512 640 l 257
 384 640 l 257
384 768 m 257
 384 896 l 257
 512 896 l 257
 512 768 l 257
 384 768 l 257
384 896 m 257
 384 1024 l 257
 512 1024 l 257
 512 896 l 257
 384 896 l 257
384 1024 m 257
 384 1152 l 257
 512 1152 l 257
 512 1024 l 257
 384 1024 l 257
384 1152 m 257
 384 1280 l 257
 512 1280 l 257
 512 1152 l 257
 384 1152 l 257
0 1280 m 257
 0 1408 l 257
 128 1408 l 257
 128 1280 l 257
 0 1280 l 257
128 1280 m 257
 128 1408 l 257
 256 1408 l 257
 256 1280 l 257
 128 1280 l 257
256 1280 m 257
 256 1408 l 257
 384 1408 l 257
 384 1280 l 257
 256 1280 l 257
384 1280 m 257
 384 1408 l 257
 512 1408 l 257
 512 1280 l 257
 384 1280 l 257
512 1280 m 257
 512 1408 l 257
 640 1408 l 257
 640 1280 l 257
 512 1280 l 257
640 1280 m 257
 640 1408 l 257
 768 1408 l 257
 768 1280 l 257
 640 1280 l 257
768 1280 m 257
 768 1408 l 257
 896 1408 l 257
 896 1280 l 257
 768 1280 l 257
EndSplineSet
Fore
SplineSet
0 1280 m 1
 0 1408 l 1
 896 1408 l 1
 896 1280 l 1
 512 1280 l 1
 512 0 l 1
 384 0 l 1
 384 1280 l 1
 0 1280 l 1
EndSplineSet
EndChar

StartChar: char85.uni0055
Encoding: 53 85 53
GlifName: char85.uni0055
Width: 1024
VWidth: 0
Flags: HW
LayerCount: 2
Back
SplineSet
256 0 m 257
 256 128 l 257
 384 128 l 257
 384 0 l 257
 256 0 l 257
384 0 m 257
 384 128 l 257
 512 128 l 257
 512 0 l 257
 384 0 l 257
512 0 m 257
 512 128 l 257
 640 128 l 257
 640 0 l 257
 512 0 l 257
128 128 m 257
 128 256 l 257
 256 256 l 257
 256 128 l 257
 128 128 l 257
640 128 m 257
 640 256 l 257
 768 256 l 257
 768 128 l 257
 640 128 l 257
0 256 m 257
 0 384 l 257
 128 384 l 257
 128 256 l 257
 0 256 l 257
768 256 m 257
 768 384 l 257
 896 384 l 257
 896 256 l 257
 768 256 l 257
0 384 m 257
 0 512 l 257
 128 512 l 257
 128 384 l 257
 0 384 l 257
768 384 m 257
 768 512 l 257
 896 512 l 257
 896 384 l 257
 768 384 l 257
0 512 m 257
 0 640 l 257
 128 640 l 257
 128 512 l 257
 0 512 l 257
768 512 m 257
 768 640 l 257
 896 640 l 257
 896 512 l 257
 768 512 l 257
0 640 m 257
 0 768 l 257
 128 768 l 257
 128 640 l 257
 0 640 l 257
768 640 m 257
 768 768 l 257
 896 768 l 257
 896 640 l 257
 768 640 l 257
0 768 m 257
 0 896 l 257
 128 896 l 257
 128 768 l 257
 0 768 l 257
768 768 m 257
 768 896 l 257
 896 896 l 257
 896 768 l 257
 768 768 l 257
0 896 m 257
 0 1024 l 257
 128 1024 l 257
 128 896 l 257
 0 896 l 257
768 896 m 257
 768 1024 l 257
 896 1024 l 257
 896 896 l 257
 768 896 l 257
0 1024 m 257
 0 1152 l 257
 128 1152 l 257
 128 1024 l 257
 0 1024 l 257
768 1024 m 257
 768 1152 l 257
 896 1152 l 257
 896 1024 l 257
 768 1024 l 257
0 1152 m 257
 0 1280 l 257
 128 1280 l 257
 128 1152 l 257
 0 1152 l 257
768 1152 m 257
 768 1280 l 257
 896 1280 l 257
 896 1152 l 257
 768 1152 l 257
0 1280 m 257
 0 1408 l 257
 128 1408 l 257
 128 1280 l 257
 0 1280 l 257
768 1280 m 257
 768 1408 l 257
 896 1408 l 257
 896 1280 l 257
 768 1280 l 257
EndSplineSet
Fore
SplineSet
0 293 m 1
 0 1408 l 1
 128 1408 l 1
 128 347 l 1
 347 128 l 1
 549 128 l 1
 768 347 l 1
 768 1408 l 1
 896 1408 l 1
 896 293 l 1
 603 0 l 1
 293 0 l 1
 0 293 l 1
EndSplineSet
EndChar

StartChar: char86.uni0056
Encoding: 54 86 54
GlifName: char86.uni0056
Width: 1024
VWidth: 0
Flags: HW
LayerCount: 2
Back
SplineSet
384 0 m 257
 384 128 l 257
 512 128 l 257
 512 0 l 257
 384 0 l 257
256 128 m 257
 256 256 l 257
 384 256 l 257
 384 128 l 257
 256 128 l 257
512 128 m 257
 512 256 l 257
 640 256 l 257
 640 128 l 257
 512 128 l 257
128 256 m 257
 128 384 l 257
 256 384 l 257
 256 256 l 257
 128 256 l 257
640 256 m 257
 640 384 l 257
 768 384 l 257
 768 256 l 257
 640 256 l 257
0 384 m 257
 0 512 l 257
 128 512 l 257
 128 384 l 257
 0 384 l 257
768 384 m 257
 768 512 l 257
 896 512 l 257
 896 384 l 257
 768 384 l 257
0 512 m 257
 0 640 l 257
 128 640 l 257
 128 512 l 257
 0 512 l 257
768 512 m 257
 768 640 l 257
 896 640 l 257
 896 512 l 257
 768 512 l 257
0 640 m 257
 0 768 l 257
 128 768 l 257
 128 640 l 257
 0 640 l 257
768 640 m 257
 768 768 l 257
 896 768 l 257
 896 640 l 257
 768 640 l 257
0 768 m 257
 0 896 l 257
 128 896 l 257
 128 768 l 257
 0 768 l 257
768 768 m 257
 768 896 l 257
 896 896 l 257
 896 768 l 257
 768 768 l 257
0 896 m 257
 0 1024 l 257
 128 1024 l 257
 128 896 l 257
 0 896 l 257
768 896 m 257
 768 1024 l 257
 896 1024 l 257
 896 896 l 257
 768 896 l 257
0 1024 m 257
 0 1152 l 257
 128 1152 l 257
 128 1024 l 257
 0 1024 l 257
768 1024 m 257
 768 1152 l 257
 896 1152 l 257
 896 1024 l 257
 768 1024 l 257
0 1152 m 257
 0 1280 l 257
 128 1280 l 257
 128 1152 l 257
 0 1152 l 257
768 1152 m 257
 768 1280 l 257
 896 1280 l 257
 896 1152 l 257
 768 1152 l 257
0 1280 m 257
 0 1408 l 257
 128 1408 l 257
 128 1280 l 257
 0 1280 l 257
768 1280 m 257
 768 1408 l 257
 896 1408 l 257
 896 1280 l 257
 768 1280 l 257
EndSplineSet
Fore
SplineSet
0 421 m 1
 0 1408 l 1
 128 1408 l 1
 128 475 l 1
 448 155 l 1
 768 475 l 1
 768 1408 l 1
 896 1408 l 1
 896 421 l 1
 448 -27 l 1
 0 421 l 1
EndSplineSet
EndChar

StartChar: char87.uni0057
Encoding: 55 87 55
GlifName: char87.uni0057
Width: 1024
VWidth: 0
Flags: HW
LayerCount: 2
Back
SplineSet
0 0 m 257
 0 128 l 257
 128 128 l 257
 128 0 l 257
 0 0 l 257
768 0 m 257
 768 128 l 257
 896 128 l 257
 896 0 l 257
 768 0 l 257
0 128 m 257
 0 256 l 257
 128 256 l 257
 128 128 l 257
 0 128 l 257
128 128 m 257
 128 256 l 257
 256 256 l 257
 256 128 l 257
 128 128 l 257
640 128 m 257
 640 256 l 257
 768 256 l 257
 768 128 l 257
 640 128 l 257
768 128 m 257
 768 256 l 257
 896 256 l 257
 896 128 l 257
 768 128 l 257
0 256 m 257
 0 384 l 257
 128 384 l 257
 128 256 l 257
 0 256 l 257
256 256 m 257
 256 384 l 257
 384 384 l 257
 384 256 l 257
 256 256 l 257
512 256 m 257
 512 384 l 257
 640 384 l 257
 640 256 l 257
 512 256 l 257
768 256 m 257
 768 384 l 257
 896 384 l 257
 896 256 l 257
 768 256 l 257
0 384 m 257
 0 512 l 257
 128 512 l 257
 128 384 l 257
 0 384 l 257
384 384 m 257
 384 512 l 257
 512 512 l 257
 512 384 l 257
 384 384 l 257
768 384 m 257
 768 512 l 257
 896 512 l 257
 896 384 l 257
 768 384 l 257
0 512 m 257
 0 640 l 257
 128 640 l 257
 128 512 l 257
 0 512 l 257
768 512 m 257
 768 640 l 257
 896 640 l 257
 896 512 l 257
 768 512 l 257
0 640 m 257
 0 768 l 257
 128 768 l 257
 128 640 l 257
 0 640 l 257
768 640 m 257
 768 768 l 257
 896 768 l 257
 896 640 l 257
 768 640 l 257
0 768 m 257
 0 896 l 257
 128 896 l 257
 128 768 l 257
 0 768 l 257
768 768 m 257
 768 896 l 257
 896 896 l 257
 896 768 l 257
 768 768 l 257
0 896 m 257
 0 1024 l 257
 128 1024 l 257
 128 896 l 257
 0 896 l 257
768 896 m 257
 768 1024 l 257
 896 1024 l 257
 896 896 l 257
 768 896 l 257
0 1024 m 257
 0 1152 l 257
 128 1152 l 257
 128 1024 l 257
 0 1024 l 257
768 1024 m 257
 768 1152 l 257
 896 1152 l 257
 896 1024 l 257
 768 1024 l 257
0 1152 m 257
 0 1280 l 257
 128 1280 l 257
 128 1152 l 257
 0 1152 l 257
768 1152 m 257
 768 1280 l 257
 896 1280 l 257
 896 1152 l 257
 768 1152 l 257
0 1280 m 257
 0 1408 l 257
 128 1408 l 257
 128 1280 l 257
 0 1280 l 257
768 1280 m 257
 768 1408 l 257
 896 1408 l 257
 896 1280 l 257
 768 1280 l 257
EndSplineSet
Fore
SplineSet
0 0 m 1
 0 1408 l 1
 128 1408 l 1
 128 219 l 1
 448 539 l 1
 768 219 l 1
 768 1408 l 1
 896 1408 l 1
 896 0 l 1
 805 0 l 1
 448 357 l 1
 91 0 l 1
 0 0 l 1
EndSplineSet
EndChar

StartChar: char88.uni0058
Encoding: 56 88 56
GlifName: char88.uni0058
Width: 1024
VWidth: 0
Flags: HW
LayerCount: 2
Back
SplineSet
0 0 m 257
 0 128 l 257
 128 128 l 257
 128 0 l 257
 0 0 l 257
768 0 m 257
 768 128 l 257
 896 128 l 257
 896 0 l 257
 768 0 l 257
0 128 m 257
 0 256 l 257
 128 256 l 257
 128 128 l 257
 0 128 l 257
768 128 m 257
 768 256 l 257
 896 256 l 257
 896 128 l 257
 768 128 l 257
0 256 m 257
 0 384 l 257
 128 384 l 257
 128 256 l 257
 0 256 l 257
768 256 m 257
 768 384 l 257
 896 384 l 257
 896 256 l 257
 768 256 l 257
128 384 m 257
 128 512 l 257
 256 512 l 257
 256 384 l 257
 128 384 l 257
640 384 m 257
 640 512 l 257
 768 512 l 257
 768 384 l 257
 640 384 l 257
256 512 m 257
 256 640 l 257
 384 640 l 257
 384 512 l 257
 256 512 l 257
512 512 m 257
 512 640 l 257
 640 640 l 257
 640 512 l 257
 512 512 l 257
384 640 m 257
 384 768 l 257
 512 768 l 257
 512 640 l 257
 384 640 l 257
256 768 m 257
 256 896 l 257
 384 896 l 257
 384 768 l 257
 256 768 l 257
512 768 m 257
 512 896 l 257
 640 896 l 257
 640 768 l 257
 512 768 l 257
128 896 m 257
 128 1024 l 257
 256 1024 l 257
 256 896 l 257
 128 896 l 257
640 896 m 257
 640 1024 l 257
 768 1024 l 257
 768 896 l 257
 640 896 l 257
0 1024 m 257
 0 1152 l 257
 128 1152 l 257
 128 1024 l 257
 0 1024 l 257
768 1024 m 257
 768 1152 l 257
 896 1152 l 257
 896 1024 l 257
 768 1024 l 257
0 1152 m 257
 0 1280 l 257
 128 1280 l 257
 128 1152 l 257
 0 1152 l 257
768 1152 m 257
 768 1280 l 257
 896 1280 l 257
 896 1152 l 257
 768 1152 l 257
0 1280 m 257
 0 1408 l 257
 128 1408 l 257
 128 1280 l 257
 0 1280 l 257
768 1280 m 257
 768 1408 l 257
 896 1408 l 257
 896 1280 l 257
 768 1280 l 257
EndSplineSet
Fore
SplineSet
0 0 m 1
 0 347 l 1
 357 704 l 1
 0 1061 l 1
 0 1408 l 1
 128 1408 l 1
 128 1115 l 1
 448 795 l 1
 768 1115 l 1
 768 1408 l 1
 896 1408 l 1
 896 1061 l 1
 539 704 l 1
 896 347 l 1
 896 0 l 1
 768 0 l 1
 768 293 l 1
 448 613 l 1
 128 293 l 1
 128 0 l 1
 0 0 l 1
EndSplineSet
EndChar

StartChar: char89.uni0059
Encoding: 57 89 57
GlifName: char89.uni0059
Width: 1024
VWidth: 0
Flags: HW
LayerCount: 2
Back
SplineSet
384 0 m 257
 384 128 l 257
 512 128 l 257
 512 0 l 257
 384 0 l 257
384 128 m 257
 384 256 l 257
 512 256 l 257
 512 128 l 257
 384 128 l 257
384 256 m 257
 384 384 l 257
 512 384 l 257
 512 256 l 257
 384 256 l 257
384 384 m 257
 384 512 l 257
 512 512 l 257
 512 384 l 257
 384 384 l 257
384 512 m 257
 384 640 l 257
 512 640 l 257
 512 512 l 257
 384 512 l 257
384 640 m 257
 384 768 l 257
 512 768 l 257
 512 640 l 257
 384 640 l 257
256 768 m 257
 256 896 l 257
 384 896 l 257
 384 768 l 257
 256 768 l 257
512 768 m 257
 512 896 l 257
 640 896 l 257
 640 768 l 257
 512 768 l 257
128 896 m 257
 128 1024 l 257
 256 1024 l 257
 256 896 l 257
 128 896 l 257
640 896 m 257
 640 1024 l 257
 768 1024 l 257
 768 896 l 257
 640 896 l 257
0 1024 m 257
 0 1152 l 257
 128 1152 l 257
 128 1024 l 257
 0 1024 l 257
768 1024 m 257
 768 1152 l 257
 896 1152 l 257
 896 1024 l 257
 768 1024 l 257
0 1152 m 257
 0 1280 l 257
 128 1280 l 257
 128 1152 l 257
 0 1152 l 257
768 1152 m 257
 768 1280 l 257
 896 1280 l 257
 896 1152 l 257
 768 1152 l 257
0 1280 m 257
 0 1408 l 257
 128 1408 l 257
 128 1280 l 257
 0 1280 l 257
768 1280 m 257
 768 1408 l 257
 896 1408 l 257
 896 1280 l 257
 768 1280 l 257
EndSplineSet
Fore
SplineSet
0 1061 m 1
 0 1408 l 1
 128 1408 l 1
 128 1115 l 1
 448 795 l 1
 768 1115 l 1
 768 1408 l 1
 896 1408 l 1
 896 1061 l 1
 512 677 l 1
 512 0 l 1
 384 0 l 1
 384 677 l 1
 0 1061 l 1
EndSplineSet
EndChar

StartChar: char90.uni005A
Encoding: 58 90 58
GlifName: char90.uni005A
Width: 1024
VWidth: 0
Flags: HW
LayerCount: 2
Back
SplineSet
0 0 m 257
 0 128 l 257
 128 128 l 257
 128 0 l 257
 0 0 l 257
128 0 m 257
 128 128 l 257
 256 128 l 257
 256 0 l 257
 128 0 l 257
256 0 m 257
 256 128 l 257
 384 128 l 257
 384 0 l 257
 256 0 l 257
384 0 m 257
 384 128 l 257
 512 128 l 257
 512 0 l 257
 384 0 l 257
512 0 m 257
 512 128 l 257
 640 128 l 257
 640 0 l 257
 512 0 l 257
640 0 m 257
 640 128 l 257
 768 128 l 257
 768 0 l 257
 640 0 l 257
768 0 m 257
 768 128 l 257
 896 128 l 257
 896 0 l 257
 768 0 l 257
0 128 m 257
 0 256 l 257
 128 256 l 257
 128 128 l 257
 0 128 l 257
0 256 m 257
 0 384 l 257
 128 384 l 257
 128 256 l 257
 0 256 l 257
128 384 m 257
 128 512 l 257
 256 512 l 257
 256 384 l 257
 128 384 l 257
256 512 m 257
 256 640 l 257
 384 640 l 257
 384 512 l 257
 256 512 l 257
384 640 m 257
 384 768 l 257
 512 768 l 257
 512 640 l 257
 384 640 l 257
512 768 m 257
 512 896 l 257
 640 896 l 257
 640 768 l 257
 512 768 l 257
640 896 m 257
 640 1024 l 257
 768 1024 l 257
 768 896 l 257
 640 896 l 257
768 1024 m 257
 768 1152 l 257
 896 1152 l 257
 896 1024 l 257
 768 1024 l 257
768 1152 m 257
 768 1280 l 257
 896 1280 l 257
 896 1152 l 257
 768 1152 l 257
0 1280 m 257
 0 1408 l 257
 128 1408 l 257
 128 1280 l 257
 0 1280 l 257
128 1280 m 257
 128 1408 l 257
 256 1408 l 257
 256 1280 l 257
 128 1280 l 257
256 1280 m 257
 256 1408 l 257
 384 1408 l 257
 384 1280 l 257
 256 1280 l 257
384 1280 m 257
 384 1408 l 257
 512 1408 l 257
 512 1280 l 257
 384 1280 l 257
512 1280 m 257
 512 1408 l 257
 640 1408 l 257
 640 1280 l 257
 512 1280 l 257
640 1280 m 257
 640 1408 l 257
 768 1408 l 257
 768 1280 l 257
 640 1280 l 257
768 1280 m 257
 768 1408 l 257
 896 1408 l 257
 896 1280 l 257
 768 1280 l 257
EndSplineSet
Fore
SplineSet
0 0 m 1
 0 347 l 1
 768 1115 l 1
 768 1280 l 1
 0 1280 l 1
 0 1408 l 1
 896 1408 l 1
 896 1061 l 1
 128 293 l 1
 128 128 l 1
 896 128 l 1
 896 0 l 1
 0 0 l 1
EndSplineSet
EndChar

StartChar: char91.uni005B
Encoding: 59 91 59
GlifName: char91.uni005B
Width: 1024
VWidth: 0
Flags: HW
LayerCount: 2
Back
SplineSet
256 -256 m 257
 256 -128 l 257
 384 -128 l 257
 384 -256 l 257
 256 -256 l 257
384 -256 m 257
 384 -128 l 257
 512 -128 l 257
 512 -256 l 257
 384 -256 l 257
512 -256 m 257
 512 -128 l 257
 640 -128 l 257
 640 -256 l 257
 512 -256 l 257
256 -128 m 257
 256 0 l 257
 384 0 l 257
 384 -128 l 257
 256 -128 l 257
256 0 m 257
 256 128 l 257
 384 128 l 257
 384 0 l 257
 256 0 l 257
256 128 m 257
 256 256 l 257
 384 256 l 257
 384 128 l 257
 256 128 l 257
256 256 m 257
 256 384 l 257
 384 384 l 257
 384 256 l 257
 256 256 l 257
256 384 m 257
 256 512 l 257
 384 512 l 257
 384 384 l 257
 256 384 l 257
256 512 m 257
 256 640 l 257
 384 640 l 257
 384 512 l 257
 256 512 l 257
256 640 m 257
 256 768 l 257
 384 768 l 257
 384 640 l 257
 256 640 l 257
256 768 m 257
 256 896 l 257
 384 896 l 257
 384 768 l 257
 256 768 l 257
256 896 m 257
 256 1024 l 257
 384 1024 l 257
 384 896 l 257
 256 896 l 257
256 1024 m 257
 256 1152 l 257
 384 1152 l 257
 384 1024 l 257
 256 1024 l 257
256 1152 m 257
 256 1280 l 257
 384 1280 l 257
 384 1152 l 257
 256 1152 l 257
256 1280 m 257
 256 1408 l 257
 384 1408 l 257
 384 1280 l 257
 256 1280 l 257
384 1280 m 257
 384 1408 l 257
 512 1408 l 257
 512 1280 l 257
 384 1280 l 257
512 1280 m 257
 512 1408 l 257
 640 1408 l 257
 640 1280 l 257
 512 1280 l 257
EndSplineSet
Fore
SplineSet
256 -256 m 1
 256 1408 l 1
 640 1408 l 1
 640 1280 l 1
 384 1280 l 1
 384 -128 l 1
 640 -128 l 1
 640 -256 l 1
 256 -256 l 1
EndSplineSet
EndChar

StartChar: char92.uni005C
Encoding: 60 92 60
GlifName: char92.uni005C
Width: 1024
VWidth: 0
Flags: HW
LayerCount: 2
Back
SplineSet
768 256 m 257
 768 384 l 257
 896 384 l 257
 896 256 l 257
 768 256 l 257
640 384 m 257
 640 512 l 257
 768 512 l 257
 768 384 l 257
 640 384 l 257
512 512 m 257
 512 640 l 257
 640 640 l 257
 640 512 l 257
 512 512 l 257
384 640 m 257
 384 768 l 257
 512 768 l 257
 512 640 l 257
 384 640 l 257
256 768 m 257
 256 896 l 257
 384 896 l 257
 384 768 l 257
 256 768 l 257
128 896 m 257
 128 1024 l 257
 256 1024 l 257
 256 896 l 257
 128 896 l 257
0 1024 m 257
 0 1152 l 257
 128 1152 l 257
 128 1024 l 257
 0 1024 l 257
EndSplineSet
Fore
SplineSet
0 1061 m 1
 91 1152 l 1
 896 347 l 1
 805 256 l 1
 0 1061 l 1
EndSplineSet
EndChar

StartChar: char93.uni005D
Encoding: 61 93 61
GlifName: char93.uni005D
Width: 1024
VWidth: 0
Flags: HW
LayerCount: 2
Back
SplineSet
256 -256 m 257
 256 -128 l 257
 384 -128 l 257
 384 -256 l 257
 256 -256 l 257
384 -256 m 257
 384 -128 l 257
 512 -128 l 257
 512 -256 l 257
 384 -256 l 257
512 -256 m 257
 512 -128 l 257
 640 -128 l 257
 640 -256 l 257
 512 -256 l 257
512 -128 m 257
 512 0 l 257
 640 0 l 257
 640 -128 l 257
 512 -128 l 257
512 0 m 257
 512 128 l 257
 640 128 l 257
 640 0 l 257
 512 0 l 257
512 128 m 257
 512 256 l 257
 640 256 l 257
 640 128 l 257
 512 128 l 257
512 256 m 257
 512 384 l 257
 640 384 l 257
 640 256 l 257
 512 256 l 257
512 384 m 257
 512 512 l 257
 640 512 l 257
 640 384 l 257
 512 384 l 257
512 512 m 257
 512 640 l 257
 640 640 l 257
 640 512 l 257
 512 512 l 257
512 640 m 257
 512 768 l 257
 640 768 l 257
 640 640 l 257
 512 640 l 257
512 768 m 257
 512 896 l 257
 640 896 l 257
 640 768 l 257
 512 768 l 257
512 896 m 257
 512 1024 l 257
 640 1024 l 257
 640 896 l 257
 512 896 l 257
512 1024 m 257
 512 1152 l 257
 640 1152 l 257
 640 1024 l 257
 512 1024 l 257
512 1152 m 257
 512 1280 l 257
 640 1280 l 257
 640 1152 l 257
 512 1152 l 257
256 1280 m 257
 256 1408 l 257
 384 1408 l 257
 384 1280 l 257
 256 1280 l 257
384 1280 m 257
 384 1408 l 257
 512 1408 l 257
 512 1280 l 257
 384 1280 l 257
512 1280 m 257
 512 1408 l 257
 640 1408 l 257
 640 1280 l 257
 512 1280 l 257
EndSplineSet
Fore
SplineSet
256 -128 m 1
 512 -128 l 1
 512 1280 l 1
 256 1280 l 1
 256 1408 l 1
 640 1408 l 1
 640 -256 l 1
 256 -256 l 1
 256 -128 l 1
EndSplineSet
EndChar

StartChar: char94.uni005E
Encoding: 62 94 62
GlifName: char94.uni005E
Width: 1024
VWidth: 0
Flags: HW
LayerCount: 2
Back
SplineSet
128 1024 m 257
 128 1152 l 257
 256 1152 l 257
 256 1024 l 257
 128 1024 l 257
640 1024 m 257
 640 1152 l 257
 768 1152 l 257
 768 1024 l 257
 640 1024 l 257
256 1152 m 257
 256 1280 l 257
 384 1280 l 257
 384 1152 l 257
 256 1152 l 257
512 1152 m 257
 512 1280 l 257
 640 1280 l 257
 640 1152 l 257
 512 1152 l 257
384 1280 m 257
 384 1408 l 257
 512 1408 l 257
 512 1280 l 257
 384 1280 l 257
EndSplineSet
Fore
SplineSet
128 1115 m 1
 448 1435 l 1
 768 1115 l 1
 677 1024 l 1
 448 1253 l 1
 219 1024 l 1
 128 1115 l 1
EndSplineSet
EndChar

StartChar: char95.uni005F
Encoding: 63 95 63
GlifName: char95.uni005F
Width: 1024
VWidth: 0
Flags: HW
LayerCount: 2
Back
SplineSet
128 0 m 257
 128 128 l 257
 256 128 l 257
 256 0 l 257
 128 0 l 257
256 0 m 257
 256 128 l 257
 384 128 l 257
 384 0 l 257
 256 0 l 257
384 0 m 257
 384 128 l 257
 512 128 l 257
 512 0 l 257
 384 0 l 257
512 0 m 257
 512 128 l 257
 640 128 l 257
 640 0 l 257
 512 0 l 257
640 0 m 257
 640 128 l 257
 768 128 l 257
 768 0 l 257
 640 0 l 257
EndSplineSet
Fore
SplineSet
128 0 m 1
 128 128 l 1
 768 128 l 1
 768 0 l 1
 128 0 l 1
EndSplineSet
EndChar

StartChar: char96.uni0060
Encoding: 64 96 64
GlifName: char96.uni0060
Width: 1024
VWidth: 0
Flags: HW
LayerCount: 2
Back
SplineSet
512 1024 m 257
 512 1152 l 257
 640 1152 l 257
 640 1024 l 257
 512 1024 l 257
384 1152 m 257
 384 1280 l 257
 512 1280 l 257
 512 1152 l 257
 384 1152 l 257
256 1280 m 257
 256 1408 l 257
 384 1408 l 257
 384 1280 l 257
 256 1280 l 257
EndSplineSet
Fore
SplineSet
256 1317 m 1
 347 1408 l 1
 640 1115 l 1
 549 1024 l 1
 256 1317 l 1
EndSplineSet
EndChar

StartChar: char97.uni0061
Encoding: 65 97 65
GlifName: char97.uni0061
Width: 1024
VWidth: 0
Flags: HW
LayerCount: 2
Back
SplineSet
128 0 m 257
 128 128 l 257
 256 128 l 257
 256 0 l 257
 128 0 l 257
256 0 m 257
 256 128 l 257
 384 128 l 257
 384 0 l 257
 256 0 l 257
384 0 m 257
 384 128 l 257
 512 128 l 257
 512 0 l 257
 384 0 l 257
512 0 m 257
 512 128 l 257
 640 128 l 257
 640 0 l 257
 512 0 l 257
640 0 m 257
 640 128 l 257
 768 128 l 257
 768 0 l 257
 640 0 l 257
768 0 m 257
 768 128 l 257
 896 128 l 257
 896 0 l 257
 768 0 l 257
0 128 m 257
 0 256 l 257
 128 256 l 257
 128 128 l 257
 0 128 l 257
768 128 m 257
 768 256 l 257
 896 256 l 257
 896 128 l 257
 768 128 l 257
0 256 m 257
 0 384 l 257
 128 384 l 257
 128 256 l 257
 0 256 l 257
768 256 m 257
 768 384 l 257
 896 384 l 257
 896 256 l 257
 768 256 l 257
128 384 m 257
 128 512 l 257
 256 512 l 257
 256 384 l 257
 128 384 l 257
256 384 m 257
 256 512 l 257
 384 512 l 257
 384 384 l 257
 256 384 l 257
384 384 m 257
 384 512 l 257
 512 512 l 257
 512 384 l 257
 384 384 l 257
512 384 m 257
 512 512 l 257
 640 512 l 257
 640 384 l 257
 512 384 l 257
640 384 m 257
 640 512 l 257
 768 512 l 257
 768 384 l 257
 640 384 l 257
768 384 m 257
 768 512 l 257
 896 512 l 257
 896 384 l 257
 768 384 l 257
768 512 m 257
 768 640 l 257
 896 640 l 257
 896 512 l 257
 768 512 l 257
640 640 m 257
 640 768 l 257
 768 768 l 257
 768 640 l 257
 640 640 l 257
128 768 m 257
 128 896 l 257
 256 896 l 257
 256 768 l 257
 128 768 l 257
256 768 m 257
 256 896 l 257
 384 896 l 257
 384 768 l 257
 256 768 l 257
384 768 m 257
 384 896 l 257
 512 896 l 257
 512 768 l 257
 384 768 l 257
512 768 m 257
 512 896 l 257
 640 896 l 257
 640 768 l 257
 512 768 l 257
EndSplineSet
Fore
SplineSet
0 165 m 1
 0 347 l 1
 165 512 l 1
 768 512 l 1
 768 549 l 1
 549 768 l 1
 128 768 l 1
 128 896 l 1
 603 896 l 1
 896 603 l 1
 896 0 l 1
 165 0 l 1
 0 165 l 1
128 219 m 1
 219 128 l 1
 768 128 l 1
 768 384 l 1
 219 384 l 1
 128 293 l 1
 128 219 l 1
EndSplineSet
EndChar

StartChar: char98.uni0062
Encoding: 66 98 66
GlifName: char98.uni0062
Width: 1024
VWidth: 0
Flags: HW
LayerCount: 2
Back
SplineSet
0 0 m 257
 0 128 l 257
 128 128 l 257
 128 0 l 257
 0 0 l 257
128 0 m 257
 128 128 l 257
 256 128 l 257
 256 0 l 257
 128 0 l 257
256 0 m 257
 256 128 l 257
 384 128 l 257
 384 0 l 257
 256 0 l 257
384 0 m 257
 384 128 l 257
 512 128 l 257
 512 0 l 257
 384 0 l 257
512 0 m 257
 512 128 l 257
 640 128 l 257
 640 0 l 257
 512 0 l 257
0 128 m 257
 0 256 l 257
 128 256 l 257
 128 128 l 257
 0 128 l 257
640 128 m 257
 640 256 l 257
 768 256 l 257
 768 128 l 257
 640 128 l 257
0 256 m 257
 0 384 l 257
 128 384 l 257
 128 256 l 257
 0 256 l 257
768 256 m 257
 768 384 l 257
 896 384 l 257
 896 256 l 257
 768 256 l 257
0 384 m 257
 0 512 l 257
 128 512 l 257
 128 384 l 257
 0 384 l 257
768 384 m 257
 768 512 l 257
 896 512 l 257
 896 384 l 257
 768 384 l 257
0 512 m 257
 0 640 l 257
 128 640 l 257
 128 512 l 257
 0 512 l 257
768 512 m 257
 768 640 l 257
 896 640 l 257
 896 512 l 257
 768 512 l 257
0 640 m 257
 0 768 l 257
 128 768 l 257
 128 640 l 257
 0 640 l 257
640 640 m 257
 640 768 l 257
 768 768 l 257
 768 640 l 257
 640 640 l 257
0 768 m 257
 0 896 l 257
 128 896 l 257
 128 768 l 257
 0 768 l 257
128 768 m 257
 128 896 l 257
 256 896 l 257
 256 768 l 257
 128 768 l 257
256 768 m 257
 256 896 l 257
 384 896 l 257
 384 768 l 257
 256 768 l 257
384 768 m 257
 384 896 l 257
 512 896 l 257
 512 768 l 257
 384 768 l 257
512 768 m 257
 512 896 l 257
 640 896 l 257
 640 768 l 257
 512 768 l 257
0 896 m 257
 0 1024 l 257
 128 1024 l 257
 128 896 l 257
 0 896 l 257
0 1024 m 257
 0 1152 l 257
 128 1152 l 257
 128 1024 l 257
 0 1024 l 257
0 1152 m 257
 0 1280 l 257
 128 1280 l 257
 128 1152 l 257
 0 1152 l 257
0 1280 m 257
 0 1408 l 257
 128 1408 l 257
 128 1280 l 257
 0 1280 l 257
EndSplineSet
Fore
SplineSet
0 0 m 1
 0 1408 l 1
 128 1408 l 1
 128 896 l 1
 603 896 l 1
 896 603 l 1
 896 293 l 1
 603 0 l 1
 0 0 l 1
128 128 m 1025
128 128 m 1
 549 128 l 1
 768 347 l 1
 768 549 l 1
 549 768 l 1
 128 768 l 1
 128 128 l 1
EndSplineSet
EndChar

StartChar: char99.uni0063
Encoding: 67 99 67
GlifName: char99.uni0063
Width: 1024
VWidth: 0
Flags: HW
LayerCount: 2
Back
SplineSet
256 0 m 257
 256 128 l 257
 384 128 l 257
 384 0 l 257
 256 0 l 257
384 0 m 257
 384 128 l 257
 512 128 l 257
 512 0 l 257
 384 0 l 257
512 0 m 257
 512 128 l 257
 640 128 l 257
 640 0 l 257
 512 0 l 257
640 0 m 257
 640 128 l 257
 768 128 l 257
 768 0 l 257
 640 0 l 257
128 128 m 257
 128 256 l 257
 256 256 l 257
 256 128 l 257
 128 128 l 257
768 128 m 257
 768 256 l 257
 896 256 l 257
 896 128 l 257
 768 128 l 257
0 256 m 257
 0 384 l 257
 128 384 l 257
 128 256 l 257
 0 256 l 257
0 384 m 257
 0 512 l 257
 128 512 l 257
 128 384 l 257
 0 384 l 257
0 512 m 257
 0 640 l 257
 128 640 l 257
 128 512 l 257
 0 512 l 257
128 640 m 257
 128 768 l 257
 256 768 l 257
 256 640 l 257
 128 640 l 257
768 640 m 257
 768 768 l 257
 896 768 l 257
 896 640 l 257
 768 640 l 257
256 768 m 257
 256 896 l 257
 384 896 l 257
 384 768 l 257
 256 768 l 257
384 768 m 257
 384 896 l 257
 512 896 l 257
 512 768 l 257
 384 768 l 257
512 768 m 257
 512 896 l 257
 640 896 l 257
 640 768 l 257
 512 768 l 257
640 768 m 257
 640 896 l 257
 768 896 l 257
 768 768 l 257
 640 768 l 257
EndSplineSet
Fore
SplineSet
0 293 m 1
 0 603 l 1
 293 896 l 1
 731 896 l 1
 896 731 l 1
 805 640 l 1
 677 768 l 1
 347 768 l 1
 128 549 l 1
 128 347 l 1
 347 128 l 1
 677 128 l 1
 805 256 l 1
 896 165 l 1
 731 0 l 1
 293 0 l 1
 0 293 l 1
EndSplineSet
EndChar

StartChar: char100.uni0064
Encoding: 68 100 68
GlifName: char100.uni0064
Width: 1024
VWidth: 0
Flags: HW
LayerCount: 2
Back
SplineSet
256 0 m 257
 256 128 l 257
 384 128 l 257
 384 0 l 257
 256 0 l 257
384 0 m 257
 384 128 l 257
 512 128 l 257
 512 0 l 257
 384 0 l 257
512 0 m 257
 512 128 l 257
 640 128 l 257
 640 0 l 257
 512 0 l 257
640 0 m 257
 640 128 l 257
 768 128 l 257
 768 0 l 257
 640 0 l 257
768 0 m 257
 768 128 l 257
 896 128 l 257
 896 0 l 257
 768 0 l 257
128 128 m 257
 128 256 l 257
 256 256 l 257
 256 128 l 257
 128 128 l 257
768 128 m 257
 768 256 l 257
 896 256 l 257
 896 128 l 257
 768 128 l 257
0 256 m 257
 0 384 l 257
 128 384 l 257
 128 256 l 257
 0 256 l 257
768 256 m 257
 768 384 l 257
 896 384 l 257
 896 256 l 257
 768 256 l 257
0 384 m 257
 0 512 l 257
 128 512 l 257
 128 384 l 257
 0 384 l 257
768 384 m 257
 768 512 l 257
 896 512 l 257
 896 384 l 257
 768 384 l 257
0 512 m 257
 0 640 l 257
 128 640 l 257
 128 512 l 257
 0 512 l 257
768 512 m 257
 768 640 l 257
 896 640 l 257
 896 512 l 257
 768 512 l 257
128 640 m 257
 128 768 l 257
 256 768 l 257
 256 640 l 257
 128 640 l 257
768 640 m 257
 768 768 l 257
 896 768 l 257
 896 640 l 257
 768 640 l 257
256 768 m 257
 256 896 l 257
 384 896 l 257
 384 768 l 257
 256 768 l 257
384 768 m 257
 384 896 l 257
 512 896 l 257
 512 768 l 257
 384 768 l 257
512 768 m 257
 512 896 l 257
 640 896 l 257
 640 768 l 257
 512 768 l 257
640 768 m 257
 640 896 l 257
 768 896 l 257
 768 768 l 257
 640 768 l 257
768 768 m 257
 768 896 l 257
 896 896 l 257
 896 768 l 257
 768 768 l 257
768 896 m 257
 768 1024 l 257
 896 1024 l 257
 896 896 l 257
 768 896 l 257
768 1024 m 257
 768 1152 l 257
 896 1152 l 257
 896 1024 l 257
 768 1024 l 257
768 1152 m 257
 768 1280 l 257
 896 1280 l 257
 896 1152 l 257
 768 1152 l 257
768 1280 m 257
 768 1408 l 257
 896 1408 l 257
 896 1280 l 257
 768 1280 l 257
EndSplineSet
Fore
SplineSet
0 293 m 1
 0 603 l 1
 293 896 l 1
 768 896 l 1
 768 1408 l 1
 896 1408 l 1
 896 0 l 1
 293 0 l 1
 0 293 l 1
128 347 m 1
 347 128 l 1
 768 128 l 1
 768 768 l 1
 347 768 l 1
 128 549 l 1
 128 347 l 1
EndSplineSet
EndChar

StartChar: char101.uni0065
Encoding: 69 101 69
GlifName: char101.uni0065
Width: 1024
VWidth: 0
Flags: HW
LayerCount: 2
Back
SplineSet
256 0 m 257
 256 128 l 257
 384 128 l 257
 384 0 l 257
 256 0 l 257
384 0 m 257
 384 128 l 257
 512 128 l 257
 512 0 l 257
 384 0 l 257
512 0 m 257
 512 128 l 257
 640 128 l 257
 640 0 l 257
 512 0 l 257
640 0 m 257
 640 128 l 257
 768 128 l 257
 768 0 l 257
 640 0 l 257
128 128 m 257
 128 256 l 257
 256 256 l 257
 256 128 l 257
 128 128 l 257
0 256 m 257
 0 384 l 257
 128 384 l 257
 128 256 l 257
 0 256 l 257
0 384 m 257
 0 512 l 257
 128 512 l 257
 128 384 l 257
 0 384 l 257
128 384 m 257
 128 512 l 257
 256 512 l 257
 256 384 l 257
 128 384 l 257
256 384 m 257
 256 512 l 257
 384 512 l 257
 384 384 l 257
 256 384 l 257
384 384 m 257
 384 512 l 257
 512 512 l 257
 512 384 l 257
 384 384 l 257
512 384 m 257
 512 512 l 257
 640 512 l 257
 640 384 l 257
 512 384 l 257
640 384 m 257
 640 512 l 257
 768 512 l 257
 768 384 l 257
 640 384 l 257
768 384 m 257
 768 512 l 257
 896 512 l 257
 896 384 l 257
 768 384 l 257
0 512 m 257
 0 640 l 257
 128 640 l 257
 128 512 l 257
 0 512 l 257
768 512 m 257
 768 640 l 257
 896 640 l 257
 896 512 l 257
 768 512 l 257
128 640 m 257
 128 768 l 257
 256 768 l 257
 256 640 l 257
 128 640 l 257
640 640 m 257
 640 768 l 257
 768 768 l 257
 768 640 l 257
 640 640 l 257
256 768 m 257
 256 896 l 257
 384 896 l 257
 384 768 l 257
 256 768 l 257
384 768 m 257
 384 896 l 257
 512 896 l 257
 512 768 l 257
 384 768 l 257
512 768 m 257
 512 896 l 257
 640 896 l 257
 640 768 l 257
 512 768 l 257
EndSplineSet
Fore
SplineSet
0 293 m 1
 0 603 l 1
 293 896 l 1
 603 896 l 1
 896 603 l 1
 896 384 l 1
 128 384 l 1
 128 347 l 1
 347 128 l 1
 768 128 l 1
 768 0 l 1
 293 0 l 1
 0 293 l 1
128 512 m 1
 768 512 l 1
 768 549 l 1
 549 768 l 1
 347 768 l 1
 128 549 l 1
 128 512 l 1
EndSplineSet
EndChar

StartChar: char102.uni0066
Encoding: 70 102 70
GlifName: char102.uni0066
Width: 1024
VWidth: 0
Flags: HW
LayerCount: 2
Back
SplineSet
256 0 m 257
 256 128 l 257
 384 128 l 257
 384 0 l 257
 256 0 l 257
256 128 m 257
 256 256 l 257
 384 256 l 257
 384 128 l 257
 256 128 l 257
256 256 m 257
 256 384 l 257
 384 384 l 257
 384 256 l 257
 256 256 l 257
256 384 m 257
 256 512 l 257
 384 512 l 257
 384 384 l 257
 256 384 l 257
256 512 m 257
 256 640 l 257
 384 640 l 257
 384 512 l 257
 256 512 l 257
256 640 m 257
 256 768 l 257
 384 768 l 257
 384 640 l 257
 256 640 l 257
0 768 m 257
 0 896 l 257
 128 896 l 257
 128 768 l 257
 0 768 l 257
128 768 m 257
 128 896 l 257
 256 896 l 257
 256 768 l 257
 128 768 l 257
256 768 m 257
 256 896 l 257
 384 896 l 257
 384 768 l 257
 256 768 l 257
384 768 m 257
 384 896 l 257
 512 896 l 257
 512 768 l 257
 384 768 l 257
512 768 m 257
 512 896 l 257
 640 896 l 257
 640 768 l 257
 512 768 l 257
256 896 m 257
 256 1024 l 257
 384 1024 l 257
 384 896 l 257
 256 896 l 257
256 1024 m 257
 256 1152 l 257
 384 1152 l 257
 384 1024 l 257
 256 1024 l 257
384 1152 m 257
 384 1280 l 257
 512 1280 l 257
 512 1152 l 257
 384 1152 l 257
512 1280 m 257
 512 1408 l 257
 640 1408 l 257
 640 1280 l 257
 512 1280 l 257
640 1280 m 257
 640 1408 l 257
 768 1408 l 257
 768 1280 l 257
 640 1280 l 257
768 1280 m 257
 768 1408 l 257
 896 1408 l 257
 896 1280 l 257
 768 1280 l 257
EndSplineSet
Fore
SplineSet
0 768 m 1
 0 896 l 1
 256 896 l 1
 256 1115 l 1
 549 1408 l 1
 896 1408 l 1
 896 1280 l 1
 603 1280 l 1
 384 1061 l 1
 384 987 l 1
 384 896 l 1
 640 896 l 1
 640 768 l 1
 384 768 l 1
 384 0 l 1
 256 0 l 1
 256 768 l 1
 0 768 l 1
EndSplineSet
EndChar

StartChar: char103.uni0067
Encoding: 71 103 71
GlifName: char103.uni0067
Width: 1024
VWidth: 0
Flags: HW
LayerCount: 2
Back
SplineSet
256 -512 m 257
 256 -384 l 257
 384 -384 l 257
 384 -512 l 257
 256 -512 l 257
384 -512 m 257
 384 -384 l 257
 512 -384 l 257
 512 -512 l 257
 384 -512 l 257
512 -512 m 257
 512 -384 l 257
 640 -384 l 257
 640 -512 l 257
 512 -512 l 257
640 -384 m 257
 640 -256 l 257
 768 -256 l 257
 768 -384 l 257
 640 -384 l 257
768 -256 m 257
 768 -128 l 257
 896 -128 l 257
 896 -256 l 257
 768 -256 l 257
768 -128 m 257
 768 0 l 257
 896 0 l 257
 896 -128 l 257
 768 -128 l 257
256 0 m 257
 256 128 l 257
 384 128 l 257
 384 0 l 257
 256 0 l 257
384 0 m 257
 384 128 l 257
 512 128 l 257
 512 0 l 257
 384 0 l 257
512 0 m 257
 512 128 l 257
 640 128 l 257
 640 0 l 257
 512 0 l 257
640 0 m 257
 640 128 l 257
 768 128 l 257
 768 0 l 257
 640 0 l 257
768 0 m 257
 768 128 l 257
 896 128 l 257
 896 0 l 257
 768 0 l 257
128 128 m 257
 128 256 l 257
 256 256 l 257
 256 128 l 257
 128 128 l 257
768 128 m 257
 768 256 l 257
 896 256 l 257
 896 128 l 257
 768 128 l 257
0 256 m 257
 0 384 l 257
 128 384 l 257
 128 256 l 257
 0 256 l 257
768 256 m 257
 768 384 l 257
 896 384 l 257
 896 256 l 257
 768 256 l 257
0 384 m 257
 0 512 l 257
 128 512 l 257
 128 384 l 257
 0 384 l 257
768 384 m 257
 768 512 l 257
 896 512 l 257
 896 384 l 257
 768 384 l 257
0 512 m 257
 0 640 l 257
 128 640 l 257
 128 512 l 257
 0 512 l 257
768 512 m 257
 768 640 l 257
 896 640 l 257
 896 512 l 257
 768 512 l 257
128 640 m 257
 128 768 l 257
 256 768 l 257
 256 640 l 257
 128 640 l 257
768 640 m 257
 768 768 l 257
 896 768 l 257
 896 640 l 257
 768 640 l 257
256 768 m 257
 256 896 l 257
 384 896 l 257
 384 768 l 257
 256 768 l 257
384 768 m 257
 384 896 l 257
 512 896 l 257
 512 768 l 257
 384 768 l 257
512 768 m 257
 512 896 l 257
 640 896 l 257
 640 768 l 257
 512 768 l 257
640 768 m 257
 640 896 l 257
 768 896 l 257
 768 768 l 257
 640 768 l 257
768 768 m 257
 768 896 l 257
 896 896 l 257
 896 768 l 257
 768 768 l 257
EndSplineSet
Fore
SplineSet
0 293 m 1
 0 603 l 1
 293 896 l 1
 896 896 l 1
 896 -219 l 1
 603 -512 l 1
 256 -512 l 1
 256 -384 l 1
 549 -384 l 1
 768 -165 l 1
 768 0 l 1
 293 0 l 1
 0 293 l 1
128 347 m 1
 347 128 l 1
 768 128 l 1
 768 768 l 1
 347 768 l 1
 128 549 l 1
 128 347 l 1
EndSplineSet
EndChar

StartChar: char104.uni0068
Encoding: 72 104 72
GlifName: char104.uni0068
Width: 1024
VWidth: 0
Flags: HW
LayerCount: 2
Back
SplineSet
0 0 m 257
 0 128 l 257
 128 128 l 257
 128 0 l 257
 0 0 l 257
768 0 m 257
 768 128 l 257
 896 128 l 257
 896 0 l 257
 768 0 l 257
0 128 m 257
 0 256 l 257
 128 256 l 257
 128 128 l 257
 0 128 l 257
768 128 m 257
 768 256 l 257
 896 256 l 257
 896 128 l 257
 768 128 l 257
0 256 m 257
 0 384 l 257
 128 384 l 257
 128 256 l 257
 0 256 l 257
768 256 m 257
 768 384 l 257
 896 384 l 257
 896 256 l 257
 768 256 l 257
0 384 m 257
 0 512 l 257
 128 512 l 257
 128 384 l 257
 0 384 l 257
768 384 m 257
 768 512 l 257
 896 512 l 257
 896 384 l 257
 768 384 l 257
0 512 m 257
 0 640 l 257
 128 640 l 257
 128 512 l 257
 0 512 l 257
768 512 m 257
 768 640 l 257
 896 640 l 257
 896 512 l 257
 768 512 l 257
0 640 m 257
 0 768 l 257
 128 768 l 257
 128 640 l 257
 0 640 l 257
640 640 m 257
 640 768 l 257
 768 768 l 257
 768 640 l 257
 640 640 l 257
0 768 m 257
 0 896 l 257
 128 896 l 257
 128 768 l 257
 0 768 l 257
128 768 m 257
 128 896 l 257
 256 896 l 257
 256 768 l 257
 128 768 l 257
256 768 m 257
 256 896 l 257
 384 896 l 257
 384 768 l 257
 256 768 l 257
384 768 m 257
 384 896 l 257
 512 896 l 257
 512 768 l 257
 384 768 l 257
512 768 m 257
 512 896 l 257
 640 896 l 257
 640 768 l 257
 512 768 l 257
0 896 m 257
 0 1024 l 257
 128 1024 l 257
 128 896 l 257
 0 896 l 257
0 1024 m 257
 0 1152 l 257
 128 1152 l 257
 128 1024 l 257
 0 1024 l 257
0 1152 m 257
 0 1280 l 257
 128 1280 l 257
 128 1152 l 257
 0 1152 l 257
0 1280 m 257
 0 1408 l 257
 128 1408 l 257
 128 1280 l 257
 0 1280 l 257
EndSplineSet
Fore
SplineSet
0 0 m 1
 0 1408 l 1
 128 1408 l 1
 128 896 l 1
 603 896 l 1
 896 603 l 1
 896 0 l 1
 768 0 l 1
 768 549 l 1
 549 768 l 1
 128 768 l 1
 128 0 l 1
 0 0 l 1
EndSplineSet
EndChar

StartChar: char105.uni0069
Encoding: 73 105 73
GlifName: char105.uni0069
Width: 1024
VWidth: 0
Flags: HW
LayerCount: 2
Back
SplineSet
0 0 m 257
 0 128 l 257
 128 128 l 257
 128 0 l 257
 0 0 l 257
128 0 m 257
 128 128 l 257
 256 128 l 257
 256 0 l 257
 128 0 l 257
256 0 m 257
 256 128 l 257
 384 128 l 257
 384 0 l 257
 256 0 l 257
384 0 m 257
 384 128 l 257
 512 128 l 257
 512 0 l 257
 384 0 l 257
512 0 m 257
 512 128 l 257
 640 128 l 257
 640 0 l 257
 512 0 l 257
640 0 m 257
 640 128 l 257
 768 128 l 257
 768 0 l 257
 640 0 l 257
768 0 m 257
 768 128 l 257
 896 128 l 257
 896 0 l 257
 768 0 l 257
384 128 m 257
 384 256 l 257
 512 256 l 257
 512 128 l 257
 384 128 l 257
384 256 m 257
 384 384 l 257
 512 384 l 257
 512 256 l 257
 384 256 l 257
384 384 m 257
 384 512 l 257
 512 512 l 257
 512 384 l 257
 384 384 l 257
384 512 m 257
 384 640 l 257
 512 640 l 257
 512 512 l 257
 384 512 l 257
384 640 m 257
 384 768 l 257
 512 768 l 257
 512 640 l 257
 384 640 l 257
128 768 m 257
 128 896 l 257
 256 896 l 257
 256 768 l 257
 128 768 l 257
256 768 m 257
 256 896 l 257
 384 896 l 257
 384 768 l 257
 256 768 l 257
384 768 m 257
 384 896 l 257
 512 896 l 257
 512 768 l 257
 384 768 l 257
384 1152 m 257
 384 1280 l 257
 512 1280 l 257
 512 1152 l 257
 384 1152 l 257
EndSplineSet
Fore
SplineSet
0 0 m 1
 0 128 l 1
 384 128 l 1
 384 768 l 1
 128 768 l 1
 128 896 l 1
 512 896 l 1
 512 128 l 1
 896 128 l 1
 896 0 l 1
 0 0 l 1
384 1152 m 1
 384 1280 l 1
 512 1280 l 1
 512 1152 l 1
 384 1152 l 1
EndSplineSet
EndChar

StartChar: char106.uni006A
Encoding: 74 106 74
GlifName: char106.uni006A
Width: 1024
VWidth: 0
Flags: HW
LayerCount: 2
Back
SplineSet
128 -512 m 257
 128 -384 l 257
 256 -384 l 257
 256 -512 l 257
 128 -512 l 257
256 -512 m 257
 256 -384 l 257
 384 -384 l 257
 384 -512 l 257
 256 -512 l 257
384 -512 m 257
 384 -384 l 257
 512 -384 l 257
 512 -512 l 257
 384 -512 l 257
512 -384 m 257
 512 -256 l 257
 640 -256 l 257
 640 -384 l 257
 512 -384 l 257
640 -256 m 257
 640 -128 l 257
 768 -128 l 257
 768 -256 l 257
 640 -256 l 257
640 -128 m 257
 640 0 l 257
 768 0 l 257
 768 -128 l 257
 640 -128 l 257
640 0 m 257
 640 128 l 257
 768 128 l 257
 768 0 l 257
 640 0 l 257
640 128 m 257
 640 256 l 257
 768 256 l 257
 768 128 l 257
 640 128 l 257
640 256 m 257
 640 384 l 257
 768 384 l 257
 768 256 l 257
 640 256 l 257
640 384 m 257
 640 512 l 257
 768 512 l 257
 768 384 l 257
 640 384 l 257
640 512 m 257
 640 640 l 257
 768 640 l 257
 768 512 l 257
 640 512 l 257
640 640 m 257
 640 768 l 257
 768 768 l 257
 768 640 l 257
 640 640 l 257
384 768 m 257
 384 896 l 257
 512 896 l 257
 512 768 l 257
 384 768 l 257
512 768 m 257
 512 896 l 257
 640 896 l 257
 640 768 l 257
 512 768 l 257
640 768 m 257
 640 896 l 257
 768 896 l 257
 768 768 l 257
 640 768 l 257
640 1152 m 257
 640 1280 l 257
 768 1280 l 257
 768 1152 l 257
 640 1152 l 257
EndSplineSet
Fore
SplineSet
128 -384 m 1
 421 -384 l 1
 640 -165 l 1
 640 768 l 1
 384 768 l 1
 384 896 l 1
 768 896 l 1
 768 -219 l 1
 475 -512 l 1
 128 -512 l 1
 128 -384 l 1
640 1152 m 1
 640 1280 l 1
 768 1280 l 1
 768 1152 l 1
 640 1152 l 1
EndSplineSet
EndChar

StartChar: char107.uni006B
Encoding: 75 107 75
GlifName: char107.uni006B
Width: 1024
VWidth: 0
Flags: HW
LayerCount: 2
Back
SplineSet
128 0 m 257
 128 128 l 257
 256 128 l 257
 256 0 l 257
 128 0 l 257
640 0 m 257
 640 128 l 257
 768 128 l 257
 768 0 l 257
 640 0 l 257
128 128 m 257
 128 256 l 257
 256 256 l 257
 256 128 l 257
 128 128 l 257
512 128 m 257
 512 256 l 257
 640 256 l 257
 640 128 l 257
 512 128 l 257
128 256 m 257
 128 384 l 257
 256 384 l 257
 256 256 l 257
 128 256 l 257
384 256 m 257
 384 384 l 257
 512 384 l 257
 512 256 l 257
 384 256 l 257
128 384 m 257
 128 512 l 257
 256 512 l 257
 256 384 l 257
 128 384 l 257
256 384 m 257
 256 512 l 257
 384 512 l 257
 384 384 l 257
 256 384 l 257
128 512 m 257
 128 640 l 257
 256 640 l 257
 256 512 l 257
 128 512 l 257
384 512 m 257
 384 640 l 257
 512 640 l 257
 512 512 l 257
 384 512 l 257
128 640 m 257
 128 768 l 257
 256 768 l 257
 256 640 l 257
 128 640 l 257
512 640 m 257
 512 768 l 257
 640 768 l 257
 640 640 l 257
 512 640 l 257
128 768 m 257
 128 896 l 257
 256 896 l 257
 256 768 l 257
 128 768 l 257
640 768 m 257
 640 896 l 257
 768 896 l 257
 768 768 l 257
 640 768 l 257
128 896 m 257
 128 1024 l 257
 256 1024 l 257
 256 896 l 257
 128 896 l 257
128 1024 m 257
 128 1152 l 257
 256 1152 l 257
 256 1024 l 257
 128 1024 l 257
128 1152 m 257
 128 1280 l 257
 256 1280 l 257
 256 1152 l 257
 128 1152 l 257
128 1280 m 257
 128 1408 l 257
 256 1408 l 257
 256 1280 l 257
 128 1280 l 257
EndSplineSet
Fore
SplineSet
128 0 m 1
 128 1408 l 1
 256 1408 l 1
 256 512 l 1
 293 512 l 1
 677 896 l 1
 768 805 l 1
 411 448 l 1
 768 91 l 1
 677 0 l 1
 293 384 l 1
 256 384 l 1
 256 0 l 1
 128 0 l 1
EndSplineSet
EndChar

StartChar: char108.uni006C
Encoding: 76 108 76
GlifName: char108.uni006C
Width: 1024
VWidth: 0
Flags: HW
LayerCount: 2
Back
SplineSet
0 0 m 257
 0 128 l 257
 128 128 l 257
 128 0 l 257
 0 0 l 257
128 0 m 257
 128 128 l 257
 256 128 l 257
 256 0 l 257
 128 0 l 257
256 0 m 257
 256 128 l 257
 384 128 l 257
 384 0 l 257
 256 0 l 257
384 0 m 257
 384 128 l 257
 512 128 l 257
 512 0 l 257
 384 0 l 257
512 0 m 257
 512 128 l 257
 640 128 l 257
 640 0 l 257
 512 0 l 257
640 0 m 257
 640 128 l 257
 768 128 l 257
 768 0 l 257
 640 0 l 257
768 0 m 257
 768 128 l 257
 896 128 l 257
 896 0 l 257
 768 0 l 257
384 128 m 257
 384 256 l 257
 512 256 l 257
 512 128 l 257
 384 128 l 257
384 256 m 257
 384 384 l 257
 512 384 l 257
 512 256 l 257
 384 256 l 257
384 384 m 257
 384 512 l 257
 512 512 l 257
 512 384 l 257
 384 384 l 257
384 512 m 257
 384 640 l 257
 512 640 l 257
 512 512 l 257
 384 512 l 257
384 640 m 257
 384 768 l 257
 512 768 l 257
 512 640 l 257
 384 640 l 257
384 768 m 257
 384 896 l 257
 512 896 l 257
 512 768 l 257
 384 768 l 257
384 896 m 257
 384 1024 l 257
 512 1024 l 257
 512 896 l 257
 384 896 l 257
384 1024 m 257
 384 1152 l 257
 512 1152 l 257
 512 1024 l 257
 384 1024 l 257
384 1152 m 257
 384 1280 l 257
 512 1280 l 257
 512 1152 l 257
 384 1152 l 257
128 1280 m 257
 128 1408 l 257
 256 1408 l 257
 256 1280 l 257
 128 1280 l 257
256 1280 m 257
 256 1408 l 257
 384 1408 l 257
 384 1280 l 257
 256 1280 l 257
384 1280 m 257
 384 1408 l 257
 512 1408 l 257
 512 1280 l 257
 384 1280 l 257
EndSplineSet
Fore
SplineSet
0 0 m 1
 0 128 l 1
 384 128 l 1
 384 1280 l 1
 128 1280 l 1
 128 1408 l 1
 512 1408 l 1
 512 128 l 1
 896 128 l 1
 896 0 l 1
 0 0 l 1
EndSplineSet
EndChar

StartChar: char109.uni006D
Encoding: 77 109 77
GlifName: char109.uni006D
Width: 1024
VWidth: 0
Flags: HW
LayerCount: 2
Back
SplineSet
0 0 m 257
 0 128 l 257
 128 128 l 257
 128 0 l 257
 0 0 l 257
384 0 m 257
 384 128 l 257
 512 128 l 257
 512 0 l 257
 384 0 l 257
768 0 m 257
 768 128 l 257
 896 128 l 257
 896 0 l 257
 768 0 l 257
0 128 m 257
 0 256 l 257
 128 256 l 257
 128 128 l 257
 0 128 l 257
384 128 m 257
 384 256 l 257
 512 256 l 257
 512 128 l 257
 384 128 l 257
768 128 m 257
 768 256 l 257
 896 256 l 257
 896 128 l 257
 768 128 l 257
0 256 m 257
 0 384 l 257
 128 384 l 257
 128 256 l 257
 0 256 l 257
384 256 m 257
 384 384 l 257
 512 384 l 257
 512 256 l 257
 384 256 l 257
768 256 m 257
 768 384 l 257
 896 384 l 257
 896 256 l 257
 768 256 l 257
0 384 m 257
 0 512 l 257
 128 512 l 257
 128 384 l 257
 0 384 l 257
384 384 m 257
 384 512 l 257
 512 512 l 257
 512 384 l 257
 384 384 l 257
768 384 m 257
 768 512 l 257
 896 512 l 257
 896 384 l 257
 768 384 l 257
0 512 m 257
 0 640 l 257
 128 640 l 257
 128 512 l 257
 0 512 l 257
384 512 m 257
 384 640 l 257
 512 640 l 257
 512 512 l 257
 384 512 l 257
768 512 m 257
 768 640 l 257
 896 640 l 257
 896 512 l 257
 768 512 l 257
0 640 m 257
 0 768 l 257
 128 768 l 257
 128 640 l 257
 0 640 l 257
384 640 m 257
 384 768 l 257
 512 768 l 257
 512 640 l 257
 384 640 l 257
768 640 m 257
 768 768 l 257
 896 768 l 257
 896 640 l 257
 768 640 l 257
128 768 m 257
 128 896 l 257
 256 896 l 257
 256 768 l 257
 128 768 l 257
256 768 m 257
 256 896 l 257
 384 896 l 257
 384 768 l 257
 256 768 l 257
512 768 m 257
 512 896 l 257
 640 896 l 257
 640 768 l 257
 512 768 l 257
640 768 m 257
 640 896 l 257
 768 896 l 257
 768 768 l 257
 640 768 l 257
EndSplineSet
Fore
SplineSet
0 0 m 5
 0 731 l 5
 165 896 l 5
 347 896 l 5
 448 795 l 5
 549 896 l 5
 731 896 l 5
 896 731 l 5
 896 0 l 5
 768 0 l 5
 768 677 l 5
 677 768 l 5
 603 768 l 5
 512 677 l 5
 512 0 l 5
 384 0 l 5
 384 677 l 5
 293 768 l 5
 219 768 l 5
 128 677 l 5
 128 0 l 5
 0 0 l 5
EndSplineSet
EndChar

StartChar: char110.uni006E
Encoding: 78 110 78
GlifName: char110.uni006E
Width: 1024
VWidth: 0
Flags: HW
LayerCount: 2
Back
SplineSet
0 0 m 257
 0 128 l 257
 128 128 l 257
 128 0 l 257
 0 0 l 257
768 0 m 257
 768 128 l 257
 896 128 l 257
 896 0 l 257
 768 0 l 257
0 128 m 257
 0 256 l 257
 128 256 l 257
 128 128 l 257
 0 128 l 257
768 128 m 257
 768 256 l 257
 896 256 l 257
 896 128 l 257
 768 128 l 257
0 256 m 257
 0 384 l 257
 128 384 l 257
 128 256 l 257
 0 256 l 257
768 256 m 257
 768 384 l 257
 896 384 l 257
 896 256 l 257
 768 256 l 257
0 384 m 257
 0 512 l 257
 128 512 l 257
 128 384 l 257
 0 384 l 257
768 384 m 257
 768 512 l 257
 896 512 l 257
 896 384 l 257
 768 384 l 257
0 512 m 257
 0 640 l 257
 128 640 l 257
 128 512 l 257
 0 512 l 257
768 512 m 257
 768 640 l 257
 896 640 l 257
 896 512 l 257
 768 512 l 257
0 640 m 257
 0 768 l 257
 128 768 l 257
 128 640 l 257
 0 640 l 257
640 640 m 257
 640 768 l 257
 768 768 l 257
 768 640 l 257
 640 640 l 257
0 768 m 257
 0 896 l 257
 128 896 l 257
 128 768 l 257
 0 768 l 257
128 768 m 257
 128 896 l 257
 256 896 l 257
 256 768 l 257
 128 768 l 257
256 768 m 257
 256 896 l 257
 384 896 l 257
 384 768 l 257
 256 768 l 257
384 768 m 257
 384 896 l 257
 512 896 l 257
 512 768 l 257
 384 768 l 257
512 768 m 257
 512 896 l 257
 640 896 l 257
 640 768 l 257
 512 768 l 257
EndSplineSet
Fore
SplineSet
0 0 m 1
 0 896 l 1
 603 896 l 1
 896 603 l 1
 896 0 l 1
 768 0 l 1
 768 549 l 1
 549 768 l 1
 128 768 l 1
 128 0 l 1
 0 0 l 1
EndSplineSet
EndChar

StartChar: char111.uni006F
Encoding: 79 111 79
GlifName: char111.uni006F
Width: 1024
VWidth: 0
Flags: HW
LayerCount: 2
Back
SplineSet
256 0 m 257
 256 128 l 257
 384 128 l 257
 384 0 l 257
 256 0 l 257
384 0 m 257
 384 128 l 257
 512 128 l 257
 512 0 l 257
 384 0 l 257
512 0 m 257
 512 128 l 257
 640 128 l 257
 640 0 l 257
 512 0 l 257
128 128 m 257
 128 256 l 257
 256 256 l 257
 256 128 l 257
 128 128 l 257
640 128 m 257
 640 256 l 257
 768 256 l 257
 768 128 l 257
 640 128 l 257
0 256 m 257
 0 384 l 257
 128 384 l 257
 128 256 l 257
 0 256 l 257
768 256 m 257
 768 384 l 257
 896 384 l 257
 896 256 l 257
 768 256 l 257
0 384 m 257
 0 512 l 257
 128 512 l 257
 128 384 l 257
 0 384 l 257
768 384 m 257
 768 512 l 257
 896 512 l 257
 896 384 l 257
 768 384 l 257
0 512 m 257
 0 640 l 257
 128 640 l 257
 128 512 l 257
 0 512 l 257
768 512 m 257
 768 640 l 257
 896 640 l 257
 896 512 l 257
 768 512 l 257
128 640 m 257
 128 768 l 257
 256 768 l 257
 256 640 l 257
 128 640 l 257
640 640 m 257
 640 768 l 257
 768 768 l 257
 768 640 l 257
 640 640 l 257
256 768 m 257
 256 896 l 257
 384 896 l 257
 384 768 l 257
 256 768 l 257
384 768 m 257
 384 896 l 257
 512 896 l 257
 512 768 l 257
 384 768 l 257
512 768 m 257
 512 896 l 257
 640 896 l 257
 640 768 l 257
 512 768 l 257
EndSplineSet
Fore
SplineSet
0 293 m 1
 0 603 l 1
 293 896 l 1
 603 896 l 1
 896 603 l 1
 896 293 l 1
 603 0 l 1
 293 0 l 1
 0 293 l 1
128 347 m 1
 347 128 l 1
 549 128 l 1
 768 347 l 1
 768 549 l 1
 549 768 l 1
 347 768 l 1
 128 549 l 1
 128 347 l 1
EndSplineSet
EndChar

StartChar: char112.uni0070
Encoding: 80 112 80
GlifName: char112.uni0070
Width: 1024
VWidth: 0
Flags: HW
LayerCount: 2
Back
SplineSet
0 -512 m 257
 0 -384 l 257
 128 -384 l 257
 128 -512 l 257
 0 -512 l 257
0 -384 m 257
 0 -256 l 257
 128 -256 l 257
 128 -384 l 257
 0 -384 l 257
0 -256 m 257
 0 -128 l 257
 128 -128 l 257
 128 -256 l 257
 0 -256 l 257
0 -128 m 257
 0 0 l 257
 128 0 l 257
 128 -128 l 257
 0 -128 l 257
0 0 m 257
 0 128 l 257
 128 128 l 257
 128 0 l 257
 0 0 l 257
128 0 m 257
 128 128 l 257
 256 128 l 257
 256 0 l 257
 128 0 l 257
256 0 m 257
 256 128 l 257
 384 128 l 257
 384 0 l 257
 256 0 l 257
384 0 m 257
 384 128 l 257
 512 128 l 257
 512 0 l 257
 384 0 l 257
512 0 m 257
 512 128 l 257
 640 128 l 257
 640 0 l 257
 512 0 l 257
0 128 m 257
 0 256 l 257
 128 256 l 257
 128 128 l 257
 0 128 l 257
640 128 m 257
 640 256 l 257
 768 256 l 257
 768 128 l 257
 640 128 l 257
0 256 m 257
 0 384 l 257
 128 384 l 257
 128 256 l 257
 0 256 l 257
768 256 m 257
 768 384 l 257
 896 384 l 257
 896 256 l 257
 768 256 l 257
0 384 m 257
 0 512 l 257
 128 512 l 257
 128 384 l 257
 0 384 l 257
768 384 m 257
 768 512 l 257
 896 512 l 257
 896 384 l 257
 768 384 l 257
0 512 m 257
 0 640 l 257
 128 640 l 257
 128 512 l 257
 0 512 l 257
768 512 m 257
 768 640 l 257
 896 640 l 257
 896 512 l 257
 768 512 l 257
0 640 m 257
 0 768 l 257
 128 768 l 257
 128 640 l 257
 0 640 l 257
640 640 m 257
 640 768 l 257
 768 768 l 257
 768 640 l 257
 640 640 l 257
0 768 m 257
 0 896 l 257
 128 896 l 257
 128 768 l 257
 0 768 l 257
128 768 m 257
 128 896 l 257
 256 896 l 257
 256 768 l 257
 128 768 l 257
256 768 m 257
 256 896 l 257
 384 896 l 257
 384 768 l 257
 256 768 l 257
384 768 m 257
 384 896 l 257
 512 896 l 257
 512 768 l 257
 384 768 l 257
512 768 m 257
 512 896 l 257
 640 896 l 257
 640 768 l 257
 512 768 l 257
EndSplineSet
Fore
SplineSet
0 -512 m 1
 0 896 l 1
 603 896 l 1
 896 603 l 1
 896 293 l 1
 603 0 l 1
 128 0 l 1
 128 -512 l 1
 0 -512 l 1
128 128 m 1
 549 128 l 1
 768 347 l 1
 768 549 l 1
 549 768 l 1
 128 768 l 1
 128 128 l 1
EndSplineSet
EndChar

StartChar: char113.uni0071
Encoding: 81 113 81
GlifName: char113.uni0071
Width: 1024
VWidth: 0
Flags: HW
LayerCount: 2
Back
SplineSet
768 -512 m 257
 768 -384 l 257
 896 -384 l 257
 896 -512 l 257
 768 -512 l 257
768 -384 m 257
 768 -256 l 257
 896 -256 l 257
 896 -384 l 257
 768 -384 l 257
768 -256 m 257
 768 -128 l 257
 896 -128 l 257
 896 -256 l 257
 768 -256 l 257
768 -128 m 257
 768 0 l 257
 896 0 l 257
 896 -128 l 257
 768 -128 l 257
256 0 m 257
 256 128 l 257
 384 128 l 257
 384 0 l 257
 256 0 l 257
384 0 m 257
 384 128 l 257
 512 128 l 257
 512 0 l 257
 384 0 l 257
512 0 m 257
 512 128 l 257
 640 128 l 257
 640 0 l 257
 512 0 l 257
640 0 m 257
 640 128 l 257
 768 128 l 257
 768 0 l 257
 640 0 l 257
768 0 m 257
 768 128 l 257
 896 128 l 257
 896 0 l 257
 768 0 l 257
128 128 m 257
 128 256 l 257
 256 256 l 257
 256 128 l 257
 128 128 l 257
768 128 m 257
 768 256 l 257
 896 256 l 257
 896 128 l 257
 768 128 l 257
0 256 m 257
 0 384 l 257
 128 384 l 257
 128 256 l 257
 0 256 l 257
768 256 m 257
 768 384 l 257
 896 384 l 257
 896 256 l 257
 768 256 l 257
0 384 m 257
 0 512 l 257
 128 512 l 257
 128 384 l 257
 0 384 l 257
768 384 m 257
 768 512 l 257
 896 512 l 257
 896 384 l 257
 768 384 l 257
0 512 m 257
 0 640 l 257
 128 640 l 257
 128 512 l 257
 0 512 l 257
768 512 m 257
 768 640 l 257
 896 640 l 257
 896 512 l 257
 768 512 l 257
128 640 m 257
 128 768 l 257
 256 768 l 257
 256 640 l 257
 128 640 l 257
768 640 m 257
 768 768 l 257
 896 768 l 257
 896 640 l 257
 768 640 l 257
256 768 m 257
 256 896 l 257
 384 896 l 257
 384 768 l 257
 256 768 l 257
384 768 m 257
 384 896 l 257
 512 896 l 257
 512 768 l 257
 384 768 l 257
512 768 m 257
 512 896 l 257
 640 896 l 257
 640 768 l 257
 512 768 l 257
640 768 m 257
 640 896 l 257
 768 896 l 257
 768 768 l 257
 640 768 l 257
768 768 m 257
 768 896 l 257
 896 896 l 257
 896 768 l 257
 768 768 l 257
EndSplineSet
Fore
SplineSet
0 293 m 1
 0 603 l 1
 293 896 l 1
 896 896 l 1
 896 -512 l 1
 768 -512 l 1
 768 0 l 1
 293 0 l 1
 0 293 l 1
128 347 m 1
 347 128 l 1
 768 128 l 1
 768 768 l 1
 347 768 l 1
 128 549 l 1
 128 347 l 1
EndSplineSet
EndChar

StartChar: char114.uni0072
Encoding: 82 114 82
GlifName: char114.uni0072
Width: 1024
VWidth: 0
Flags: HW
LayerCount: 2
Back
SplineSet
0 0 m 257
 0 128 l 257
 128 128 l 257
 128 0 l 257
 0 0 l 257
0 128 m 257
 0 256 l 257
 128 256 l 257
 128 128 l 257
 0 128 l 257
0 256 m 257
 0 384 l 257
 128 384 l 257
 128 256 l 257
 0 256 l 257
0 384 m 257
 0 512 l 257
 128 512 l 257
 128 384 l 257
 0 384 l 257
0 512 m 257
 0 640 l 257
 128 640 l 257
 128 512 l 257
 0 512 l 257
768 512 m 257
 768 640 l 257
 896 640 l 257
 896 512 l 257
 768 512 l 257
0 640 m 257
 0 768 l 257
 128 768 l 257
 128 640 l 257
 0 640 l 257
640 640 m 257
 640 768 l 257
 768 768 l 257
 768 640 l 257
 640 640 l 257
0 768 m 257
 0 896 l 257
 128 896 l 257
 128 768 l 257
 0 768 l 257
128 768 m 257
 128 896 l 257
 256 896 l 257
 256 768 l 257
 128 768 l 257
256 768 m 257
 256 896 l 257
 384 896 l 257
 384 768 l 257
 256 768 l 257
384 768 m 257
 384 896 l 257
 512 896 l 257
 512 768 l 257
 384 768 l 257
512 768 m 257
 512 896 l 257
 640 896 l 257
 640 768 l 257
 512 768 l 257
EndSplineSet
Fore
SplineSet
0 0 m 1
 0 896 l 1
 603 896 l 1
 896 603 l 1
 805 512 l 1
 549 768 l 1
 128 768 l 1
 128 0 l 1
 0 0 l 1
EndSplineSet
EndChar

StartChar: char115.uni0073
Encoding: 83 115 83
GlifName: char115.uni0073
Width: 1024
VWidth: 0
Flags: HW
LayerCount: 2
Back
SplineSet
128 0 m 257
 128 128 l 257
 256 128 l 257
 256 0 l 257
 128 0 l 257
256 0 m 257
 256 128 l 257
 384 128 l 257
 384 0 l 257
 256 0 l 257
384 0 m 257
 384 128 l 257
 512 128 l 257
 512 0 l 257
 384 0 l 257
512 0 m 257
 512 128 l 257
 640 128 l 257
 640 0 l 257
 512 0 l 257
640 128 m 257
 640 256 l 257
 768 256 l 257
 768 128 l 257
 640 128 l 257
768 256 m 257
 768 384 l 257
 896 384 l 257
 896 256 l 257
 768 256 l 257
128 384 m 257
 128 512 l 257
 256 512 l 257
 256 384 l 257
 128 384 l 257
256 384 m 257
 256 512 l 257
 384 512 l 257
 384 384 l 257
 256 384 l 257
384 384 m 257
 384 512 l 257
 512 512 l 257
 512 384 l 257
 384 384 l 257
512 384 m 257
 512 512 l 257
 640 512 l 257
 640 384 l 257
 512 384 l 257
640 384 m 257
 640 512 l 257
 768 512 l 257
 768 384 l 257
 640 384 l 257
0 512 m 257
 0 640 l 257
 128 640 l 257
 128 512 l 257
 0 512 l 257
128 640 m 257
 128 768 l 257
 256 768 l 257
 256 640 l 257
 128 640 l 257
256 768 m 257
 256 896 l 257
 384 896 l 257
 384 768 l 257
 256 768 l 257
384 768 m 257
 384 896 l 257
 512 896 l 257
 512 768 l 257
 384 768 l 257
512 768 m 257
 512 896 l 257
 640 896 l 257
 640 768 l 257
 512 768 l 257
640 768 m 257
 640 896 l 257
 768 896 l 257
 768 768 l 257
 640 768 l 257
EndSplineSet
Fore
SplineSet
0 549 m 1
 0 603 l 1
 293 896 l 1
 768 896 l 1
 768 768 l 1
 347 768 l 1
 155 576 l 1
 219 512 l 1
 731 512 l 1
 896 347 l 1
 896 293 l 1
 603 0 l 1
 128 0 l 1
 128 128 l 1
 549 128 l 1
 741 320 l 1
 677 384 l 1
 165 384 l 1
 0 549 l 1
EndSplineSet
EndChar

StartChar: char116.uni0074
Encoding: 84 116 84
GlifName: char116.uni0074
Width: 1024
VWidth: 0
Flags: HW
LayerCount: 2
Back
SplineSet
384 0 m 257
 384 128 l 257
 512 128 l 257
 512 0 l 257
 384 0 l 257
384 128 m 257
 384 256 l 257
 512 256 l 257
 512 128 l 257
 384 128 l 257
384 256 m 257
 384 384 l 257
 512 384 l 257
 512 256 l 257
 384 256 l 257
384 384 m 257
 384 512 l 257
 512 512 l 257
 512 384 l 257
 384 384 l 257
384 512 m 257
 384 640 l 257
 512 640 l 257
 512 512 l 257
 384 512 l 257
384 640 m 257
 384 768 l 257
 512 768 l 257
 512 640 l 257
 384 640 l 257
0 768 m 257
 0 896 l 257
 128 896 l 257
 128 768 l 257
 0 768 l 257
128 768 m 257
 128 896 l 257
 256 896 l 257
 256 768 l 257
 128 768 l 257
256 768 m 257
 256 896 l 257
 384 896 l 257
 384 768 l 257
 256 768 l 257
384 768 m 257
 384 896 l 257
 512 896 l 257
 512 768 l 257
 384 768 l 257
512 768 m 257
 512 896 l 257
 640 896 l 257
 640 768 l 257
 512 768 l 257
640 768 m 257
 640 896 l 257
 768 896 l 257
 768 768 l 257
 640 768 l 257
768 768 m 257
 768 896 l 257
 896 896 l 257
 896 768 l 257
 768 768 l 257
384 896 m 257
 384 1024 l 257
 512 1024 l 257
 512 896 l 257
 384 896 l 257
384 1024 m 257
 384 1152 l 257
 512 1152 l 257
 512 1024 l 257
 384 1024 l 257
384 1152 m 257
 384 1280 l 257
 512 1280 l 257
 512 1152 l 257
 384 1152 l 257
384 1280 m 257
 384 1408 l 257
 512 1408 l 257
 512 1280 l 257
 384 1280 l 257
EndSplineSet
Fore
SplineSet
0 768 m 1
 0 896 l 1
 384 896 l 1
 384 1408 l 1
 512 1408 l 1
 512 896 l 1
 896 896 l 1
 896 768 l 1
 512 768 l 1
 512 0 l 1
 384 0 l 1
 384 768 l 1
 0 768 l 1
EndSplineSet
EndChar

StartChar: char117.uni0075
Encoding: 85 117 85
GlifName: char117.uni0075
Width: 1024
VWidth: 0
Flags: HW
LayerCount: 2
Back
SplineSet
256 0 m 257
 256 128 l 257
 384 128 l 257
 384 0 l 257
 256 0 l 257
384 0 m 257
 384 128 l 257
 512 128 l 257
 512 0 l 257
 384 0 l 257
512 0 m 257
 512 128 l 257
 640 128 l 257
 640 0 l 257
 512 0 l 257
128 128 m 257
 128 256 l 257
 256 256 l 257
 256 128 l 257
 128 128 l 257
640 128 m 257
 640 256 l 257
 768 256 l 257
 768 128 l 257
 640 128 l 257
0 256 m 257
 0 384 l 257
 128 384 l 257
 128 256 l 257
 0 256 l 257
768 256 m 257
 768 384 l 257
 896 384 l 257
 896 256 l 257
 768 256 l 257
0 384 m 257
 0 512 l 257
 128 512 l 257
 128 384 l 257
 0 384 l 257
768 384 m 257
 768 512 l 257
 896 512 l 257
 896 384 l 257
 768 384 l 257
0 512 m 257
 0 640 l 257
 128 640 l 257
 128 512 l 257
 0 512 l 257
768 512 m 257
 768 640 l 257
 896 640 l 257
 896 512 l 257
 768 512 l 257
0 640 m 257
 0 768 l 257
 128 768 l 257
 128 640 l 257
 0 640 l 257
768 640 m 257
 768 768 l 257
 896 768 l 257
 896 640 l 257
 768 640 l 257
0 768 m 257
 0 896 l 257
 128 896 l 257
 128 768 l 257
 0 768 l 257
768 768 m 257
 768 896 l 257
 896 896 l 257
 896 768 l 257
 768 768 l 257
EndSplineSet
Fore
SplineSet
0 293 m 1
 0 896 l 1
 128 896 l 1
 128 347 l 1
 347 128 l 1
 549 128 l 1
 768 347 l 1
 768 896 l 1
 896 896 l 1
 896 293 l 1
 603 0 l 1
 293 0 l 1
 0 293 l 1
EndSplineSet
EndChar

StartChar: char118.uni0076
Encoding: 86 118 86
GlifName: char118.uni0076
Width: 1024
VWidth: 0
Flags: HW
LayerCount: 2
Back
SplineSet
384 0 m 257
 384 128 l 257
 512 128 l 257
 512 0 l 257
 384 0 l 257
256 128 m 257
 256 256 l 257
 384 256 l 257
 384 128 l 257
 256 128 l 257
512 128 m 257
 512 256 l 257
 640 256 l 257
 640 128 l 257
 512 128 l 257
128 256 m 257
 128 384 l 257
 256 384 l 257
 256 256 l 257
 128 256 l 257
640 256 m 257
 640 384 l 257
 768 384 l 257
 768 256 l 257
 640 256 l 257
0 384 m 257
 0 512 l 257
 128 512 l 257
 128 384 l 257
 0 384 l 257
768 384 m 257
 768 512 l 257
 896 512 l 257
 896 384 l 257
 768 384 l 257
0 512 m 257
 0 640 l 257
 128 640 l 257
 128 512 l 257
 0 512 l 257
768 512 m 257
 768 640 l 257
 896 640 l 257
 896 512 l 257
 768 512 l 257
0 640 m 257
 0 768 l 257
 128 768 l 257
 128 640 l 257
 0 640 l 257
768 640 m 257
 768 768 l 257
 896 768 l 257
 896 640 l 257
 768 640 l 257
0 768 m 257
 0 896 l 257
 128 896 l 257
 128 768 l 257
 0 768 l 257
768 768 m 257
 768 896 l 257
 896 896 l 257
 896 768 l 257
 768 768 l 257
EndSplineSet
Fore
SplineSet
0 421 m 1
 0 896 l 1
 128 896 l 1
 128 475 l 1
 448 155 l 1
 768 475 l 1
 768 896 l 1
 896 896 l 1
 896 421 l 1
 448 -27 l 1
 0 421 l 1
EndSplineSet
EndChar

StartChar: char119.uni0077
Encoding: 87 119 87
GlifName: char119.uni0077
Width: 1024
VWidth: 0
Flags: HW
LayerCount: 2
Back
SplineSet
128 0 m 257
 128 128 l 257
 256 128 l 257
 256 0 l 257
 128 0 l 257
256 0 m 257
 256 128 l 257
 384 128 l 257
 384 0 l 257
 256 0 l 257
512 0 m 257
 512 128 l 257
 640 128 l 257
 640 0 l 257
 512 0 l 257
640 0 m 257
 640 128 l 257
 768 128 l 257
 768 0 l 257
 640 0 l 257
0 128 m 257
 0 256 l 257
 128 256 l 257
 128 128 l 257
 0 128 l 257
384 128 m 257
 384 256 l 257
 512 256 l 257
 512 128 l 257
 384 128 l 257
768 128 m 257
 768 256 l 257
 896 256 l 257
 896 128 l 257
 768 128 l 257
0 256 m 257
 0 384 l 257
 128 384 l 257
 128 256 l 257
 0 256 l 257
384 256 m 257
 384 384 l 257
 512 384 l 257
 512 256 l 257
 384 256 l 257
768 256 m 257
 768 384 l 257
 896 384 l 257
 896 256 l 257
 768 256 l 257
0 384 m 257
 0 512 l 257
 128 512 l 257
 128 384 l 257
 0 384 l 257
384 384 m 257
 384 512 l 257
 512 512 l 257
 512 384 l 257
 384 384 l 257
768 384 m 257
 768 512 l 257
 896 512 l 257
 896 384 l 257
 768 384 l 257
0 512 m 257
 0 640 l 257
 128 640 l 257
 128 512 l 257
 0 512 l 257
384 512 m 257
 384 640 l 257
 512 640 l 257
 512 512 l 257
 384 512 l 257
768 512 m 257
 768 640 l 257
 896 640 l 257
 896 512 l 257
 768 512 l 257
0 640 m 257
 0 768 l 257
 128 768 l 257
 128 640 l 257
 0 640 l 257
384 640 m 257
 384 768 l 257
 512 768 l 257
 512 640 l 257
 384 640 l 257
768 640 m 257
 768 768 l 257
 896 768 l 257
 896 640 l 257
 768 640 l 257
0 768 m 257
 0 896 l 257
 128 896 l 257
 128 768 l 257
 0 768 l 257
384 768 m 257
 384 896 l 257
 512 896 l 257
 512 768 l 257
 384 768 l 257
768 768 m 257
 768 896 l 257
 896 896 l 257
 896 768 l 257
 768 768 l 257
EndSplineSet
Fore
SplineSet
0 165 m 1
 165 0 l 1
 347 0 l 1
 448 101 l 1
 549 0 l 1
 731 0 l 1
 896 165 l 1
 896 896 l 1
 768 896 l 1
 768 219 l 1
 677 128 l 1
 603 128 l 1
 512 219 l 1
 512 896 l 1
 384 896 l 1
 384 219 l 1
 293 128 l 1
 219 128 l 1
 128 219 l 1
 128 896 l 1
 0 896 l 1
 0 165 l 1
EndSplineSet
EndChar

StartChar: char120.uni0078
Encoding: 88 120 88
GlifName: char120.uni0078
Width: 1024
VWidth: 0
Flags: HW
LayerCount: 2
Back
SplineSet
0 0 m 257
 0 128 l 257
 128 128 l 257
 128 0 l 257
 0 0 l 257
768 0 m 257
 768 128 l 257
 896 128 l 257
 896 0 l 257
 768 0 l 257
128 128 m 257
 128 256 l 257
 256 256 l 257
 256 128 l 257
 128 128 l 257
640 128 m 257
 640 256 l 257
 768 256 l 257
 768 128 l 257
 640 128 l 257
256 256 m 257
 256 384 l 257
 384 384 l 257
 384 256 l 257
 256 256 l 257
512 256 m 257
 512 384 l 257
 640 384 l 257
 640 256 l 257
 512 256 l 257
384 384 m 257
 384 512 l 257
 512 512 l 257
 512 384 l 257
 384 384 l 257
256 512 m 257
 256 640 l 257
 384 640 l 257
 384 512 l 257
 256 512 l 257
512 512 m 257
 512 640 l 257
 640 640 l 257
 640 512 l 257
 512 512 l 257
128 640 m 257
 128 768 l 257
 256 768 l 257
 256 640 l 257
 128 640 l 257
640 640 m 257
 640 768 l 257
 768 768 l 257
 768 640 l 257
 640 640 l 257
0 768 m 257
 0 896 l 257
 128 896 l 257
 128 768 l 257
 0 768 l 257
768 768 m 257
 768 896 l 257
 896 896 l 257
 896 768 l 257
 768 768 l 257
EndSplineSet
Fore
SplineSet
0 91 m 5
 357 448 l 5
 0 805 l 5
 91 896 l 5
 448 539 l 5
 805 896 l 5
 896 805 l 5
 539 448 l 5
 896 91 l 5
 805 0 l 5
 448 357 l 5
 91 0 l 5
 0 91 l 5
EndSplineSet
EndChar

StartChar: char121.uni0079
Encoding: 89 121 89
GlifName: char121.uni0079
Width: 1024
VWidth: 0
Flags: HW
LayerCount: 2
Back
SplineSet
256 -512 m 257
 256 -384 l 257
 384 -384 l 257
 384 -512 l 257
 256 -512 l 257
384 -512 m 257
 384 -384 l 257
 512 -384 l 257
 512 -512 l 257
 384 -512 l 257
512 -512 m 257
 512 -384 l 257
 640 -384 l 257
 640 -512 l 257
 512 -512 l 257
640 -384 m 257
 640 -256 l 257
 768 -256 l 257
 768 -384 l 257
 640 -384 l 257
768 -256 m 257
 768 -128 l 257
 896 -128 l 257
 896 -256 l 257
 768 -256 l 257
768 -128 m 257
 768 0 l 257
 896 0 l 257
 896 -128 l 257
 768 -128 l 257
256 0 m 257
 256 128 l 257
 384 128 l 257
 384 0 l 257
 256 0 l 257
384 0 m 257
 384 128 l 257
 512 128 l 257
 512 0 l 257
 384 0 l 257
512 0 m 257
 512 128 l 257
 640 128 l 257
 640 0 l 257
 512 0 l 257
640 0 m 257
 640 128 l 257
 768 128 l 257
 768 0 l 257
 640 0 l 257
768 0 m 257
 768 128 l 257
 896 128 l 257
 896 0 l 257
 768 0 l 257
128 128 m 257
 128 256 l 257
 256 256 l 257
 256 128 l 257
 128 128 l 257
768 128 m 257
 768 256 l 257
 896 256 l 257
 896 128 l 257
 768 128 l 257
0 256 m 257
 0 384 l 257
 128 384 l 257
 128 256 l 257
 0 256 l 257
768 256 m 257
 768 384 l 257
 896 384 l 257
 896 256 l 257
 768 256 l 257
0 384 m 257
 0 512 l 257
 128 512 l 257
 128 384 l 257
 0 384 l 257
768 384 m 257
 768 512 l 257
 896 512 l 257
 896 384 l 257
 768 384 l 257
0 512 m 257
 0 640 l 257
 128 640 l 257
 128 512 l 257
 0 512 l 257
768 512 m 257
 768 640 l 257
 896 640 l 257
 896 512 l 257
 768 512 l 257
0 640 m 257
 0 768 l 257
 128 768 l 257
 128 640 l 257
 0 640 l 257
768 640 m 257
 768 768 l 257
 896 768 l 257
 896 640 l 257
 768 640 l 257
0 768 m 257
 0 896 l 257
 128 896 l 257
 128 768 l 257
 0 768 l 257
768 768 m 257
 768 896 l 257
 896 896 l 257
 896 768 l 257
 768 768 l 257
EndSplineSet
Fore
SplineSet
0 293 m 1
 0 896 l 1
 128 896 l 1
 128 347 l 1
 347 128 l 1
 768 128 l 1
 768 896 l 1
 896 896 l 1
 896 -219 l 1
 603 -512 l 1
 256 -512 l 1
 256 -384 l 1
 549 -384 l 1
 768 -165 l 1
 768 0 l 1
 293 0 l 1
 0 293 l 1
EndSplineSet
EndChar

StartChar: char122.uni007A
Encoding: 90 122 90
GlifName: char122.uni007A
Width: 1024
VWidth: 0
Flags: HW
LayerCount: 2
Back
SplineSet
0 0 m 257
 0 128 l 257
 128 128 l 257
 128 0 l 257
 0 0 l 257
128 0 m 257
 128 128 l 257
 256 128 l 257
 256 0 l 257
 128 0 l 257
256 0 m 257
 256 128 l 257
 384 128 l 257
 384 0 l 257
 256 0 l 257
384 0 m 257
 384 128 l 257
 512 128 l 257
 512 0 l 257
 384 0 l 257
512 0 m 257
 512 128 l 257
 640 128 l 257
 640 0 l 257
 512 0 l 257
640 0 m 257
 640 128 l 257
 768 128 l 257
 768 0 l 257
 640 0 l 257
768 0 m 257
 768 128 l 257
 896 128 l 257
 896 0 l 257
 768 0 l 257
128 128 m 257
 128 256 l 257
 256 256 l 257
 256 128 l 257
 128 128 l 257
256 256 m 257
 256 384 l 257
 384 384 l 257
 384 256 l 257
 256 256 l 257
384 384 m 257
 384 512 l 257
 512 512 l 257
 512 384 l 257
 384 384 l 257
512 512 m 257
 512 640 l 257
 640 640 l 257
 640 512 l 257
 512 512 l 257
640 640 m 257
 640 768 l 257
 768 768 l 257
 768 640 l 257
 640 640 l 257
0 768 m 257
 0 896 l 257
 128 896 l 257
 128 768 l 257
 0 768 l 257
128 768 m 257
 128 896 l 257
 256 896 l 257
 256 768 l 257
 128 768 l 257
256 768 m 257
 256 896 l 257
 384 896 l 257
 384 768 l 257
 256 768 l 257
384 768 m 257
 384 896 l 257
 512 896 l 257
 512 768 l 257
 384 768 l 257
512 768 m 257
 512 896 l 257
 640 896 l 257
 640 768 l 257
 512 768 l 257
640 768 m 257
 640 896 l 257
 768 896 l 257
 768 768 l 257
 640 768 l 257
768 768 m 257
 768 896 l 257
 896 896 l 257
 896 768 l 257
 768 768 l 257
EndSplineSet
Fore
SplineSet
0 0 m 1
 0 91 l 1
 677 768 l 1
 0 768 l 1
 0 896 l 1
 896 896 l 1
 896 805 l 1
 219 128 l 1
 896 128 l 1
 896 0 l 1
 0 0 l 1
EndSplineSet
EndChar

StartChar: char123.uni007B
Encoding: 91 123 91
GlifName: char123.uni007B
Width: 1024
VWidth: 0
Flags: HW
LayerCount: 2
Back
SplineSet
512 -256 m 257
 512 -128 l 257
 640 -128 l 257
 640 -256 l 257
 512 -256 l 257
384 -128 m 257
 384 0 l 257
 512 0 l 257
 512 -128 l 257
 384 -128 l 257
384 0 m 257
 384 128 l 257
 512 128 l 257
 512 0 l 257
 384 0 l 257
384 128 m 257
 384 256 l 257
 512 256 l 257
 512 128 l 257
 384 128 l 257
384 256 m 257
 384 384 l 257
 512 384 l 257
 512 256 l 257
 384 256 l 257
384 384 m 257
 384 512 l 257
 512 512 l 257
 512 384 l 257
 384 384 l 257
256 512 m 257
 256 640 l 257
 384 640 l 257
 384 512 l 257
 256 512 l 257
384 640 m 257
 384 768 l 257
 512 768 l 257
 512 640 l 257
 384 640 l 257
384 768 m 257
 384 896 l 257
 512 896 l 257
 512 768 l 257
 384 768 l 257
384 896 m 257
 384 1024 l 257
 512 1024 l 257
 512 896 l 257
 384 896 l 257
384 1024 m 257
 384 1152 l 257
 512 1152 l 257
 512 1024 l 257
 384 1024 l 257
384 1152 m 257
 384 1280 l 257
 512 1280 l 257
 512 1152 l 257
 384 1152 l 257
512 1280 m 257
 512 1408 l 257
 640 1408 l 257
 640 1280 l 257
 512 1280 l 257
EndSplineSet
Fore
SplineSet
229 576 m 1
 384 731 l 1
 384 1243 l 1
 549 1408 l 1
 640 1317 l 1
 512 1189 l 1
 512 677 l 1
 411 576 l 1
 512 475 l 1
 512 -37 l 1
 640 -165 l 1
 549 -256 l 1
 384 -91 l 1
 384 421 l 1
 229 576 l 1
EndSplineSet
EndChar

StartChar: char124.uni007C
Encoding: 92 124 92
GlifName: char124.uni007C
Width: 1024
VWidth: 0
Flags: HW
LayerCount: 2
Back
SplineSet
384 -256 m 257
 384 -128 l 257
 512 -128 l 257
 512 -256 l 257
 384 -256 l 257
384 -128 m 257
 384 0 l 257
 512 0 l 257
 512 -128 l 257
 384 -128 l 257
384 0 m 257
 384 128 l 257
 512 128 l 257
 512 0 l 257
 384 0 l 257
384 128 m 257
 384 256 l 257
 512 256 l 257
 512 128 l 257
 384 128 l 257
384 256 m 257
 384 384 l 257
 512 384 l 257
 512 256 l 257
 384 256 l 257
384 384 m 257
 384 512 l 257
 512 512 l 257
 512 384 l 257
 384 384 l 257
384 512 m 257
 384 640 l 257
 512 640 l 257
 512 512 l 257
 384 512 l 257
384 640 m 257
 384 768 l 257
 512 768 l 257
 512 640 l 257
 384 640 l 257
384 768 m 257
 384 896 l 257
 512 896 l 257
 512 768 l 257
 384 768 l 257
384 896 m 257
 384 1024 l 257
 512 1024 l 257
 512 896 l 257
 384 896 l 257
384 1024 m 257
 384 1152 l 257
 512 1152 l 257
 512 1024 l 257
 384 1024 l 257
384 1152 m 257
 384 1280 l 257
 512 1280 l 257
 512 1152 l 257
 384 1152 l 257
384 1280 m 257
 384 1408 l 257
 512 1408 l 257
 512 1280 l 257
 384 1280 l 257
EndSplineSet
Fore
SplineSet
384 -256 m 1
 384 1408 l 1
 512 1408 l 1
 512 -256 l 1
 384 -256 l 1
EndSplineSet
EndChar

StartChar: char125.uni007D
Encoding: 93 125 93
GlifName: char125.uni007D
Width: 1024
VWidth: 0
Flags: HW
LayerCount: 2
Back
SplineSet
256 -256 m 257
 256 -128 l 257
 384 -128 l 257
 384 -256 l 257
 256 -256 l 257
384 -128 m 257
 384 0 l 257
 512 0 l 257
 512 -128 l 257
 384 -128 l 257
384 0 m 257
 384 128 l 257
 512 128 l 257
 512 0 l 257
 384 0 l 257
384 128 m 257
 384 256 l 257
 512 256 l 257
 512 128 l 257
 384 128 l 257
384 256 m 257
 384 384 l 257
 512 384 l 257
 512 256 l 257
 384 256 l 257
384 384 m 257
 384 512 l 257
 512 512 l 257
 512 384 l 257
 384 384 l 257
512 512 m 257
 512 640 l 257
 640 640 l 257
 640 512 l 257
 512 512 l 257
384 640 m 257
 384 768 l 257
 512 768 l 257
 512 640 l 257
 384 640 l 257
384 768 m 257
 384 896 l 257
 512 896 l 257
 512 768 l 257
 384 768 l 257
384 896 m 257
 384 1024 l 257
 512 1024 l 257
 512 896 l 257
 384 896 l 257
384 1024 m 257
 384 1152 l 257
 512 1152 l 257
 512 1024 l 257
 384 1024 l 257
384 1152 m 257
 384 1280 l 257
 512 1280 l 257
 512 1152 l 257
 384 1152 l 257
256 1280 m 257
 256 1408 l 257
 384 1408 l 257
 384 1280 l 257
 256 1280 l 257
EndSplineSet
Fore
SplineSet
256 -165 m 1
 384 -37 l 1
 384 475 l 1
 485 576 l 1
 384 677 l 1
 384 1189 l 1
 256 1317 l 1
 347 1408 l 1
 512 1243 l 1
 512 731 l 1
 667 576 l 1
 512 421 l 1
 512 -91 l 1
 347 -256 l 1
 256 -165 l 1
EndSplineSet
EndChar

StartChar: char126.uni007E
Encoding: 94 126 94
GlifName: char126.uni007E
Width: 1024
VWidth: 0
Flags: HW
LayerCount: 2
Back
SplineSet
512 512 m 257
 512 640 l 257
 640 640 l 257
 640 512 l 257
 512 512 l 257
128 640 m 257
 128 768 l 257
 256 768 l 257
 256 640 l 257
 128 640 l 257
384 640 m 257
 384 768 l 257
 512 768 l 257
 512 640 l 257
 384 640 l 257
640 640 m 257
 640 768 l 257
 768 768 l 257
 768 640 l 257
 640 640 l 257
256 768 m 257
 256 896 l 257
 384 896 l 257
 384 768 l 257
 256 768 l 257
EndSplineSet
Fore
SplineSet
128 731 m 1
 293 896 l 1
 347 896 l 1
 576 667 l 1
 677 768 l 1
 768 677 l 1
 603 512 l 1
 549 512 l 1
 320 741 l 1
 219 640 l 1
 128 731 l 1
EndSplineSet
EndChar

StartChar: logicalnot.uni00AC
Encoding: 95 172 95
GlifName: logicalnot.uni00AC
Width: 2048
Flags: H
LayerCount: 2
Back
SplineSet
768 1024 m 257
 768 1152 l 257
 896 1152 l 257
 896 1024 l 257
 768 1024 l 257
768 1152 m 257
 768 1280 l 257
 896 1280 l 257
 896 1152 l 257
 768 1152 l 257
0 1280 m 257
 0 1408 l 257
 128 1408 l 257
 128 1280 l 257
 0 1280 l 257
128 1280 m 257
 128 1408 l 257
 256 1408 l 257
 256 1280 l 257
 128 1280 l 257
256 1280 m 257
 256 1408 l 257
 384 1408 l 257
 384 1280 l 257
 256 1280 l 257
384 1280 m 257
 384 1408 l 257
 512 1408 l 257
 512 1280 l 257
 384 1280 l 257
512 1280 m 257
 512 1408 l 257
 640 1408 l 257
 640 1280 l 257
 512 1280 l 257
640 1280 m 257
 640 1408 l 257
 768 1408 l 257
 768 1280 l 257
 640 1280 l 257
768 1280 m 257
 768 1408 l 257
 896 1408 l 257
 896 1280 l 257
 768 1280 l 257
EndSplineSet
Fore
SplineSet
0 1280 m 1
 0 1408 l 1
 896 1408 l 1
 896 1024 l 1
 768 1024 l 1
 768 1280 l 1
 0 1280 l 1
EndSplineSet
EndChar

StartChar: periodcentered.uni00B7
Encoding: 96 183 96
GlifName: periodcentered.uni00B7
Width: 2048
Flags: H
LayerCount: 2
Back
SplineSet
384 640 m 257
 384 768 l 257
 512 768 l 257
 512 640 l 257
 384 640 l 257
EndSplineSet
Fore
SplineSet
384 640 m 1
 384 768 l 1
 512 768 l 1
 512 640 l 1
 384 640 l 1
EndSplineSet
EndChar

StartChar: multiply.uni00D7
Encoding: 97 215 97
GlifName: multiply.uni00D7
Width: 1024
VWidth: 0
Flags: HW
LayerCount: 2
Back
SplineSet
128 384 m 257
 128 512 l 257
 256 512 l 257
 256 384 l 257
 128 384 l 257
640 384 m 257
 640 512 l 257
 768 512 l 257
 768 384 l 257
 640 384 l 257
256 512 m 257
 256 640 l 257
 384 640 l 257
 384 512 l 257
 256 512 l 257
512 512 m 257
 512 640 l 257
 640 640 l 257
 640 512 l 257
 512 512 l 257
384 640 m 257
 384 768 l 257
 512 768 l 257
 512 640 l 257
 384 640 l 257
256 768 m 257
 256 896 l 257
 384 896 l 257
 384 768 l 257
 256 768 l 257
512 768 m 257
 512 896 l 257
 640 896 l 257
 640 768 l 257
 512 768 l 257
128 896 m 257
 128 1024 l 257
 256 1024 l 257
 256 896 l 257
 128 896 l 257
640 896 m 257
 640 1024 l 257
 768 1024 l 257
 768 896 l 257
 640 896 l 257
EndSplineSet
Fore
SplineSet
128 475 m 1
 357 704 l 1
 128 933 l 1
 219 1024 l 1
 448 795 l 1
 677 1024 l 1
 768 933 l 1
 539 704 l 1
 768 475 l 1
 677 384 l 1
 448 613 l 1
 219 384 l 1
 128 475 l 1
EndSplineSet
EndChar

StartChar: Gamma.uni0393
Encoding: 98 915 98
GlifName: Gamma.uni0393
Width: 2048
Flags: H
LayerCount: 2
Back
SplineSet
0 0 m 257
 0 128 l 257
 128 128 l 257
 128 0 l 257
 0 0 l 257
0 128 m 257
 0 256 l 257
 128 256 l 257
 128 128 l 257
 0 128 l 257
0 256 m 257
 0 384 l 257
 128 384 l 257
 128 256 l 257
 0 256 l 257
0 384 m 257
 0 512 l 257
 128 512 l 257
 128 384 l 257
 0 384 l 257
0 512 m 257
 0 640 l 257
 128 640 l 257
 128 512 l 257
 0 512 l 257
0 640 m 257
 0 768 l 257
 128 768 l 257
 128 640 l 257
 0 640 l 257
0 768 m 257
 0 896 l 257
 128 896 l 257
 128 768 l 257
 0 768 l 257
0 896 m 257
 0 1024 l 257
 128 1024 l 257
 128 896 l 257
 0 896 l 257
0 1024 m 257
 0 1152 l 257
 128 1152 l 257
 128 1024 l 257
 0 1024 l 257
0 1152 m 257
 0 1280 l 257
 128 1280 l 257
 128 1152 l 257
 0 1152 l 257
0 1280 m 257
 0 1408 l 257
 128 1408 l 257
 128 1280 l 257
 0 1280 l 257
128 1280 m 257
 128 1408 l 257
 256 1408 l 257
 256 1280 l 257
 128 1280 l 257
256 1280 m 257
 256 1408 l 257
 384 1408 l 257
 384 1280 l 257
 256 1280 l 257
384 1280 m 257
 384 1408 l 257
 512 1408 l 257
 512 1280 l 257
 384 1280 l 257
512 1280 m 257
 512 1408 l 257
 640 1408 l 257
 640 1280 l 257
 512 1280 l 257
640 1280 m 257
 640 1408 l 257
 768 1408 l 257
 768 1280 l 257
 640 1280 l 257
768 1280 m 257
 768 1408 l 257
 896 1408 l 257
 896 1280 l 257
 768 1280 l 257
EndSplineSet
Fore
SplineSet
0 0 m 1
 0 1408 l 1
 896 1408 l 1
 896 1280 l 1
 128 1280 l 1
 128 0 l 1
 0 0 l 1
EndSplineSet
EndChar

StartChar: uni0394.uni0394
Encoding: 99 916 99
GlifName: uni0394.uni0394
Width: 2048
Flags: H
LayerCount: 2
Back
SplineSet
256 0 m 257
 256 128 l 257
 384 128 l 257
 384 0 l 257
 256 0 l 257
384 0 m 257
 384 128 l 257
 512 128 l 257
 512 0 l 257
 384 0 l 257
512 0 m 257
 512 128 l 257
 640 128 l 257
 640 0 l 257
 512 0 l 257
640 0 m 257
 640 128 l 257
 768 128 l 257
 768 0 l 257
 640 0 l 257
768 0 m 257
 768 128 l 257
 896 128 l 257
 896 0 l 257
 768 0 l 257
896 0 m 257
 896 128 l 257
 1024 128 l 257
 1024 0 l 257
 896 0 l 257
1024 0 m 257
 1024 128 l 257
 1152 128 l 257
 1152 0 l 257
 1024 0 l 257
1152 0 m 257
 1152 128 l 257
 1280 128 l 257
 1280 0 l 257
 1152 0 l 257
1280 0 m 257
 1280 128 l 257
 1408 128 l 257
 1408 0 l 257
 1280 0 l 257
1408 0 m 257
 1408 128 l 257
 1536 128 l 257
 1536 0 l 257
 1408 0 l 257
1536 0 m 257
 1536 128 l 257
 1664 128 l 257
 1664 0 l 257
 1536 0 l 257
384 128 m 257
 384 256 l 257
 512 256 l 257
 512 128 l 257
 384 128 l 257
1408 128 m 257
 1408 256 l 257
 1536 256 l 257
 1536 128 l 257
 1408 128 l 257
384 256 m 257
 384 384 l 257
 512 384 l 257
 512 256 l 257
 384 256 l 257
1408 256 m 257
 1408 384 l 257
 1536 384 l 257
 1536 256 l 257
 1408 256 l 257
512 384 m 257
 512 512 l 257
 640 512 l 257
 640 384 l 257
 512 384 l 257
1280 384 m 257
 1280 512 l 257
 1408 512 l 257
 1408 384 l 257
 1280 384 l 257
512 512 m 257
 512 640 l 257
 640 640 l 257
 640 512 l 257
 512 512 l 257
1280 512 m 257
 1280 640 l 257
 1408 640 l 257
 1408 512 l 257
 1280 512 l 257
640 640 m 257
 640 768 l 257
 768 768 l 257
 768 640 l 257
 640 640 l 257
1152 640 m 257
 1152 768 l 257
 1280 768 l 257
 1280 640 l 257
 1152 640 l 257
640 768 m 257
 640 896 l 257
 768 896 l 257
 768 768 l 257
 640 768 l 257
1152 768 m 257
 1152 896 l 257
 1280 896 l 257
 1280 768 l 257
 1152 768 l 257
768 896 m 257
 768 1024 l 257
 896 1024 l 257
 896 896 l 257
 768 896 l 257
1024 896 m 257
 1024 1024 l 257
 1152 1024 l 257
 1152 896 l 257
 1024 896 l 257
768 1024 m 257
 768 1152 l 257
 896 1152 l 257
 896 1024 l 257
 768 1024 l 257
1024 1024 m 257
 1024 1152 l 257
 1152 1152 l 257
 1152 1024 l 257
 1024 1024 l 257
896 1152 m 257
 896 1280 l 257
 1024 1280 l 257
 1024 1152 l 257
 896 1152 l 257
896 1280 m 257
 896 1408 l 257
 1024 1408 l 257
 1024 1280 l 257
 896 1280 l 257
EndSplineSet
EndChar

StartChar: Lambda.uni039B
Encoding: 100 923 100
GlifName: Lambda.uni039B
Width: 2048
Flags: H
LayerCount: 2
Back
SplineSet
256 0 m 257
 256 128 l 257
 384 128 l 257
 384 0 l 257
 256 0 l 257
384 0 m 257
 384 128 l 257
 512 128 l 257
 512 0 l 257
 384 0 l 257
1408 0 m 257
 1408 128 l 257
 1536 128 l 257
 1536 0 l 257
 1408 0 l 257
1536 0 m 257
 1536 128 l 257
 1664 128 l 257
 1664 0 l 257
 1536 0 l 257
384 128 m 257
 384 256 l 257
 512 256 l 257
 512 128 l 257
 384 128 l 257
1408 128 m 257
 1408 256 l 257
 1536 256 l 257
 1536 128 l 257
 1408 128 l 257
384 256 m 257
 384 384 l 257
 512 384 l 257
 512 256 l 257
 384 256 l 257
1408 256 m 257
 1408 384 l 257
 1536 384 l 257
 1536 256 l 257
 1408 256 l 257
512 384 m 257
 512 512 l 257
 640 512 l 257
 640 384 l 257
 512 384 l 257
1280 384 m 257
 1280 512 l 257
 1408 512 l 257
 1408 384 l 257
 1280 384 l 257
512 512 m 257
 512 640 l 257
 640 640 l 257
 640 512 l 257
 512 512 l 257
1280 512 m 257
 1280 640 l 257
 1408 640 l 257
 1408 512 l 257
 1280 512 l 257
640 640 m 257
 640 768 l 257
 768 768 l 257
 768 640 l 257
 640 640 l 257
1152 640 m 257
 1152 768 l 257
 1280 768 l 257
 1280 640 l 257
 1152 640 l 257
640 768 m 257
 640 896 l 257
 768 896 l 257
 768 768 l 257
 640 768 l 257
1152 768 m 257
 1152 896 l 257
 1280 896 l 257
 1280 768 l 257
 1152 768 l 257
768 896 m 257
 768 1024 l 257
 896 1024 l 257
 896 896 l 257
 768 896 l 257
1024 896 m 257
 1024 1024 l 257
 1152 1024 l 257
 1152 896 l 257
 1024 896 l 257
768 1024 m 257
 768 1152 l 257
 896 1152 l 257
 896 1024 l 257
 768 1024 l 257
1024 1024 m 257
 1024 1152 l 257
 1152 1152 l 257
 1152 1024 l 257
 1024 1024 l 257
896 1152 m 257
 896 1280 l 257
 1024 1280 l 257
 1024 1152 l 257
 896 1152 l 257
896 1280 m 257
 896 1408 l 257
 1024 1408 l 257
 1024 1280 l 257
 896 1280 l 257
EndSplineSet
EndChar

StartChar: Pi.uni03A0
Encoding: 101 928 101
GlifName: Pi.uni03A0
Width: 2048
Flags: H
LayerCount: 2
Back
SplineSet
0 0 m 257
 0 128 l 257
 128 128 l 257
 128 0 l 257
 0 0 l 257
768 0 m 257
 768 128 l 257
 896 128 l 257
 896 0 l 257
 768 0 l 257
0 128 m 257
 0 256 l 257
 128 256 l 257
 128 128 l 257
 0 128 l 257
768 128 m 257
 768 256 l 257
 896 256 l 257
 896 128 l 257
 768 128 l 257
0 256 m 257
 0 384 l 257
 128 384 l 257
 128 256 l 257
 0 256 l 257
768 256 m 257
 768 384 l 257
 896 384 l 257
 896 256 l 257
 768 256 l 257
0 384 m 257
 0 512 l 257
 128 512 l 257
 128 384 l 257
 0 384 l 257
768 384 m 257
 768 512 l 257
 896 512 l 257
 896 384 l 257
 768 384 l 257
0 512 m 257
 0 640 l 257
 128 640 l 257
 128 512 l 257
 0 512 l 257
768 512 m 257
 768 640 l 257
 896 640 l 257
 896 512 l 257
 768 512 l 257
0 640 m 257
 0 768 l 257
 128 768 l 257
 128 640 l 257
 0 640 l 257
768 640 m 257
 768 768 l 257
 896 768 l 257
 896 640 l 257
 768 640 l 257
0 768 m 257
 0 896 l 257
 128 896 l 257
 128 768 l 257
 0 768 l 257
768 768 m 257
 768 896 l 257
 896 896 l 257
 896 768 l 257
 768 768 l 257
0 896 m 257
 0 1024 l 257
 128 1024 l 257
 128 896 l 257
 0 896 l 257
768 896 m 257
 768 1024 l 257
 896 1024 l 257
 896 896 l 257
 768 896 l 257
0 1024 m 257
 0 1152 l 257
 128 1152 l 257
 128 1024 l 257
 0 1024 l 257
768 1024 m 257
 768 1152 l 257
 896 1152 l 257
 896 1024 l 257
 768 1024 l 257
0 1152 m 257
 0 1280 l 257
 128 1280 l 257
 128 1152 l 257
 0 1152 l 257
768 1152 m 257
 768 1280 l 257
 896 1280 l 257
 896 1152 l 257
 768 1152 l 257
0 1280 m 257
 0 1408 l 257
 128 1408 l 257
 128 1280 l 257
 0 1280 l 257
128 1280 m 257
 128 1408 l 257
 256 1408 l 257
 256 1280 l 257
 128 1280 l 257
256 1280 m 257
 256 1408 l 257
 384 1408 l 257
 384 1280 l 257
 256 1280 l 257
384 1280 m 257
 384 1408 l 257
 512 1408 l 257
 512 1280 l 257
 384 1280 l 257
512 1280 m 257
 512 1408 l 257
 640 1408 l 257
 640 1280 l 257
 512 1280 l 257
640 1280 m 257
 640 1408 l 257
 768 1408 l 257
 768 1280 l 257
 640 1280 l 257
768 1280 m 257
 768 1408 l 257
 896 1408 l 257
 896 1280 l 257
 768 1280 l 257
EndSplineSet
Fore
SplineSet
0 0 m 1
 0 1408 l 1
 896 1408 l 1
 896 0 l 1
 768 0 l 1
 768 1280 l 1
 128 1280 l 1
 128 0 l 1
 0 0 l 1
EndSplineSet
EndChar

StartChar: Sigma.uni03A3
Encoding: 102 931 102
GlifName: Sigma.uni03A3
Width: 2048
Flags: H
LayerCount: 2
Back
SplineSet
0 0 m 257
 0 128 l 257
 128 128 l 257
 128 0 l 257
 0 0 l 257
128 0 m 257
 128 128 l 257
 256 128 l 257
 256 0 l 257
 128 0 l 257
256 0 m 257
 256 128 l 257
 384 128 l 257
 384 0 l 257
 256 0 l 257
384 0 m 257
 384 128 l 257
 512 128 l 257
 512 0 l 257
 384 0 l 257
512 0 m 257
 512 128 l 257
 640 128 l 257
 640 0 l 257
 512 0 l 257
640 0 m 257
 640 128 l 257
 768 128 l 257
 768 0 l 257
 640 0 l 257
768 0 m 257
 768 128 l 257
 896 128 l 257
 896 0 l 257
 768 0 l 257
0 128 m 257
 0 256 l 257
 128 256 l 257
 128 128 l 257
 0 128 l 257
128 256 m 257
 128 384 l 257
 256 384 l 257
 256 256 l 257
 128 256 l 257
256 384 m 257
 256 512 l 257
 384 512 l 257
 384 384 l 257
 256 384 l 257
384 512 m 257
 384 640 l 257
 512 640 l 257
 512 512 l 257
 384 512 l 257
512 640 m 257
 512 768 l 257
 640 768 l 257
 640 640 l 257
 512 640 l 257
384 768 m 257
 384 896 l 257
 512 896 l 257
 512 768 l 257
 384 768 l 257
256 896 m 257
 256 1024 l 257
 384 1024 l 257
 384 896 l 257
 256 896 l 257
128 1024 m 257
 128 1152 l 257
 256 1152 l 257
 256 1024 l 257
 128 1024 l 257
0 1152 m 257
 0 1280 l 257
 128 1280 l 257
 128 1152 l 257
 0 1152 l 257
0 1280 m 257
 0 1408 l 257
 128 1408 l 257
 128 1280 l 257
 0 1280 l 257
128 1280 m 257
 128 1408 l 257
 256 1408 l 257
 256 1280 l 257
 128 1280 l 257
256 1280 m 257
 256 1408 l 257
 384 1408 l 257
 384 1280 l 257
 256 1280 l 257
384 1280 m 257
 384 1408 l 257
 512 1408 l 257
 512 1280 l 257
 384 1280 l 257
512 1280 m 257
 512 1408 l 257
 640 1408 l 257
 640 1280 l 257
 512 1280 l 257
640 1280 m 257
 640 1408 l 257
 768 1408 l 257
 768 1280 l 257
 640 1280 l 257
768 1280 m 257
 768 1408 l 257
 896 1408 l 257
 896 1280 l 257
 768 1280 l 257
EndSplineSet
Fore
SplineSet
0 0 m 1
 0 219 l 1
 485 704 l 1
 0 1189 l 1
 0 1408 l 1
 896 1408 l 1
 896 1280 l 1
 128 1280 l 1
 128 1243 l 1
 667 704 l 1
 128 165 l 1
 128 128 l 1
 896 128 l 1
 896 0 l 1
 0 0 l 1
EndSplineSet
EndChar

StartChar: alpha.uni03B1
Encoding: 103 945 103
GlifName: alpha.uni03B1
Width: 2048
Flags: H
LayerCount: 2
Back
SplineSet
256 0 m 257
 256 128 l 257
 384 128 l 257
 384 0 l 257
 256 0 l 257
384 0 m 257
 384 128 l 257
 512 128 l 257
 512 0 l 257
 384 0 l 257
768 0 m 257
 768 128 l 257
 896 128 l 257
 896 0 l 257
 768 0 l 257
128 128 m 257
 128 256 l 257
 256 256 l 257
 256 128 l 257
 128 128 l 257
512 128 m 257
 512 256 l 257
 640 256 l 257
 640 128 l 257
 512 128 l 257
768 128 m 257
 768 256 l 257
 896 256 l 257
 896 128 l 257
 768 128 l 257
0 256 m 257
 0 384 l 257
 128 384 l 257
 128 256 l 257
 0 256 l 257
640 256 m 257
 640 384 l 257
 768 384 l 257
 768 256 l 257
 640 256 l 257
0 384 m 257
 0 512 l 257
 128 512 l 257
 128 384 l 257
 0 384 l 257
640 384 m 257
 640 512 l 257
 768 512 l 257
 768 384 l 257
 640 384 l 257
0 512 m 257
 0 640 l 257
 128 640 l 257
 128 512 l 257
 0 512 l 257
640 512 m 257
 640 640 l 257
 768 640 l 257
 768 512 l 257
 640 512 l 257
128 640 m 257
 128 768 l 257
 256 768 l 257
 256 640 l 257
 128 640 l 257
512 640 m 257
 512 768 l 257
 640 768 l 257
 640 640 l 257
 512 640 l 257
768 640 m 257
 768 768 l 257
 896 768 l 257
 896 640 l 257
 768 640 l 257
256 768 m 257
 256 896 l 257
 384 896 l 257
 384 768 l 257
 256 768 l 257
384 768 m 257
 384 896 l 257
 512 896 l 257
 512 768 l 257
 384 768 l 257
768 768 m 257
 768 896 l 257
 896 896 l 257
 896 768 l 257
 768 768 l 257
EndSplineSet
Fore
SplineSet
0 293 m 1
 0 603 l 1
 293 896 l 1
 475 896 l 1
 704 667 l 1
 768 731 l 1
 768 896 l 1
 896 896 l 1
 896 677 l 1
 768 549 l 1
 768 347 l 1
 896 219 l 1
 896 0 l 1
 768 0 l 1
 768 165 l 1
 704 229 l 1
 475 0 l 1
 293 0 l 1
 0 293 l 1
128 347 m 1
 347 128 l 1
 421 128 l 1
 640 347 l 1
 640 549 l 1
 421 768 l 1
 347 768 l 1
 128 549 l 1
 128 347 l 1
EndSplineSet
EndChar

StartChar: beta.uni03B2
Encoding: 104 946 104
GlifName: beta.uni03B2
Width: 2048
Flags: H
LayerCount: 2
Back
SplineSet
0 -256 m 257
 0 -128 l 257
 128 -128 l 257
 128 -256 l 257
 0 -256 l 257
0 -128 m 257
 0 0 l 257
 128 0 l 257
 128 -128 l 257
 0 -128 l 257
0 0 m 257
 0 128 l 257
 128 128 l 257
 128 0 l 257
 0 0 l 257
128 0 m 257
 128 128 l 257
 256 128 l 257
 256 0 l 257
 128 0 l 257
256 0 m 257
 256 128 l 257
 384 128 l 257
 384 0 l 257
 256 0 l 257
384 0 m 257
 384 128 l 257
 512 128 l 257
 512 0 l 257
 384 0 l 257
0 128 m 257
 0 256 l 257
 128 256 l 257
 128 128 l 257
 0 128 l 257
512 128 m 257
 512 256 l 257
 640 256 l 257
 640 128 l 257
 512 128 l 257
0 256 m 257
 0 384 l 257
 128 384 l 257
 128 256 l 257
 0 256 l 257
640 256 m 257
 640 384 l 257
 768 384 l 257
 768 256 l 257
 640 256 l 257
0 384 m 257
 0 512 l 257
 128 512 l 257
 128 384 l 257
 0 384 l 257
768 384 m 257
 768 512 l 257
 896 512 l 257
 896 384 l 257
 768 384 l 257
0 512 m 257
 0 640 l 257
 128 640 l 257
 128 512 l 257
 0 512 l 257
640 512 m 257
 640 640 l 257
 768 640 l 257
 768 512 l 257
 640 512 l 257
0 640 m 257
 0 768 l 257
 128 768 l 257
 128 640 l 257
 0 640 l 257
512 640 m 257
 512 768 l 257
 640 768 l 257
 640 640 l 257
 512 640 l 257
0 768 m 257
 0 896 l 257
 128 896 l 257
 128 768 l 257
 0 768 l 257
384 768 m 257
 384 896 l 257
 512 896 l 257
 512 768 l 257
 384 768 l 257
0 896 m 257
 0 1024 l 257
 128 1024 l 257
 128 896 l 257
 0 896 l 257
512 896 m 257
 512 1024 l 257
 640 1024 l 257
 640 896 l 257
 512 896 l 257
0 1024 m 257
 0 1152 l 257
 128 1152 l 257
 128 1024 l 257
 0 1024 l 257
640 1024 m 257
 640 1152 l 257
 768 1152 l 257
 768 1024 l 257
 640 1024 l 257
0 1152 m 257
 0 1280 l 257
 128 1280 l 257
 128 1152 l 257
 0 1152 l 257
512 1152 m 257
 512 1280 l 257
 640 1280 l 257
 640 1152 l 257
 512 1152 l 257
128 1280 m 257
 128 1408 l 257
 256 1408 l 257
 256 1280 l 257
 128 1280 l 257
256 1280 m 257
 256 1408 l 257
 384 1408 l 257
 384 1280 l 257
 256 1280 l 257
384 1280 m 257
 384 1408 l 257
 512 1408 l 257
 512 1280 l 257
 384 1280 l 257
EndSplineSet
Fore
SplineSet
0 -256 m 1
 0 1243 l 1
 165 1408 l 1
 475 1408 l 1
 768 1115 l 1
 768 1061 l 1
 539 832 l 1
 896 475 l 1
 896 421 l 1
 475 0 l 1
 128 0 l 1
 128 -256 l 1
 0 -256 l 1
128 128 m 1
 421 128 l 1
 741 448 l 1
 384 805 l 1
 384 859 l 1
 613 1088 l 1
 421 1280 l 1
 219 1280 l 1
 128 1189 l 1
 128 128 l 1
EndSplineSet
EndChar

StartChar: gamma.uni03B3
Encoding: 105 947 105
GlifName: gamma.uni03B3
Width: 2048
Flags: H
LayerCount: 2
Back
SplineSet
0 -256 m 257
 0 -128 l 257
 128 -128 l 257
 128 -256 l 257
 0 -256 l 257
128 -256 m 257
 128 -128 l 257
 256 -128 l 257
 256 -256 l 257
 128 -256 l 257
256 -128 m 257
 256 0 l 257
 384 0 l 257
 384 -128 l 257
 256 -128 l 257
384 0 m 257
 384 128 l 257
 512 128 l 257
 512 0 l 257
 384 0 l 257
256 128 m 257
 256 256 l 257
 384 256 l 257
 384 128 l 257
 256 128 l 257
512 128 m 257
 512 256 l 257
 640 256 l 257
 640 128 l 257
 512 128 l 257
128 256 m 257
 128 384 l 257
 256 384 l 257
 256 256 l 257
 128 256 l 257
640 256 m 257
 640 384 l 257
 768 384 l 257
 768 256 l 257
 640 256 l 257
0 384 m 257
 0 512 l 257
 128 512 l 257
 128 384 l 257
 0 384 l 257
768 384 m 257
 768 512 l 257
 896 512 l 257
 896 384 l 257
 768 384 l 257
0 512 m 257
 0 640 l 257
 128 640 l 257
 128 512 l 257
 0 512 l 257
768 512 m 257
 768 640 l 257
 896 640 l 257
 896 512 l 257
 768 512 l 257
0 640 m 257
 0 768 l 257
 128 768 l 257
 128 640 l 257
 0 640 l 257
768 640 m 257
 768 768 l 257
 896 768 l 257
 896 640 l 257
 768 640 l 257
0 768 m 257
 0 896 l 257
 128 896 l 257
 128 768 l 257
 0 768 l 257
768 768 m 257
 768 896 l 257
 896 896 l 257
 896 768 l 257
 768 768 l 257
EndSplineSet
Fore
SplineSet
0 -128 m 1
 165 -128 l 1
 357 64 l 1
 0 421 l 1
 0 896 l 1
 128 896 l 1
 128 475 l 1
 448 155 l 1
 768 475 l 1
 768 896 l 1
 896 896 l 1
 896 421 l 1
 219 -256 l 1
 0 -256 l 1
 0 -128 l 1
EndSplineSet
EndChar

StartChar: delta.uni03B4
Encoding: 106 948 106
GlifName: delta.uni03B4
Width: 2048
Flags: H
LayerCount: 2
Back
SplineSet
256 0 m 257
 256 128 l 257
 384 128 l 257
 384 0 l 257
 256 0 l 257
384 0 m 257
 384 128 l 257
 512 128 l 257
 512 0 l 257
 384 0 l 257
512 0 m 257
 512 128 l 257
 640 128 l 257
 640 0 l 257
 512 0 l 257
128 128 m 257
 128 256 l 257
 256 256 l 257
 256 128 l 257
 128 128 l 257
640 128 m 257
 640 256 l 257
 768 256 l 257
 768 128 l 257
 640 128 l 257
0 256 m 257
 0 384 l 257
 128 384 l 257
 128 256 l 257
 0 256 l 257
768 256 m 257
 768 384 l 257
 896 384 l 257
 896 256 l 257
 768 256 l 257
0 384 m 257
 0 512 l 257
 128 512 l 257
 128 384 l 257
 0 384 l 257
768 384 m 257
 768 512 l 257
 896 512 l 257
 896 384 l 257
 768 384 l 257
0 512 m 257
 0 640 l 257
 128 640 l 257
 128 512 l 257
 0 512 l 257
768 512 m 257
 768 640 l 257
 896 640 l 257
 896 512 l 257
 768 512 l 257
128 640 m 257
 128 768 l 257
 256 768 l 257
 256 640 l 257
 128 640 l 257
640 640 m 257
 640 768 l 257
 768 768 l 257
 768 640 l 257
 640 640 l 257
256 768 m 257
 256 896 l 257
 384 896 l 257
 384 768 l 257
 256 768 l 257
384 768 m 257
 384 896 l 257
 512 896 l 257
 512 768 l 257
 384 768 l 257
512 768 m 257
 512 896 l 257
 640 896 l 257
 640 768 l 257
 512 768 l 257
128 896 m 257
 128 1024 l 257
 256 1024 l 257
 256 896 l 257
 128 896 l 257
0 1024 m 257
 0 1152 l 257
 128 1152 l 257
 128 1024 l 257
 0 1024 l 257
128 1152 m 257
 128 1280 l 257
 256 1280 l 257
 256 1152 l 257
 128 1152 l 257
256 1280 m 257
 256 1408 l 257
 384 1408 l 257
 384 1280 l 257
 256 1280 l 257
384 1280 m 257
 384 1408 l 257
 512 1408 l 257
 512 1280 l 257
 384 1280 l 257
512 1280 m 257
 512 1408 l 257
 640 1408 l 257
 640 1280 l 257
 512 1280 l 257
640 1280 m 257
 640 1408 l 257
 768 1408 l 257
 768 1280 l 257
 640 1280 l 257
EndSplineSet
Fore
SplineSet
0 293 m 1
 0 603 l 1
 229 832 l 1
 0 1061 l 1
 0 1115 l 1
 293 1408 l 1
 768 1408 l 1
 768 1280 l 1
 347 1280 l 1
 155 1088 l 1
 347 896 l 1
 603 896 l 1
 896 603 l 1
 896 293 l 1
 603 0 l 1
 293 0 l 1
 0 293 l 1
128 347 m 1
 347 128 l 1
 549 128 l 1
 768 347 l 1
 768 549 l 1
 549 768 l 1
 347 768 l 1
 128 549 l 1
 128 347 l 1
EndSplineSet
EndChar

StartChar: epsilon.uni03B5
Encoding: 107 949 107
GlifName: epsilon.uni03B5
Width: 2048
Flags: H
LayerCount: 2
Back
SplineSet
128 0 m 257
 128 128 l 257
 256 128 l 257
 256 0 l 257
 128 0 l 257
256 0 m 257
 256 128 l 257
 384 128 l 257
 384 0 l 257
 256 0 l 257
384 0 m 257
 384 128 l 257
 512 128 l 257
 512 0 l 257
 384 0 l 257
512 0 m 257
 512 128 l 257
 640 128 l 257
 640 0 l 257
 512 0 l 257
640 0 m 257
 640 128 l 257
 768 128 l 257
 768 0 l 257
 640 0 l 257
768 0 m 257
 768 128 l 257
 896 128 l 257
 896 0 l 257
 768 0 l 257
0 128 m 257
 0 256 l 257
 128 256 l 257
 128 128 l 257
 0 128 l 257
0 256 m 257
 0 384 l 257
 128 384 l 257
 128 256 l 257
 0 256 l 257
128 384 m 257
 128 512 l 257
 256 512 l 257
 256 384 l 257
 128 384 l 257
256 384 m 257
 256 512 l 257
 384 512 l 257
 384 384 l 257
 256 384 l 257
384 384 m 257
 384 512 l 257
 512 512 l 257
 512 384 l 257
 384 384 l 257
512 384 m 257
 512 512 l 257
 640 512 l 257
 640 384 l 257
 512 384 l 257
640 384 m 257
 640 512 l 257
 768 512 l 257
 768 384 l 257
 640 384 l 257
768 384 m 257
 768 512 l 257
 896 512 l 257
 896 384 l 257
 768 384 l 257
0 512 m 257
 0 640 l 257
 128 640 l 257
 128 512 l 257
 0 512 l 257
0 640 m 257
 0 768 l 257
 128 768 l 257
 128 640 l 257
 0 640 l 257
128 768 m 257
 128 896 l 257
 256 896 l 257
 256 768 l 257
 128 768 l 257
256 768 m 257
 256 896 l 257
 384 896 l 257
 384 768 l 257
 256 768 l 257
384 768 m 257
 384 896 l 257
 512 896 l 257
 512 768 l 257
 384 768 l 257
512 768 m 257
 512 896 l 257
 640 896 l 257
 640 768 l 257
 512 768 l 257
640 768 m 257
 640 896 l 257
 768 896 l 257
 768 768 l 257
 640 768 l 257
768 768 m 257
 768 896 l 257
 896 896 l 257
 896 768 l 257
 768 768 l 257
EndSplineSet
Fore
SplineSet
0 165 m 1
 0 347 l 1
 101 448 l 1
 0 549 l 1
 0 731 l 1
 165 896 l 1
 896 896 l 1
 896 768 l 1
 219 768 l 1
 128 677 l 1
 128 603 l 1
 219 512 l 1
 896 512 l 1
 896 384 l 1
 219 384 l 1
 128 293 l 1
 128 219 l 1
 219 128 l 1
 896 128 l 1
 896 0 l 1
 165 0 l 1
 0 165 l 1
EndSplineSet
EndChar

StartChar: theta.uni03B8
Encoding: 108 952 108
GlifName: theta.uni03B8
Width: 2048
Flags: H
LayerCount: 2
Back
SplineSet
256 0 m 257
 256 128 l 257
 384 128 l 257
 384 0 l 257
 256 0 l 257
384 0 m 257
 384 128 l 257
 512 128 l 257
 512 0 l 257
 384 0 l 257
512 0 m 257
 512 128 l 257
 640 128 l 257
 640 0 l 257
 512 0 l 257
128 128 m 257
 128 256 l 257
 256 256 l 257
 256 128 l 257
 128 128 l 257
640 128 m 257
 640 256 l 257
 768 256 l 257
 768 128 l 257
 640 128 l 257
0 256 m 257
 0 384 l 257
 128 384 l 257
 128 256 l 257
 0 256 l 257
768 256 m 257
 768 384 l 257
 896 384 l 257
 896 256 l 257
 768 256 l 257
0 384 m 257
 0 512 l 257
 128 512 l 257
 128 384 l 257
 0 384 l 257
768 384 m 257
 768 512 l 257
 896 512 l 257
 896 384 l 257
 768 384 l 257
0 512 m 257
 0 640 l 257
 128 640 l 257
 128 512 l 257
 0 512 l 257
768 512 m 257
 768 640 l 257
 896 640 l 257
 896 512 l 257
 768 512 l 257
0 640 m 257
 0 768 l 257
 128 768 l 257
 128 640 l 257
 0 640 l 257
128 640 m 257
 128 768 l 257
 256 768 l 257
 256 640 l 257
 128 640 l 257
256 640 m 257
 256 768 l 257
 384 768 l 257
 384 640 l 257
 256 640 l 257
384 640 m 257
 384 768 l 257
 512 768 l 257
 512 640 l 257
 384 640 l 257
512 640 m 257
 512 768 l 257
 640 768 l 257
 640 640 l 257
 512 640 l 257
640 640 m 257
 640 768 l 257
 768 768 l 257
 768 640 l 257
 640 640 l 257
768 640 m 257
 768 768 l 257
 896 768 l 257
 896 640 l 257
 768 640 l 257
0 768 m 257
 0 896 l 257
 128 896 l 257
 128 768 l 257
 0 768 l 257
768 768 m 257
 768 896 l 257
 896 896 l 257
 896 768 l 257
 768 768 l 257
0 896 m 257
 0 1024 l 257
 128 1024 l 257
 128 896 l 257
 0 896 l 257
768 896 m 257
 768 1024 l 257
 896 1024 l 257
 896 896 l 257
 768 896 l 257
0 1024 m 257
 0 1152 l 257
 128 1152 l 257
 128 1024 l 257
 0 1024 l 257
768 1024 m 257
 768 1152 l 257
 896 1152 l 257
 896 1024 l 257
 768 1024 l 257
128 1152 m 257
 128 1280 l 257
 256 1280 l 257
 256 1152 l 257
 128 1152 l 257
640 1152 m 257
 640 1280 l 257
 768 1280 l 257
 768 1152 l 257
 640 1152 l 257
256 1280 m 257
 256 1408 l 257
 384 1408 l 257
 384 1280 l 257
 256 1280 l 257
384 1280 m 257
 384 1408 l 257
 512 1408 l 257
 512 1280 l 257
 384 1280 l 257
512 1280 m 257
 512 1408 l 257
 640 1408 l 257
 640 1280 l 257
 512 1280 l 257
EndSplineSet
Fore
SplineSet
0 293 m 1
 0 1115 l 1
 293 1408 l 1
 603 1408 l 1
 896 1115 l 1
 896 293 l 1
 603 0 l 1
 293 0 l 1
 0 293 l 1
128 347 m 1
 347 128 l 1
 549 128 l 1
 768 347 l 1
 768 640 l 1
 128 640 l 1
 128 347 l 1
128 768 m 1
 768 768 l 1
 768 1061 l 1
 549 1280 l 1
 347 1280 l 1
 128 1061 l 1
 128 768 l 1
EndSplineSet
EndChar

StartChar: lambda.uni03BB
Encoding: 109 955 109
GlifName: lambda.uni03BB
Width: 2048
Flags: H
LayerCount: 2
Back
SplineSet
0 0 m 257
 0 128 l 257
 128 128 l 257
 128 0 l 257
 0 0 l 257
768 0 m 257
 768 128 l 257
 896 128 l 257
 896 0 l 257
 768 0 l 257
0 128 m 257
 0 256 l 257
 128 256 l 257
 128 128 l 257
 0 128 l 257
768 128 m 257
 768 256 l 257
 896 256 l 257
 896 128 l 257
 768 128 l 257
0 256 m 257
 0 384 l 257
 128 384 l 257
 128 256 l 257
 0 256 l 257
768 256 m 257
 768 384 l 257
 896 384 l 257
 896 256 l 257
 768 256 l 257
128 384 m 257
 128 512 l 257
 256 512 l 257
 256 384 l 257
 128 384 l 257
640 384 m 257
 640 512 l 257
 768 512 l 257
 768 384 l 257
 640 384 l 257
256 512 m 257
 256 640 l 257
 384 640 l 257
 384 512 l 257
 256 512 l 257
512 512 m 257
 512 640 l 257
 640 640 l 257
 640 512 l 257
 512 512 l 257
384 640 m 257
 384 768 l 257
 512 768 l 257
 512 640 l 257
 384 640 l 257
256 768 m 257
 256 896 l 257
 384 896 l 257
 384 768 l 257
 256 768 l 257
128 896 m 257
 128 1024 l 257
 256 1024 l 257
 256 896 l 257
 128 896 l 257
0 1024 m 257
 0 1152 l 257
 128 1152 l 257
 128 1024 l 257
 0 1024 l 257
0 1152 m 257
 0 1280 l 257
 128 1280 l 257
 128 1152 l 257
 0 1152 l 257
0 1280 m 257
 0 1408 l 257
 128 1408 l 257
 128 1280 l 257
 0 1280 l 257
EndSplineSet
Fore
SplineSet
0 0 m 1
 0 347 l 1
 357 704 l 1
 0 1061 l 1
 0 1408 l 1
 128 1408 l 1
 128 1115 l 1
 896 347 l 1
 896 0 l 1
 768 0 l 1
 768 293 l 1
 448 613 l 1
 128 293 l 1
 128 0 l 1
 0 0 l 1
EndSplineSet
EndChar

StartChar: uni03BC.uni03BC
Encoding: 110 956 110
GlifName: uni03BC.uni03BC
Width: 2048
Flags: H
LayerCount: 2
Back
SplineSet
0 -256 m 257
 0 -128 l 257
 128 -128 l 257
 128 -256 l 257
 0 -256 l 257
0 -128 m 257
 0 0 l 257
 128 0 l 257
 128 -128 l 257
 0 -128 l 257
0 0 m 257
 0 128 l 257
 128 128 l 257
 128 0 l 257
 0 0 l 257
128 0 m 257
 128 128 l 257
 256 128 l 257
 256 0 l 257
 128 0 l 257
256 0 m 257
 256 128 l 257
 384 128 l 257
 384 0 l 257
 256 0 l 257
384 0 m 257
 384 128 l 257
 512 128 l 257
 512 0 l 257
 384 0 l 257
512 0 m 257
 512 128 l 257
 640 128 l 257
 640 0 l 257
 512 0 l 257
0 128 m 257
 0 256 l 257
 128 256 l 257
 128 128 l 257
 0 128 l 257
640 128 m 257
 640 256 l 257
 768 256 l 257
 768 128 l 257
 640 128 l 257
0 256 m 257
 0 384 l 257
 128 384 l 257
 128 256 l 257
 0 256 l 257
768 256 m 257
 768 384 l 257
 896 384 l 257
 896 256 l 257
 768 256 l 257
0 384 m 257
 0 512 l 257
 128 512 l 257
 128 384 l 257
 0 384 l 257
768 384 m 257
 768 512 l 257
 896 512 l 257
 896 384 l 257
 768 384 l 257
0 512 m 257
 0 640 l 257
 128 640 l 257
 128 512 l 257
 0 512 l 257
768 512 m 257
 768 640 l 257
 896 640 l 257
 896 512 l 257
 768 512 l 257
0 640 m 257
 0 768 l 257
 128 768 l 257
 128 640 l 257
 0 640 l 257
768 640 m 257
 768 768 l 257
 896 768 l 257
 896 640 l 257
 768 640 l 257
0 768 m 257
 0 896 l 257
 128 896 l 257
 128 768 l 257
 0 768 l 257
768 768 m 257
 768 896 l 257
 896 896 l 257
 896 768 l 257
 768 768 l 257
EndSplineSet
Fore
SplineSet
0 -256 m 1
 0 896 l 1
 128 896 l 1
 128 128 l 1
 549 128 l 1
 768 347 l 1
 768 896 l 1
 896 896 l 1
 896 293 l 1
 603 0 l 1
 128 0 l 1
 128 -256 l 1
 0 -256 l 1
EndSplineSet
EndChar

StartChar: nu.uni03BD
Encoding: 111 957 111
GlifName: nu.uni03BD
Width: 2048
Flags: H
LayerCount: 2
Back
SplineSet
0 0 m 257
 0 128 l 257
 128 128 l 257
 128 0 l 257
 0 0 l 257
128 0 m 257
 128 128 l 257
 256 128 l 257
 256 0 l 257
 128 0 l 257
256 0 m 257
 256 128 l 257
 384 128 l 257
 384 0 l 257
 256 0 l 257
0 128 m 257
 0 256 l 257
 128 256 l 257
 128 128 l 257
 0 128 l 257
384 128 m 257
 384 256 l 257
 512 256 l 257
 512 128 l 257
 384 128 l 257
0 256 m 257
 0 384 l 257
 128 384 l 257
 128 256 l 257
 0 256 l 257
512 256 m 257
 512 384 l 257
 640 384 l 257
 640 256 l 257
 512 256 l 257
0 384 m 257
 0 512 l 257
 128 512 l 257
 128 384 l 257
 0 384 l 257
640 384 m 257
 640 512 l 257
 768 512 l 257
 768 384 l 257
 640 384 l 257
0 512 m 257
 0 640 l 257
 128 640 l 257
 128 512 l 257
 0 512 l 257
768 512 m 257
 768 640 l 257
 896 640 l 257
 896 512 l 257
 768 512 l 257
0 640 m 257
 0 768 l 257
 128 768 l 257
 128 640 l 257
 0 640 l 257
768 640 m 257
 768 768 l 257
 896 768 l 257
 896 640 l 257
 768 640 l 257
0 768 m 257
 0 896 l 257
 128 896 l 257
 128 768 l 257
 0 768 l 257
768 768 m 257
 768 896 l 257
 896 896 l 257
 896 768 l 257
 768 768 l 257
EndSplineSet
Fore
SplineSet
0 0 m 1
 0 896 l 1
 128 896 l 1
 128 128 l 1
 293 128 l 1
 768 603 l 1
 768 896 l 1
 896 896 l 1
 896 549 l 1
 347 0 l 1
 0 0 l 1
EndSplineSet
EndChar

StartChar: pi.uni03C0
Encoding: 112 960 112
GlifName: pi.uni03C0
Width: 2048
Flags: H
LayerCount: 2
Back
SplineSet
128 0 m 257
 128 128 l 257
 256 128 l 257
 256 0 l 257
 128 0 l 257
640 0 m 257
 640 128 l 257
 768 128 l 257
 768 0 l 257
 640 0 l 257
128 128 m 257
 128 256 l 257
 256 256 l 257
 256 128 l 257
 128 128 l 257
640 128 m 257
 640 256 l 257
 768 256 l 257
 768 128 l 257
 640 128 l 257
128 256 m 257
 128 384 l 257
 256 384 l 257
 256 256 l 257
 128 256 l 257
640 256 m 257
 640 384 l 257
 768 384 l 257
 768 256 l 257
 640 256 l 257
128 384 m 257
 128 512 l 257
 256 512 l 257
 256 384 l 257
 128 384 l 257
640 384 m 257
 640 512 l 257
 768 512 l 257
 768 384 l 257
 640 384 l 257
128 512 m 257
 128 640 l 257
 256 640 l 257
 256 512 l 257
 128 512 l 257
640 512 m 257
 640 640 l 257
 768 640 l 257
 768 512 l 257
 640 512 l 257
128 640 m 257
 128 768 l 257
 256 768 l 257
 256 640 l 257
 128 640 l 257
640 640 m 257
 640 768 l 257
 768 768 l 257
 768 640 l 257
 640 640 l 257
0 768 m 257
 0 896 l 257
 128 896 l 257
 128 768 l 257
 0 768 l 257
128 768 m 257
 128 896 l 257
 256 896 l 257
 256 768 l 257
 128 768 l 257
256 768 m 257
 256 896 l 257
 384 896 l 257
 384 768 l 257
 256 768 l 257
384 768 m 257
 384 896 l 257
 512 896 l 257
 512 768 l 257
 384 768 l 257
512 768 m 257
 512 896 l 257
 640 896 l 257
 640 768 l 257
 512 768 l 257
640 768 m 257
 640 896 l 257
 768 896 l 257
 768 768 l 257
 640 768 l 257
768 768 m 257
 768 896 l 257
 896 896 l 257
 896 768 l 257
 768 768 l 257
EndSplineSet
Fore
SplineSet
0 768 m 1
 0 896 l 1
 896 896 l 1
 896 768 l 1
 768 768 l 1
 768 0 l 1
 640 0 l 1
 640 768 l 1
 256 768 l 1
 256 0 l 1
 128 0 l 1
 128 768 l 1
 0 768 l 1
EndSplineSet
EndChar

StartChar: sigma.uni03C3
Encoding: 113 963 113
GlifName: sigma.uni03C3
Width: 2048
Flags: H
LayerCount: 2
Back
SplineSet
128 0 m 257
 128 128 l 257
 256 128 l 257
 256 0 l 257
 128 0 l 257
256 0 m 257
 256 128 l 257
 384 128 l 257
 384 0 l 257
 256 0 l 257
384 0 m 257
 384 128 l 257
 512 128 l 257
 512 0 l 257
 384 0 l 257
512 0 m 257
 512 128 l 257
 640 128 l 257
 640 0 l 257
 512 0 l 257
0 128 m 257
 0 256 l 257
 128 256 l 257
 128 128 l 257
 0 128 l 257
640 128 m 257
 640 256 l 257
 768 256 l 257
 768 128 l 257
 640 128 l 257
0 256 m 257
 0 384 l 257
 128 384 l 257
 128 256 l 257
 0 256 l 257
640 256 m 257
 640 384 l 257
 768 384 l 257
 768 256 l 257
 640 256 l 257
0 384 m 257
 0 512 l 257
 128 512 l 257
 128 384 l 257
 0 384 l 257
640 384 m 257
 640 512 l 257
 768 512 l 257
 768 384 l 257
 640 384 l 257
0 512 m 257
 0 640 l 257
 128 640 l 257
 128 512 l 257
 0 512 l 257
640 512 m 257
 640 640 l 257
 768 640 l 257
 768 512 l 257
 640 512 l 257
0 640 m 257
 0 768 l 257
 128 768 l 257
 128 640 l 257
 0 640 l 257
640 640 m 257
 640 768 l 257
 768 768 l 257
 768 640 l 257
 640 640 l 257
128 768 m 257
 128 896 l 257
 256 896 l 257
 256 768 l 257
 128 768 l 257
256 768 m 257
 256 896 l 257
 384 896 l 257
 384 768 l 257
 256 768 l 257
384 768 m 257
 384 896 l 257
 512 896 l 257
 512 768 l 257
 384 768 l 257
512 768 m 257
 512 896 l 257
 640 896 l 257
 640 768 l 257
 512 768 l 257
640 768 m 257
 640 896 l 257
 768 896 l 257
 768 768 l 257
 640 768 l 257
768 768 m 257
 768 896 l 257
 896 896 l 257
 896 768 l 257
 768 768 l 257
EndSplineSet
Fore
SplineSet
0 165 m 1
 0 731 l 1
 165 896 l 1
 896 896 l 1
 896 768 l 1
 768 768 l 1
 768 165 l 1
 603 0 l 1
 165 0 l 1
 0 165 l 1
128 219 m 1
 219 128 l 1
 549 128 l 1
 640 219 l 1
 640 768 l 1
 219 768 l 1
 128 677 l 1
 128 219 l 1
EndSplineSet
EndChar

StartChar: tau.uni03C4
Encoding: 114 964 114
GlifName: tau.uni03C4
Width: 2048
Flags: H
LayerCount: 2
Back
SplineSet
384 0 m 257
 384 128 l 257
 512 128 l 257
 512 0 l 257
 384 0 l 257
384 128 m 257
 384 256 l 257
 512 256 l 257
 512 128 l 257
 384 128 l 257
384 256 m 257
 384 384 l 257
 512 384 l 257
 512 256 l 257
 384 256 l 257
384 384 m 257
 384 512 l 257
 512 512 l 257
 512 384 l 257
 384 384 l 257
384 512 m 257
 384 640 l 257
 512 640 l 257
 512 512 l 257
 384 512 l 257
384 640 m 257
 384 768 l 257
 512 768 l 257
 512 640 l 257
 384 640 l 257
0 768 m 257
 0 896 l 257
 128 896 l 257
 128 768 l 257
 0 768 l 257
128 768 m 257
 128 896 l 257
 256 896 l 257
 256 768 l 257
 128 768 l 257
256 768 m 257
 256 896 l 257
 384 896 l 257
 384 768 l 257
 256 768 l 257
384 768 m 257
 384 896 l 257
 512 896 l 257
 512 768 l 257
 384 768 l 257
512 768 m 257
 512 896 l 257
 640 896 l 257
 640 768 l 257
 512 768 l 257
640 768 m 257
 640 896 l 257
 768 896 l 257
 768 768 l 257
 640 768 l 257
768 768 m 257
 768 896 l 257
 896 896 l 257
 896 768 l 257
 768 768 l 257
EndSplineSet
Fore
SplineSet
0 768 m 1
 0 896 l 1
 896 896 l 1
 896 768 l 1
 512 768 l 1
 512 0 l 1
 384 0 l 1
 384 768 l 1
 0 768 l 1
EndSplineSet
EndChar

StartChar: phi.uni03C6
Encoding: 115 966 115
GlifName: phi.uni03C6
Width: 2048
Flags: H
LayerCount: 2
Back
SplineSet
384 0 m 257
 384 128 l 257
 512 128 l 257
 512 0 l 257
 384 0 l 257
384 128 m 257
 384 256 l 257
 512 256 l 257
 512 128 l 257
 384 128 l 257
384 256 m 257
 384 384 l 257
 512 384 l 257
 512 256 l 257
 384 256 l 257
384 384 m 257
 384 512 l 257
 512 512 l 257
 512 384 l 257
 384 384 l 257
384 512 m 257
 384 640 l 257
 512 640 l 257
 512 512 l 257
 384 512 l 257
128 640 m 257
 128 768 l 257
 256 768 l 257
 256 640 l 257
 128 640 l 257
256 640 m 257
 256 768 l 257
 384 768 l 257
 384 640 l 257
 256 640 l 257
384 640 m 257
 384 768 l 257
 512 768 l 257
 512 640 l 257
 384 640 l 257
512 640 m 257
 512 768 l 257
 640 768 l 257
 640 640 l 257
 512 640 l 257
640 640 m 257
 640 768 l 257
 768 768 l 257
 768 640 l 257
 640 640 l 257
0 768 m 257
 0 896 l 257
 128 896 l 257
 128 768 l 257
 0 768 l 257
384 768 m 257
 384 896 l 257
 512 896 l 257
 512 768 l 257
 384 768 l 257
768 768 m 257
 768 896 l 257
 896 896 l 257
 896 768 l 257
 768 768 l 257
0 896 m 257
 0 1024 l 257
 128 1024 l 257
 128 896 l 257
 0 896 l 257
384 896 m 257
 384 1024 l 257
 512 1024 l 257
 512 896 l 257
 384 896 l 257
768 896 m 257
 768 1024 l 257
 896 1024 l 257
 896 896 l 257
 768 896 l 257
0 1024 m 257
 0 1152 l 257
 128 1152 l 257
 128 1024 l 257
 0 1024 l 257
384 1024 m 257
 384 1152 l 257
 512 1152 l 257
 512 1024 l 257
 384 1024 l 257
768 1024 m 257
 768 1152 l 257
 896 1152 l 257
 896 1024 l 257
 768 1024 l 257
0 1152 m 257
 0 1280 l 257
 128 1280 l 257
 128 1152 l 257
 0 1152 l 257
384 1152 m 257
 384 1280 l 257
 512 1280 l 257
 512 1152 l 257
 384 1152 l 257
768 1152 m 257
 768 1280 l 257
 896 1280 l 257
 896 1152 l 257
 768 1152 l 257
0 1280 m 257
 0 1408 l 257
 128 1408 l 257
 128 1280 l 257
 0 1280 l 257
512 1280 m 257
 512 1408 l 257
 640 1408 l 257
 640 1280 l 257
 512 1280 l 257
640 1280 m 257
 640 1408 l 257
 768 1408 l 257
 768 1280 l 257
 640 1280 l 257
EndSplineSet
Fore
SplineSet
0 805 m 1
 0 1408 l 1
 128 1408 l 1
 128 859 l 1
 219 768 l 1
 384 768 l 1
 384 1243 l 1
 549 1408 l 1
 731 1408 l 1
 896 1243 l 1
 896 805 l 1
 731 640 l 1
 512 640 l 1
 512 0 l 1
 384 0 l 1
 384 640 l 1
 165 640 l 1
 0 805 l 1
512 768 m 1
 677 768 l 1
 768 859 l 1
 768 1189 l 1
 677 1280 l 1
 603 1280 l 1
 512 1189 l 1
 512 768 l 1
EndSplineSet
EndChar

StartChar: chi.uni03C7
Encoding: 116 967 116
GlifName: chi.uni03C7
Width: 2048
Flags: H
LayerCount: 2
Back
SplineSet
0 0 m 257
 0 128 l 257
 128 128 l 257
 128 0 l 257
 0 0 l 257
0 128 m 257
 0 256 l 257
 128 256 l 257
 128 128 l 257
 0 128 l 257
0 256 m 257
 0 384 l 257
 128 384 l 257
 128 256 l 257
 0 256 l 257
768 256 m 257
 768 384 l 257
 896 384 l 257
 896 256 l 257
 768 256 l 257
128 384 m 257
 128 512 l 257
 256 512 l 257
 256 384 l 257
 128 384 l 257
640 384 m 257
 640 512 l 257
 768 512 l 257
 768 384 l 257
 640 384 l 257
256 512 m 257
 256 640 l 257
 384 640 l 257
 384 512 l 257
 256 512 l 257
512 512 m 257
 512 640 l 257
 640 640 l 257
 640 512 l 257
 512 512 l 257
384 640 m 257
 384 768 l 257
 512 768 l 257
 512 640 l 257
 384 640 l 257
256 768 m 257
 256 896 l 257
 384 896 l 257
 384 768 l 257
 256 768 l 257
512 768 m 257
 512 896 l 257
 640 896 l 257
 640 768 l 257
 512 768 l 257
128 896 m 257
 128 1024 l 257
 256 1024 l 257
 256 896 l 257
 128 896 l 257
640 896 m 257
 640 1024 l 257
 768 1024 l 257
 768 896 l 257
 640 896 l 257
0 1024 m 257
 0 1152 l 257
 128 1152 l 257
 128 1024 l 257
 0 1024 l 257
768 1024 m 257
 768 1152 l 257
 896 1152 l 257
 896 1024 l 257
 768 1024 l 257
768 1152 m 257
 768 1280 l 257
 896 1280 l 257
 896 1152 l 257
 768 1152 l 257
768 1280 m 257
 768 1408 l 257
 896 1408 l 257
 896 1280 l 257
 768 1280 l 257
EndSplineSet
Fore
SplineSet
0 0 m 1
 0 347 l 1
 357 704 l 1
 0 1061 l 1
 91 1152 l 1
 448 795 l 1
 768 1115 l 1
 768 1408 l 1
 896 1408 l 1
 896 1061 l 1
 539 704 l 1
 896 347 l 1
 805 256 l 1
 448 613 l 1
 128 293 l 1
 128 0 l 1
 0 0 l 1
EndSplineSet
EndChar

